DroidSansFallback.glyphspackage
{
glyphname = periodcentered;
layers = (
{
layerId = m01;
shapes = (
{
closed = 1;
nodes = (
(630,582,l),
(630,818,l),
(394,818,l),
(394,582,l)
);
}
);
width = 1024;
}
);
unicode = 183;
}
{
glyphname = "kiyeokCho-ko";
layers = (
{
layerId = m01;
shapes = (
{
closed = 1;
nodes = (
(185,136,l),
(185,27,l),
(205,27,l),
(205,155,l),
(43,155,l),
(43,136,l)
);
}
);
vertWidth = 256;
width = 256;
}
);
note = uni11A8;
unicode = (4352,4520,12593);
}
{
glyphname = "ssangkiyeokCho-ko";
layers = (
{
layerId = m01;
shapes = (
{
closed = 1;
nodes = (
(808,1080,l),
(808,216,l),
(968,216,l),
(968,1232,l),
(264,1232,l),
(264,1080,l)
);
},
{
closed = 1;
nodes = (
(1576,1080,l),
(1576,216,l),
(1736,216,l),
(1736,1232,l),
(1080,1232,l),
(1080,1080,l)
);
}
);
vertWidth = 2048;
width = 2048;
}
);
note = uni11A9;
unicode = (4353,4521,12594);
}
{
glyphname = "nieunCho-ko";
layers = (
{
layerId = m01;
shapes = (
{
closed = 1;
nodes = (
(836,116,l),
(836,192,l),
(280,192,l),
(280,612,l),
(200,612,l),
(200,116,l)
);
}
);
vertWidth = 1024;
width = 1024;
}
);
note = uni3134;
unicode = (4354,4523,12596);
}
{
glyphname = "tikeutCho-ko";
layers = (
{
layerId = m01;
shapes = (
{
closed = 1;
nodes = (
(180,116,l),
(812,116,l),
(812,192,l),
(260,192,l),
(260,544,l),
(792,544,l),
(792,620,l),
(180,620,l)
);
}
);
vertWidth = 1024;
width = 1024;
}
);
note = uni11AE;
unicode = (4355,4526,12599);
}
{
glyphname = "ssangtikeutCho-ko";
layers = (
{
layerId = m01;
shapes = (
{
closed = 1;
nodes = (
(532,116,l),
(908,116,l),
(908,192,l),
(616,192,l),
(616,544,l),
(888,544,l),
(888,620,l),
(532,620,l)
);
},
{
closed = 1;
nodes = (
(344,120,o),
(520,156,q),
(504,232,l),
(380,196,o),
(228,196,q),
(228,540,l),
(480,540,l),
(480,616,l),
(148,616,l),
(148,120,l)
);
}
);
vertWidth = 1024;
width = 1024;
}
);
note = uni1104;
unicode = (4356,12600);
}
{
glyphname = "rieulCho-ko";
layers = (
{
layerId = m01;
shapes = (
{
closed = 1;
nodes = (
(1480,1080,l),
(1480,840,l),
(400,840,l),
(400,232,l),
(1664,232,l),
(1664,384,l),
(560,384,l),
(560,688,l),
(1640,688,l),
(1640,1232,l),
(408,1232,l),
(408,1080,l)
);
}
);
vertWidth = 2048;
width = 2048;
}
);
note = uni11AF;
unicode = (4357,4527,12601);
}
{
glyphname = "mieumCho-ko";
layers = (
{
layerId = m01;
shapes = (
{
closed = 1;
nodes = (
(392,240,l),
(552,240,l),
(552,288,l),
(1472,288,l),
(1472,240,l),
(1632,240,l),
(1632,1240,l),
(392,1240,l)
);
},
{
closed = 1;
nodes = (
(1472,1088,l),
(1472,440,l),
(552,440,l),
(552,1088,l)
);
}
);
vertWidth = 2048;
width = 2048;
}
);
note = uni11B7;
unicode = (4358,4535,12609);
}
{
glyphname = "pieupCho-ko";
layers = (
{
layerId = m01;
shapes = (
{
closed = 1;
nodes = (
(71,30,l),
(71,36,l),
(184,36,l),
(184,30,l),
(204,30,l),
(204,153,l),
(184,153,l),
(184,115,l),
(71,115,l),
(71,153,l),
(51,153,l),
(51,30,l)
);
},
{
closed = 1;
nodes = (
(184,96,l),
(184,55,l),
(71,55,l),
(71,96,l)
);
}
);
vertWidth = 256;
width = 256;
}
);
note = uni11B8;
unicode = (4359,4536,12610);
}
{
glyphname = "ssangpieupCho-ko";
layers = (
{
layerId = m01;
shapes = (
{
closed = 1;
nodes = (
(464,224,l),
(464,264,l),
(856,264,l),
(856,224,l),
(1016,224,l),
(1016,1224,l),
(856,1224,l),
(856,920,l),
(464,920,l),
(464,1224,l),
(304,1224,l),
(304,224,l)
);
},
{
closed = 1;
nodes = (
(856,768,l),
(856,416,l),
(464,416,l),
(464,768,l)
);
},
{
closed = 1;
nodes = (
(1216,224,l),
(1216,264,l),
(1600,264,l),
(1600,224,l),
(1760,224,l),
(1760,1224,l),
(1600,1224,l),
(1600,920,l),
(1216,920,l),
(1216,1224,l),
(1056,1224,l),
(1056,224,l)
);
},
{
closed = 1;
nodes = (
(1600,768,l),
(1600,416,l),
(1216,416,l),
(1216,768,l)
);
}
);
vertWidth = 2048;
width = 2048;
}
);
note = uni1108;
unicode = (4360,12611);
}
{
glyphname = "siosCho-ko";
layers = (
{
layerId = m01;
shapes = (
{
closed = 1;
nodes = (
(1648,232,q),
(1736,376,l),
(1152,568,o),
(1152,1264,q),
(992,1264,l),
(992,1152,ls),
(976,880,o),
(600,448,o),
(272,352,q),
(360,208,l),
(912,432,o),
(1072,832,q),
(1200,432,o)
);
}
);
vertWidth = 2048;
width = 2048;
}
);
note = uni11BA;
unicode = (4361,4538,12613);
}
{
glyphname = "ssangsiosCho-ko";
layers = (
{
layerId = m01;
shapes = (
{
closed = 1;
nodes = (
(225,26,q),
(237,42,l),
(186,66,o),
(186,126,qs),
(186,158,l),
(166,158,l),
(166,127,l),
(161,68,o),
(112,43,q),
(124,28,l),
(165,54,o),
(176,94,q),
(186,49,o)
);
},
{
closed = 1;
nodes = (
(111,48,q),
(124,64,l),
(91,83,o),
(91,131,qs),
(91,157,l),
(70,157,l),
(70,131,ls),
(66,70,o),
(23,44,q),
(36,28,l),
(71,55,o),
(80,96,q),
(86,65,o)
);
}
);
vertWidth = 256;
width = 256;
}
);
note = uni110A;
unicode = (4362,4539,12614);
}
{
glyphname = "ieungCho-ko";
layers = (
{
layerId = m01;
shapes = (
{
closed = 1;
nodes = (
(55,89,qs),
(55,24,o),
(129,24,qs),
(202,24,o),
(202,89,qs),
(202,149,o),
(138,155,q),
(138,171,l),
(119,171,l),
(119,155,l),
(55,149,o)
);
},
{
closed = 1;
nodes = (
(182,89,qs),
(182,42,o),
(129,42,qs),
(75,42,o),
(75,89,qs),
(75,137,o),
(129,137,qs),
(182,137,o)
);
}
);
vertWidth = 256;
width = 256;
}
);
note = uni11BC;
unicode = (4363,4540,12615);
}
{
glyphname = "cieucCho-ko";
layers = (
{
layerId = m01;
shapes = (
{
closed = 1;
nodes = (
(328,1088,l),
(960,1088,l),
(920,552,o),
(280,360,q),
(368,216,l),
(888,440,o),
(1040,816,q),
(1184,416,o),
(1680,216,q),
(1776,360,l),
(1144,544,o),
(1112,1088,q),
(1736,1088,l),
(1736,1240,l),
(328,1240,l)
);
}
);
vertWidth = 2048;
width = 2048;
}
);
note = uni11BD;
unicode = (4364,4541,12616);
}
{
glyphname = "ssangcieucCho-ko";
layers = (
{
layerId = m01;
shapes = (
{
closed = 1;
nodes = (
(134,136,l),
(168,136,l),
(168,122,ls),
(165,63,o),
(122,43,q),
(133,25,l),
(168,48,o),
(177,88,q),
(188,46,o),
(224,25,q),
(235,43,l),
(187,63,o),
(187,122,qs),
(187,136,l),
(228,136,l),
(228,155,l),
(134,155,l)
);
},
{
closed = 1;
nodes = (
(30,136,l),
(66,136,l),
(66,125,ls),
(64,66,o),
(21,46,q),
(32,29,l),
(66,51,o),
(76,91,q),
(84,56,o),
(112,39,q),
(123,57,l),
(85,77,o),
(85,125,qs),
(85,136,l),
(124,136,l),
(124,155,l),
(30,155,l)
);
}
);
vertWidth = 256;
width = 256;
}
);
note = uni110D;
unicode = (4365,12617);
}
{
glyphname = "chieuchCho-ko";
layers = (
{
layerId = m01;
shapes = (
{
closed = 1;
nodes = (
(88,151,l),
(171,151,l),
(171,170,l),
(88,170,l)
);
},
{
closed = 1;
nodes = (
(41,113,l),
(120,113,l),
(118,91,o),
(74,53,o),
(35,45,q),
(46,27,l),
(112,49,o),
(130,85,q),
(147,47,o),
(210,27,q),
(222,45,l),
(144,63,o),
(140,113,q),
(217,113,l),
(217,132,l),
(41,132,l)
);
}
);
vertWidth = 256;
width = 256;
}
);
note = uni110E;
unicode = (4366,4542,12618);
}
{
glyphname = "khieukhCho-ko";
layers = (
{
layerId = m01;
shapes = (
{
closed = 1;
nodes = (
(1480,1088,l),
(1480,848,l),
(360,720,l),
(376,568,l),
(1480,728,l),
(1480,240,l),
(1640,240,l),
(1640,1240,l),
(360,1240,l),
(360,1088,l)
);
}
);
vertWidth = 2048;
width = 2048;
}
);
note = uni110F;
unicode = (4367,4543,12619);
}
{
glyphname = "thieuthCho-ko";
layers = (
{
layerId = m01;
shapes = (
{
closed = 1;
nodes = (
(49,29,l),
(208,29,l),
(208,48,l),
(69,48,l),
(69,86,l),
(202,86,l),
(202,104,l),
(69,104,l),
(69,135,l),
(206,135,l),
(206,154,l),
(49,154,l)
);
}
);
vertWidth = 256;
width = 256;
}
);
note = uni11C0;
unicode = (4368,4544,12620);
}
{
glyphname = "phieuphCho-ko";
layers = (
{
layerId = m01;
shapes = (
{
closed = 1;
nodes = (
(48,136,l),
(208,136,l),
(208,155,l),
(48,155,l)
);
},
{
closed = 1;
nodes = (
(182,127,l),
(162,127,l),
(149,48,l),
(108,48,l),
(96,127,l),
(76,127,l),
(88,48,l),
(40,48,l),
(40,29,l),
(215,29,l),
(215,48,l),
(168,48,l)
);
}
);
vertWidth = 256;
width = 256;
}
);
note = uni1111;
unicode = (4369,4545,12621);
}
{
glyphname = "hieuhCho-ko";
layers = (
{
layerId = m01;
shapes = (
{
closed = 1;
nodes = (
(92,150,l),
(160,150,l),
(160,169,l),
(92,169,l)
);
},
{
closed = 1;
nodes = (
(41,115,l),
(217,115,l),
(217,134,l),
(41,134,l)
);
},
{
closed = 1;
nodes = (
(64,54,qs),
(64,12,o),
(127,12,qs),
(191,12,o),
(191,54,qs),
(191,92,o),
(138,96,q),
(138,108,l),
(119,108,l),
(119,96,l),
(64,92,o)
);
},
{
closed = 1;
nodes = (
(172,28,o),
(127,28,qs),
(83,28,o),
(83,80,o),
(127,80,qs),
(172,80,o)
);
}
);
vertWidth = 256;
width = 256;
}
);
note = uni1112;
unicode = (4370,4546,12622);
}
{
glyphname = "ssangnieunCho-ko";
layers = (
{
layerId = m01;
shapes = (
{
closed = 1;
nodes = (
(920,116,l),
(920,192,l),
(616,192,l),
(616,612,l),
(536,612,l),
(536,116,l)
);
},
{
closed = 1;
nodes = (
(352,120,o),
(512,156,q),
(504,220,l),
(368,192,o),
(232,192,q),
(232,612,l),
(148,612,l),
(148,120,l)
);
}
);
vertWidth = 1024;
width = 1024;
}
);
note = uni1114;
unicode = (4372,4607,12645);
}
{
glyphname = "nieunTikeutCho-ko";
layers = (
{
layerId = m01;
shapes = (
{
closed = 1;
nodes = (
(133,29,l),
(224,29,l),
(224,48,l),
(152,48,l),
(152,135,l),
(220,135,l),
(220,154,l),
(133,154,l)
);
},
{
closed = 1;
nodes = (
(81,30,o),
(120,39,q),
(117,55,l),
(86,48,o),
(53,48,q),
(53,153,l),
(33,153,l),
(33,30,l)
);
}
);
vertWidth = 256;
width = 256;
}
);
note = uni1115;
unicode = (4373,4550,12646);
}
{
glyphname = "rieulHieuhCho-ko";
layers = (
{
layerId = m01;
shapes = (
{
closed = 1;
nodes = (
(145,145,l),
(200,145,l),
(200,162,l),
(145,162,l)
);
},
{
closed = 1;
nodes = (
(91,135,l),
(91,108,l),
(34,108,l),
(34,29,l),
(120,36,l),
(116,53,l),
(54,48,l),
(54,89,l),
(112,89,l),
(112,154,l),
(35,154,l),
(35,135,l)
);
},
{
closed = 1;
nodes = (
(115,112,l),
(234,112,l),
(234,129,l),
(115,129,l)
);
},
{
closed = 1;
nodes = (
(127,74,o),
(127,59,qs),
(127,21,o),
(217,21,o),
(217,59,qs),
(217,90,o),
(183,97,q),
(183,107,l),
(165,107,l),
(165,97,l),
(148,96,o)
);
},
{
closed = 1;
nodes = (
(198,59,qs),
(198,37,o),
(146,37,o),
(146,59,qs),
(146,80,o),
(198,80,o)
);
}
);
vertWidth = 256;
width = 256;
}
);
note = uni3140;
unicode = (4378,4534,12608);
}
{
glyphname = "mieumPieupCho-ko";
layers = (
{
layerId = m01;
shapes = (
{
closed = 1;
nodes = (
(1216,1232,l),
(1056,1232,l),
(1056,224,l),
(1216,224,l),
(1216,264,l),
(1592,264,l),
(1592,224,l),
(1752,224,l),
(1752,1232,l),
(1592,1232,l),
(1592,920,l),
(1216,920,l)
);
},
{
closed = 1;
nodes = (
(1216,776,l),
(1592,776,l),
(1592,416,l),
(1216,416,l)
);
},
{
closed = 1;
nodes = (
(280,240,l),
(440,240,l),
(440,296,l),
(808,296,l),
(808,240,l),
(968,240,l),
(968,1232,l),
(280,1232,l)
);
},
{
closed = 1;
nodes = (
(808,1080,l),
(808,448,l),
(440,448,l),
(440,1080,l)
);
}
);
vertWidth = 2048;
width = 2048;
}
);
note = uni316E;
unicode = (4380,4572,12654);
}
{
glyphname = "kapyeounmieumCho-ko";
layers = (
{
layerId = m01;
shapes = (
{
closed = 1;
nodes = (
(528,848,l),
(688,848,l),
(688,888,l),
(1376,888,l),
(1376,848,l),
(1536,848,l),
(1536,1528,l),
(528,1528,l)
);
},
{
closed = 1;
nodes = (
(1376,1376,l),
(1376,1040,l),
(688,1040,l),
(688,1376,l)
);
},
{
closed = 1;
nodes = (
(544,456,o),
(544,304,qs),
(544,136,o),
(800,-80,o),
(1024,-80,qs),
(1240,-80,o),
(1496,136,o),
(1496,304,qs),
(1496,456,o),
(1280,672,o),
(1096,688,q),
(1096,824,l),
(944,824,l),
(944,688,l),
(760,672,o)
);
},
{
closed = 1;
nodes = (
(1336,64,o),
(1024,64,qs),
(704,64,o),
(704,544,o),
(1024,544,qs),
(1336,544,o)
);
}
);
vertWidth = 2048;
width = 2048;
}
);
note = uni11E2;
unicode = (4381,4578,12657);
}
{
glyphname = "pieupKiyeokCho-ko";
layers = (
{
layerId = m01;
shapes = (
{
closed = 1;
nodes = (
(1616,1080,l),
(1616,216,l),
(1776,216,l),
(1776,1232,l),
(1096,1232,l),
(1096,1080,l)
);
},
{
closed = 1;
nodes = (
(368,1224,l),
(208,1224,l),
(208,216,l),
(368,216,l),
(368,272,l),
(808,272,l),
(808,216,l),
(968,216,l),
(968,1224,l),
(808,1224,l),
(808,920,l),
(368,920,l)
);
},
{
closed = 1;
nodes = (
(368,776,l),
(808,776,l),
(808,424,l),
(368,424,l)
);
}
);
vertWidth = 2048;
width = 2048;
}
);
note = uni3172;
unicode = (4382,12658);
}
{
glyphname = "pieupTikeutCho-ko";
layers = (
{
layerId = m01;
shapes = (
{
closed = 1;
nodes = (
(1104,232,l),
(1848,232,l),
(1848,384,l),
(1256,384,l),
(1256,1080,l),
(1808,1080,l),
(1808,1232,l),
(1104,1232,l)
);
},
{
closed = 1;
nodes = (
(376,1224,l),
(216,1224,l),
(216,216,l),
(376,216,l),
(376,272,l),
(816,272,l),
(816,216,l),
(976,216,l),
(976,1224,l),
(816,1224,l),
(816,920,l),
(376,920,l)
);
},
{
closed = 1;
nodes = (
(376,776,l),
(816,776,l),
(816,424,l),
(376,424,l)
);
}
);
vertWidth = 2048;
width = 2048;
}
);
note = uni3173;
unicode = (4384,12659);
}
{
glyphname = "pieupSiosCho-ko";
layers = (
{
layerId = m01;
shapes = (
{
closed = 1;
nodes = (
(225,28,q),
(238,44,l),
(195,66,o),
(195,125,qs),
(195,158,l),
(175,158,l),
(175,125,l),
(170,67,o),
(128,42,q),
(140,26,l),
(174,50,o),
(184,87,q),
(192,49,o)
);
},
{
closed = 1;
nodes = (
(58,28,l),
(58,33,l),
(107,33,l),
(107,28,l),
(127,28,l),
(127,153,l),
(107,153,l),
(107,115,l),
(58,115,l),
(58,153,l),
(38,153,l),
(38,28,l)
);
},
{
closed = 1;
nodes = (
(107,96,l),
(107,52,l),
(58,52,l),
(58,96,l)
);
}
);
vertWidth = 256;
width = 256;
}
);
note = uni11B9;
unicode = (4385,4537,12612);
}
{
glyphname = "pieupSiosKiyeokCho-ko";
layers = (
{
layerId = m01;
shapes = (
{
closed = 1;
nodes = (
(532,320,l),
(540,348,l),
(540,300,o),
(608,148,o),
(648,112,q),
(700,176,l),
(580,268,o),
(580,496,qs),
(580,624,l),
(500,624,l),
(500,500,ls),
(488,272,o),
(380,176,q),
(432,112,l),
(496,204,l)
);
},
{
closed = 1;
nodes = (
(176,616,l),
(96,616,l),
(96,112,l),
(176,112,l),
(176,132,l),
(292,132,l),
(292,112,l),
(368,112,l),
(368,616,l),
(292,616,l),
(292,460,l),
(176,460,l)
);
},
{
closed = 1;
nodes = (
(176,388,l),
(292,388,l),
(292,208,l),
(176,208,l)
);
},
{
closed = 1;
nodes = (
(856,540,l),
(856,108,l),
(936,108,l),
(936,616,l),
(668,616,l),
(668,540,l)
);
}
);
vertWidth = 1024;
width = 1024;
}
);
note = uni1122;
unicode = (4386,12660);
}
{
glyphname = "pieupSiosTikeutCho-ko";
layers = (
{
layerId = m01;
shapes = (
{
closed = 1;
nodes = (
(532,320,l),
(540,348,l),
(540,300,o),
(608,148,o),
(648,112,q),
(700,176,l),
(580,268,o),
(580,496,qs),
(580,624,l),
(500,624,l),
(500,500,ls),
(488,272,o),
(380,176,q),
(432,112,l),
(496,204,l)
);
},
{
closed = 1;
nodes = (
(176,616,l),
(96,616,l),
(96,112,l),
(176,112,l),
(176,132,l),
(292,132,l),
(292,112,l),
(368,112,l),
(368,616,l),
(292,616,l),
(292,460,l),
(176,460,l)
);
},
{
closed = 1;
nodes = (
(176,388,l),
(292,388,l),
(292,208,l),
(176,208,l)
);
},
{
closed = 1;
nodes = (
(704,116,l),
(948,116,l),
(948,192,l),
(784,192,l),
(784,540,l),
(920,540,l),
(920,616,l),
(704,616,l)
);
}
);
vertWidth = 1024;
width = 1024;
}
);
note = uni1123;
unicode = (4387,12661);
}
{
glyphname = "pieupCieucCho-ko";
layers = (
{
layerId = m01;
shapes = (
{
closed = 1;
nodes = (
(130,135,l),
(169,135,l),
(169,122,l),
(163,68,o),
(119,45,q),
(131,30,l),
(169,54,o),
(178,88,q),
(188,49,o),
(225,29,q),
(238,44,l),
(188,66,o),
(188,121,qs),
(188,135,l),
(227,135,l),
(227,154,l),
(130,154,l)
);
},
{
closed = 1;
nodes = (
(41,153,l),
(21,153,l),
(21,27,l),
(41,27,l),
(41,34,l),
(96,34,l),
(96,27,l),
(116,27,l),
(116,153,l),
(96,153,l),
(96,115,l),
(41,115,l)
);
},
{
closed = 1;
nodes = (
(41,97,l),
(96,97,l),
(96,53,l),
(41,53,l)
);
}
);
vertWidth = 256;
width = 256;
}
);
note = uni3176;
unicode = (4391,12662);
}
{
glyphname = "pieupThieuthCho-ko";
layers = (
{
layerId = m01;
shapes = (
{
closed = 1;
nodes = (
(1296,1080,l),
(1800,1080,l),
(1800,1232,l),
(1144,1232,l),
(1144,232,l),
(1840,232,l),
(1840,384,l),
(1296,384,l),
(1296,680,l),
(1800,680,l),
(1800,832,l),
(1296,832,l)
);
},
{
closed = 1;
nodes = (
(392,1224,l),
(232,1224,l),
(232,216,l),
(392,216,l),
(392,272,l),
(832,272,l),
(832,216,l),
(992,216,l),
(992,1224,l),
(832,1224,l),
(832,920,l),
(392,920,l)
);
},
{
closed = 1;
nodes = (
(392,776,l),
(832,776,l),
(832,424,l),
(392,424,l)
);
}
);
vertWidth = 2048;
width = 2048;
}
);
note = uni3177;
unicode = (4393,12663);
}
{
glyphname = "kapyeounpieupCho-ko";
layers = (
{
layerId = m01;
shapes = (
{
closed = 1;
nodes = (
(696,1560,l),
(536,1560,l),
(536,832,l),
(696,832,l),
(696,872,l),
(1376,872,l),
(1376,832,l),
(1536,832,l),
(1536,1560,l),
(1376,1560,l),
(1376,1384,l),
(696,1384,l)
);
},
{
closed = 1;
nodes = (
(696,1232,l),
(1376,1232,l),
(1376,1024,l),
(696,1024,l)
);
},
{
closed = 1;
nodes = (
(536,456,o),
(536,304,qs),
(536,136,o),
(792,-80,o),
(1024,-80,qs),
(1248,-80,o),
(1504,136,o),
(1504,304,qs),
(1504,456,o),
(1288,672,o),
(1096,688,q),
(1096,824,l),
(944,824,l),
(944,688,l),
(752,672,o)
);
},
{
closed = 1;
nodes = (
(1344,64,o),
(1024,64,qs),
(696,64,o),
(696,544,o),
(1024,544,qs),
(1344,544,o)
);
}
);
vertWidth = 2048;
width = 2048;
}
);
note = uni112B;
unicode = (4395,4582,12664);
}
{
glyphname = "kapyeounssangpieupCho-ko";
layers = (
{
layerId = m01;
shapes = (
{
closed = 1;
nodes = (
(159,195,l),
(139,195,l),
(139,105,l),
(159,105,l),
(159,110,l),
(199,110,l),
(199,105,l),
(219,105,l),
(219,195,l),
(199,195,l),
(199,173,l),
(159,173,l)
);
},
{
closed = 1;
nodes = (
(159,154,l),
(199,154,l),
(199,129,l),
(159,129,l)
);
},
{
closed = 1;
nodes = (
(59,195,l),
(39,195,l),
(39,105,l),
(59,105,l),
(59,110,l),
(99,110,l),
(99,105,l),
(119,105,l),
(119,195,l),
(99,195,l),
(99,173,l),
(59,173,l)
);
},
{
closed = 1;
nodes = (
(59,154,l),
(99,154,l),
(99,129,l),
(59,129,l)
);
},
{
closed = 1;
nodes = (
(67,57,o),
(67,38,qs),
(67,17,o),
(99,-10,o),
(128,-10,qs),
(156,-10,o),
(188,17,o),
(188,38,qs),
(188,57,o),
(161,84,o),
(137,86,q),
(137,102,l),
(118,102,l),
(118,86,l),
(94,84,o)
);
},
{
closed = 1;
nodes = (
(168,8,o),
(128,8,qs),
(87,8,o),
(87,68,o),
(128,68,qs),
(168,68,o)
);
}
);
vertWidth = 256;
width = 256;
}
);
note = uni112C;
unicode = (4396,12665);
}
{
glyphname = "siosKiyeokCho-ko";
layers = (
{
layerId = m01;
shapes = (
{
closed = 1;
nodes = (
(560,128,q),
(612,188,l),
(404,284,o),
(404,528,qs),
(404,632,l),
(320,632,l),
(320,532,l),
(300,288,o),
(112,180,q),
(164,116,l),
(320,220,o),
(364,380,q),
(400,216,o)
);
},
{
closed = 1;
nodes = (
(816,540,l),
(816,108,l),
(896,108,l),
(896,616,l),
(516,616,l),
(516,540,l)
);
}
);
vertWidth = 1024;
width = 1024;
}
);
note = uni11E7;
unicode = (4397,4583,12666);
}
{
glyphname = "siosNieunCho-ko";
layers = (
{
layerId = m01;
shapes = (
{
closed = 1;
nodes = (
(944,240,q),
(1048,368,l),
(672,544,o),
(672,984,qs),
(672,1232,l),
(512,1232,l),
(512,992,l),
(472,552,o),
(136,360,q),
(248,232,l),
(512,408,o),
(592,688,q),
(664,392,o)
);
},
{
closed = 1;
nodes = (
(1840,232,l),
(1840,384,l),
(1232,384,l),
(1232,1224,l),
(1072,1224,l),
(1072,232,l)
);
}
);
vertWidth = 2048;
width = 2048;
}
);
note = uni112E;
unicode = (4398,12667);
}
{
glyphname = "siosTikeutCho-ko";
layers = (
{
layerId = m01;
shapes = (
{
closed = 1;
nodes = (
(472,120,q),
(524,184,l),
(336,272,o),
(336,492,qs),
(336,616,l),
(256,616,l),
(256,496,l),
(236,276,o),
(68,180,q),
(124,116,l),
(256,204,o),
(296,344,q),
(332,196,o)
);
},
{
closed = 1;
nodes = (
(540,116,l),
(920,116,l),
(920,192,l),
(620,192,l),
(620,540,l),
(900,540,l),
(900,616,l),
(540,616,l)
);
}
);
vertWidth = 1024;
width = 1024;
}
);
note = uni112F;
unicode = (4399,4584,12668);
}
{
glyphname = "siosPieupCho-ko";
layers = (
{
layerId = m01;
shapes = (
{
closed = 1;
nodes = (
(468,120,q),
(516,184,l),
(336,268,o),
(336,492,qs),
(336,616,l),
(256,616,l),
(256,496,l),
(236,276,o),
(68,180,q),
(124,116,l),
(256,204,o),
(296,344,q),
(332,200,o)
);
},
{
closed = 1;
nodes = (
(608,616,l),
(528,616,l),
(528,112,l),
(608,112,l),
(608,132,l),
(796,132,l),
(796,112,l),
(876,112,l),
(876,616,l),
(796,616,l),
(796,460,l),
(608,460,l)
);
},
{
closed = 1;
nodes = (
(608,388,l),
(796,388,l),
(796,208,l),
(608,208,l)
);
}
);
vertWidth = 1024;
width = 1024;
}
);
note = uni317D;
unicode = (4402,4586,12669);
}
{
glyphname = "siosCieucCho-ko";
layers = (
{
layerId = m01;
shapes = (
{
closed = 1;
nodes = (
(896,240,q),
(992,368,l),
(624,536,o),
(624,976,qs),
(624,1232,l),
(464,1232,l),
(464,984,l),
(416,544,o),
(104,360,q),
(208,232,l),
(472,408,o),
(544,680,q),
(608,400,o)
);
},
{
closed = 1;
nodes = (
(1104,1080,l),
(1416,1080,l),
(1416,992,l),
(1376,552,o),
(1008,360,q),
(1112,240,l),
(1408,432,o),
(1488,728,q),
(1560,408,o),
(1864,232,q),
(1960,352,l),
(1568,528,o),
(1568,984,qs),
(1568,1080,l),
(1880,1080,l),
(1880,1232,l),
(1104,1232,l)
);
}
);
vertWidth = 2048;
width = 2048;
}
);
note = uni317E;
unicode = (4406,12670);
}
{
glyphname = "pansiosCho-ko";
layers = (
{
layerId = m01;
shapes = (
{
closed = 1;
nodes = (
(209,29,l),
(129,164,l),
(42,29,l)
);
},
{
closed = 1;
nodes = (
(75,48,l),
(129,129,l),
(177,48,l)
);
}
);
vertWidth = 256;
width = 256;
}
);
note = uni317F;
unicode = (4416,4587,12671);
}
{
glyphname = "ssangieungCho-ko";
layers = (
{
layerId = m01;
shapes = (
{
closed = 1;
nodes = (
(25,87,qs),
(25,55,o),
(54,19,o),
(96,19,o),
(125,55,o),
(125,87,qs),
(125,145,o),
(86,154,q),
(86,170,l),
(67,170,l),
(67,155,l),
(25,148,o)
);
},
{
closed = 1;
nodes = (
(105,87,qs),
(105,63,o),
(87,38,o),
(63,38,o),
(45,63,o),
(45,111,o),
(63,137,o),
(75,137,qs),
(105,137,o)
);
},
{
closed = 1;
nodes = (
(134,116,o),
(134,87,qs),
(134,55,o),
(162,19,o),
(184,19,qs),
(205,19,o),
(234,55,o),
(234,87,qs),
(234,115,o),
(211,151,o),
(195,154,q),
(195,170,l),
(176,170,l),
(176,155,l),
(158,152,o)
);
},
{
closed = 1;
nodes = (
(214,111,o),
(214,63,o),
(196,38,o),
(184,38,qs),
(154,38,o),
(154,87,qs),
(154,137,o),
(184,137,qs),
(196,137,o)
);
}
);
vertWidth = 256;
width = 256;
}
);
note = uni1147;
unicode = (4423,4590,12672);
}
{
glyphname = "yesieungCho-ko";
layers = (
{
layerId = m01;
shapes = (
{
closed = 1;
nodes = (
(264,436,o),
(264,348,qs),
(264,120,o),
(512,120,qs),
(624,120,o),
(760,248,o),
(760,348,qs),
(760,436,o),
(644,560,o),
(548,568,q),
(548,648,l),
(472,648,l),
(472,568,l),
(376,560,o)
);
},
{
closed = 1;
nodes = (
(680,412,o),
(680,348,qs),
(680,196,o),
(344,196,o),
(344,348,qs),
(344,496,o),
(512,496,qs),
(588,496,o)
);
}
);
vertWidth = 1024;
width = 1024;
}
);
note = uni114C;
unicode = (4428,4592,12673);
}
{
glyphname = "kapyeounphieuphCho-ko";
layers = (
{
layerId = m01;
shapes = (
{
closed = 1;
nodes = (
(52,172,l),
(202,172,l),
(202,191,l),
(52,191,l)
);
},
{
closed = 1;
nodes = (
(178,164,l),
(159,164,l),
(149,125,l),
(105,125,l),
(98,164,l),
(78,164,l),
(86,125,l),
(44,125,l),
(44,106,l),
(210,106,l),
(210,125,l),
(169,125,l)
);
},
{
closed = 1;
nodes = (
(67,37,qs),
(67,-12,o),
(128,-12,qs),
(156,-12,o),
(188,16,o),
(188,37,qs),
(188,79,o),
(137,85,q),
(137,101,l),
(118,101,l),
(118,85,l),
(67,79,o)
);
},
{
closed = 1;
nodes = (
(168,37,qs),
(168,24,o),
(146,6,o),
(128,6,qs),
(109,6,o),
(87,24,o),
(87,37,qs),
(87,67,o),
(128,67,qs),
(168,67,o)
);
}
);
vertWidth = 256;
width = 256;
}
);
note = uni3184;
unicode = (4439,4596,12676);
}
{
glyphname = "ssanghieuhCho-ko";
layers = (
{
layerId = m01;
shapes = (
{
closed = 1;
nodes = (
(336,1152,l),
(760,1152,l),
(760,1304,l),
(336,1304,l)
);
},
{
closed = 1;
nodes = (
(1264,1152,l),
(1696,1152,l),
(1696,1304,l),
(1264,1304,l)
);
},
{
closed = 1;
nodes = (
(136,904,l),
(1000,904,l),
(1000,1056,l),
(136,1056,l)
);
},
{
closed = 1;
nodes = (
(1064,904,l),
(1936,904,l),
(1936,1056,l),
(1064,1056,l)
);
},
{
closed = 1;
nodes = (
(168,464,qs),
(168,320,o),
(376,136,o),
(728,136,o),
(936,320,o),
(936,464,qs),
(936,744,o),
(632,792,q),
(632,872,l),
(488,872,l),
(488,792,l),
(168,760,o)
);
},
{
closed = 1;
nodes = (
(776,464,qs),
(776,280,o),
(328,280,o),
(328,464,qs),
(328,656,o),
(776,656,o)
);
},
{
closed = 1;
nodes = (
(1104,464,qs),
(1104,136,o),
(1488,136,qs),
(1664,136,o),
(1872,320,o),
(1872,464,qs),
(1872,736,o),
(1568,792,q),
(1568,872,l),
(1416,872,l),
(1416,792,l),
(1104,760,o)
);
},
{
closed = 1;
nodes = (
(1712,464,qs),
(1712,280,o),
(1264,280,o),
(1264,464,qs),
(1264,656,o),
(1712,656,o)
);
}
);
vertWidth = 2048;
width = 2048;
}
);
note = uni1158;
unicode = (4440,12677);
}
{
glyphname = "yeorinhieuhCho-ko";
layers = (
{
layerId = m01;
shapes = (
{
closed = 1;
nodes = (
(20,142,l),
(237,142,l),
(237,162,l),
(20,162,l)
);
},
{
closed = 1;
nodes = (
(71,56,qs),
(71,34,o),
(102,5,o),
(154,5,o),
(185,34,o),
(185,56,qs),
(185,102,o),
(138,108,q),
(138,123,l),
(119,123,l),
(119,108,l),
(71,101,o)
);
},
{
closed = 1;
nodes = (
(165,56,qs),
(165,24,o),
(91,24,o),
(91,56,qs),
(91,89,o),
(165,89,o)
);
}
);
vertWidth = 256;
width = 256;
}
);
note = uni1159;
unicode = (4441,4601,12678);
}
{
glyphname = "nieunSiosCho-ko";
layers = (
{
layerId = m01;
shapes = (
{
closed = 1;
nodes = (
(896,116,q),
(944,180,l),
(780,280,o),
(780,540,qs),
(780,632,l),
(700,632,l),
(700,540,l),
(676,280,o),
(480,168,q),
(532,104,l),
(688,216,o),
(736,392,q),
(764,208,o)
);
},
{
closed = 1;
nodes = (
(308,120,o),
(468,156,q),
(456,220,l),
(324,192,o),
(188,192,q),
(188,612,l),
(108,612,l),
(108,120,l)
);
}
);
vertWidth = 1024;
width = 1024;
}
);
note = uni3167;
unicode = (4443,4551,12647);
}
{
glyphname = "nieunCieucCho-ko";
layers = (
{
layerId = m01;
shapes = (
{
closed = 1;
nodes = (
(976,1080,l),
(1296,1080,l),
(1296,1000,ls),
(1256,552,o),
(904,360,q),
(1000,240,l),
(1288,432,o),
(1376,736,q),
(1448,400,o),
(1736,232,q),
(1832,352,l),
(1448,536,o),
(1448,1000,qs),
(1448,1080,l),
(1752,1080,l),
(1752,1232,l),
(976,1232,l)
);
},
{
closed = 1;
nodes = (
(632,256,o),
(912,376,q),
(888,512,l),
(664,392,o),
(432,392,q),
(432,1224,l),
(272,1224,l),
(272,240,l)
);
}
);
vertWidth = 2048;
width = 2048;
}
);
note = uni3135;
unicode = (4444,4524,12597);
}
{
glyphname = "nieunHieuhCho-ko";
layers = (
{
layerId = m01;
shapes = (
{
closed = 1;
nodes = (
(1136,1160,l),
(1616,1160,l),
(1616,1296,l),
(1136,1296,l)
);
},
{
closed = 1;
nodes = (
(624,248,o),
(928,320,q),
(904,448,l),
(656,392,o),
(408,392,q),
(408,1224,l),
(248,1224,l),
(248,240,l)
);
},
{
closed = 1;
nodes = (
(880,888,l),
(1880,888,l),
(1880,1032,l),
(880,1032,l)
);
},
{
closed = 1;
nodes = (
(984,456,qs),
(984,328,o),
(1192,152,o),
(1376,152,qs),
(1552,152,o),
(1760,328,o),
(1760,456,qs),
(1760,720,o),
(1456,752,q),
(1456,856,l),
(1304,856,l),
(1304,752,l),
(984,736,o)
);
},
{
closed = 1;
nodes = (
(1616,456,qs),
(1616,392,o),
(1488,288,o),
(1376,288,qs),
(1136,288,o),
(1136,624,o),
(1616,624,o)
);
}
);
vertWidth = 2048;
width = 2048;
}
);
note = uni11AD;
unicode = (4445,4525,12598);
}
{
glyphname = "aJung-ko";
layers = (
{
layerId = m01;
shapes = (
{
closed = 1;
nodes = (
(1008,-120,l),
(1008,736,l),
(1488,736,l),
(1488,888,l),
(1008,888,l),
(1008,1600,l),
(848,1600,l),
(848,-120,l)
);
}
);
vertWidth = 2048;
width = 2048;
}
);
note = uni314F;
unicode = (4449,12623);
}
{
glyphname = "aeJung-ko";
layers = (
{
layerId = m01;
shapes = (
{
closed = 1;
nodes = (
(111,-2,l),
(111,85,l),
(152,85,l),
(152,-15,l),
(172,-15,l),
(172,200,l),
(152,200,l),
(152,104,l),
(111,104,l),
(111,196,l),
(91,196,l),
(91,-2,l)
);
}
);
vertWidth = 256;
width = 256;
}
);
note = uni3150;
unicode = (4450,12624);
}
{
glyphname = "yaJung-ko";
layers = (
{
layerId = m01;
shapes = (
{
closed = 1;
nodes = (
(125,-15,l),
(125,59,l),
(185,59,l),
(185,78,l),
(125,78,l),
(125,119,l),
(185,119,l),
(185,139,l),
(125,139,l),
(125,200,l),
(105,200,l),
(105,-15,l)
);
}
);
vertWidth = 256;
width = 256;
}
);
note = uni3151;
unicode = (4451,12625);
}
{
glyphname = "yaeJung-ko";
layers = (
{
layerId = m01;
shapes = (
{
closed = 1;
nodes = (
(440,-8,l),
(440,240,l),
(608,240,l),
(608,-60,l),
(688,-60,l),
(688,800,l),
(608,800,l),
(608,572,l),
(440,572,l),
(440,784,l),
(360,784,l),
(360,-8,l)
);
},
{
closed = 1;
nodes = (
(608,496,l),
(608,316,l),
(440,316,l),
(440,496,l)
);
}
);
vertWidth = 1024;
width = 1024;
}
);
note = uni1164;
unicode = (4452,12626);
}
{
glyphname = "eoJung-ko";
layers = (
{
layerId = m01;
shapes = (
{
closed = 1;
nodes = (
(568,936,l),
(568,784,l),
(1176,784,l),
(1176,-120,l),
(1336,-120,l),
(1336,1600,l),
(1176,1600,l),
(1176,936,l)
);
}
);
vertWidth = 2048;
width = 2048;
}
);
note = uni1165;
unicode = (4453,12627);
}
{
glyphname = "eJung-ko";
layers = (
{
layerId = m01;
shapes = (
{
closed = 1;
nodes = (
(1480,-120,l),
(1480,1600,l),
(1320,1600,l),
(1320,-120,l)
);
},
{
closed = 1;
nodes = (
(440,712,l),
(912,712,l),
(912,-24,l),
(1072,-24,l),
(1072,1568,l),
(912,1568,l),
(912,864,l),
(440,864,l)
);
}
);
vertWidth = 2048;
width = 2048;
}
);
note = uni3154;
unicode = (4454,12628);
}
{
glyphname = "yeoJung-ko";
layers = (
{
layerId = m01;
shapes = (
{
closed = 1;
nodes = (
(70,135,l),
(70,116,l),
(147,116,l),
(147,73,l),
(70,73,l),
(70,54,l),
(147,54,l),
(147,-15,l),
(167,-15,l),
(167,200,l),
(147,200,l),
(147,135,l)
);
}
);
vertWidth = 256;
width = 256;
}
);
note = uni3155;
unicode = (4455,12629);
}
{
glyphname = "yeJung-ko";
layers = (
{
layerId = m01;
shapes = (
{
closed = 1;
nodes = (
(740,-60,l),
(740,800,l),
(660,800,l),
(660,-60,l)
);
},
{
closed = 1;
nodes = (
(200,540,l),
(200,464,l),
(456,464,l),
(456,296,l),
(200,296,l),
(200,220,l),
(456,220,l),
(456,-12,l),
(536,-12,l),
(536,784,l),
(456,784,l),
(456,540,l)
);
}
);
vertWidth = 1024;
width = 1024;
}
);
note = uni3156;
unicode = (4456,12630);
}
{
glyphname = "oJung-ko";
layers = (
{
layerId = m01;
shapes = (
{
closed = 1;
nodes = (
(1104,1208,l),
(944,1208,l),
(944,456,l),
(176,456,l),
(176,304,l),
(1880,304,l),
(1880,456,l),
(1104,456,l)
);
}
);
vertWidth = 2048;
width = 2048;
}
);
note = uni3157;
unicode = (4457,12631);
}
{
glyphname = "waJung-ko";
layers = (
{
layerId = m01;
shapes = (
{
closed = 1;
nodes = (
(388,244,l),
(388,636,l),
(308,636,l),
(308,236,l),
(72,220,l),
(84,144,l),
(652,188,l),
(652,-60,l),
(732,-60,l),
(732,336,l),
(936,336,l),
(936,412,l),
(732,412,l),
(732,800,l),
(652,800,l),
(652,264,l)
);
}
);
vertWidth = 1024;
width = 1024;
}
);
note = uni116A;
unicode = (4458,12632);
}
{
glyphname = "waeJung-ko";
layers = (
{
layerId = m01;
shapes = (
{
closed = 1;
nodes = (
(72,252,l),
(84,176,l),
(580,220,l),
(580,-8,l),
(660,-8,l),
(660,332,l),
(780,332,l),
(780,-60,l),
(860,-60,l),
(860,800,l),
(780,800,l),
(780,408,l),
(660,408,l),
(660,780,l),
(580,780,l),
(580,296,l),
(344,276,l),
(344,588,l),
(264,588,l),
(264,268,l)
);
}
);
vertWidth = 1024;
width = 1024;
}
);
note = uni3159;
unicode = (4459,12633);
}
{
glyphname = "oeJung-ko";
layers = (
{
layerId = m01;
shapes = (
{
closed = 1;
nodes = (
(432,256,l),
(432,620,l),
(352,620,l),
(352,244,l),
(96,216,l),
(108,140,l),
(732,212,l),
(732,-60,l),
(812,-60,l),
(812,800,l),
(732,800,l),
(732,288,l)
);
}
);
vertWidth = 1024;
width = 1024;
}
);
note = uni315A;
unicode = (4460,12634);
}
{
glyphname = "yoJung-ko";
layers = (
{
layerId = m01;
shapes = (
{
closed = 1;
nodes = (
(182,154,l),
(162,154,l),
(153,59,l),
(101,59,l),
(95,146,l),
(75,146,l),
(81,59,l),
(19,59,l),
(19,40,l),
(237,40,l),
(237,59,l),
(173,59,l)
);
}
);
vertWidth = 256;
width = 256;
}
);
note = uni315B;
unicode = (4461,12635);
}
{
glyphname = "uJung-ko";
layers = (
{
layerId = m01;
shapes = (
{
closed = 1;
nodes = (
(80,512,l),
(472,512,l),
(472,-60,l),
(548,-60,l),
(548,512,l),
(940,512,l),
(940,584,l),
(80,584,l)
);
}
);
vertWidth = 1024;
width = 1024;
}
);
note = uni315C;
unicode = (4462,12636);
}
{
glyphname = "weoJung-ko";
layers = (
{
layerId = m01;
shapes = (
{
closed = 1;
nodes = (
(1064,784,l),
(1064,632,l),
(1488,632,l),
(1488,-120,l),
(1648,-120,l),
(1648,1600,l),
(1488,1600,l),
(1488,784,l)
);
},
{
closed = 1;
nodes = (
(832,152,l),
(832,1032,l),
(1320,1064,l),
(1320,1216,l),
(184,1152,l),
(208,1000,l),
(672,1024,l),
(672,152,l)
);
}
);
vertWidth = 2048;
width = 2048;
}
);
note = uni315D;
unicode = (4463,12637);
}
{
glyphname = "weJung-ko";
layers = (
{
layerId = m01;
shapes = (
{
closed = 1;
nodes = (
(860,-60,l),
(860,800,l),
(780,800,l),
(780,-60,l)
);
},
{
closed = 1;
nodes = (
(432,400,l),
(432,324,l),
(600,324,l),
(600,-8,l),
(680,-8,l),
(680,784,l),
(600,784,l),
(600,400,l)
);
},
{
closed = 1;
nodes = (
(372,84,l),
(372,488,l),
(540,500,l),
(540,576,l),
(92,540,l),
(104,468,l),
(292,480,l),
(292,84,l)
);
}
);
vertWidth = 1024;
width = 1024;
}
);
note = uni1170;
unicode = (4464,12638);
}
{
glyphname = "wiJung-ko";
layers = (
{
layerId = m01;
shapes = (
{
closed = 1;
nodes = (
(76,492,l),
(88,416,l),
(392,436,l),
(392,48,l),
(472,48,l),
(472,440,l),
(736,456,l),
(736,-60,l),
(816,-60,l),
(816,800,l),
(736,800,l),
(736,532,l)
);
}
);
vertWidth = 1024;
width = 1024;
}
);
note = uni315F;
unicode = (4465,12639);
}
{
glyphname = "yuJung-ko";
layers = (
{
layerId = m01;
shapes = (
{
closed = 1;
nodes = (
(84,504,l),
(316,504,l),
(316,-56,l),
(396,-56,l),
(396,504,l),
(624,504,l),
(624,-68,l),
(704,-68,l),
(704,504,l),
(940,504,l),
(940,580,l),
(84,580,l)
);
}
);
vertWidth = 1024;
width = 1024;
}
);
note = uni3160;
unicode = (4466,12640);
}
{
glyphname = "euJung-ko";
layers = (
{
layerId = m01;
shapes = (
{
closed = 1;
nodes = (
(160,480,l),
(1896,480,l),
(1896,632,l),
(160,632,l)
);
}
);
vertWidth = 2048;
width = 2048;
}
);
note = uni3161;
unicode = (4467,12641);
}
{
glyphname = "yiJung-ko";
layers = (
{
layerId = m01;
shapes = (
{
closed = 1;
nodes = (
(152,584,l),
(176,432,l),
(1432,552,l),
(1432,-120,l),
(1592,-120,l),
(1592,1600,l),
(1432,1600,l),
(1432,704,l)
);
}
);
vertWidth = 2048;
width = 2048;
}
);
note = uni3162;
unicode = (4468,12642);
}
{
glyphname = "iJung-ko";
layers = (
{
layerId = m01;
shapes = (
{
closed = 1;
nodes = (
(552,-60,l),
(552,800,l),
(472,800,l),
(472,-60,l)
);
}
);
vertWidth = 1024;
width = 1024;
}
);
note = uni1175;
unicode = (4469,12643);
}
{
glyphname = "yoYaJung-ko";
layers = (
{
layerId = m01;
shapes = (
{
closed = 1;
nodes = (
(1072,528,l),
(1072,1240,l),
(912,1240,l),
(912,520,l),
(624,488,l),
(624,1240,l),
(464,1240,l),
(464,480,l),
(144,456,l),
(176,304,l),
(1376,400,l),
(1376,-120,l),
(1536,-120,l),
(1536,408,l),
(1896,408,l),
(1896,560,l),
(1536,560,l),
(1536,880,l),
(1888,880,l),
(1888,1032,l),
(1536,1032,l),
(1536,1600,l),
(1376,1600,l),
(1376,552,l)
);
}
);
vertWidth = 2048;
width = 2048;
}
);
note = uni1184;
unicode = (4484,12679);
}
{
glyphname = "yoYaeJung-ko";
layers = (
{
layerId = m01;
shapes = (
{
closed = 1;
nodes = (
(18,62,l),
(22,44,l),
(145,54,l),
(145,-2,l),
(165,-2,l),
(165,66,l),
(185,66,l),
(185,-13,l),
(205,-13,l),
(205,201,l),
(185,201,l),
(185,140,l),
(165,140,l),
(165,195,l),
(145,195,l),
(145,73,l),
(118,71,l),
(118,150,l),
(98,150,l),
(98,69,l),
(73,67,l),
(73,150,l),
(53,150,l),
(53,66,l)
);
},
{
closed = 1;
nodes = (
(185,121,l),
(185,86,l),
(165,86,l),
(165,121,l)
);
}
);
vertWidth = 256;
width = 256;
}
);
note = uni1185;
unicode = (4485,12680);
}
{
glyphname = "yoIJung-ko";
layers = (
{
layerId = m01;
shapes = (
{
closed = 1;
nodes = (
(142,66,l),
(142,155,l),
(122,155,l),
(122,64,l),
(85,61,l),
(85,155,l),
(65,155,l),
(65,60,l),
(26,57,l),
(28,38,l),
(182,50,l),
(182,-15,l),
(202,-15,l),
(202,200,l),
(182,200,l),
(182,69,l)
);
}
);
vertWidth = 256;
width = 256;
}
);
note = uni3189;
unicode = (4488,12681);
}
{
glyphname = "yuYeoJung-ko";
layers = (
{
layerId = m01;
shapes = (
{
closed = 1;
nodes = (
(1200,920,l),
(1200,768,l),
(1472,768,l),
(1472,568,l),
(1200,568,l),
(1200,416,l),
(1472,416,l),
(1472,-120,l),
(1632,-120,l),
(1632,1600,l),
(1472,1600,l),
(1472,920,l)
);
},
{
closed = 1;
nodes = (
(680,160,l),
(680,1024,l),
(896,1040,l),
(896,144,l),
(1064,144,l),
(1064,1048,l),
(1352,1064,l),
(1352,1216,l),
(168,1152,l),
(192,1000,l),
(520,1016,l),
(520,160,l)
);
}
);
vertWidth = 2048;
width = 2048;
}
);
note = uni318A;
unicode = (4497,12682);
}
{
glyphname = "yuYeJung-ko";
layers = (
{
layerId = m01;
shapes = (
{
closed = 1;
nodes = (
(1696,-120,l),
(1696,1600,l),
(1536,1600,l),
(1536,-120,l)
);
},
{
closed = 1;
nodes = (
(984,880,l),
(984,728,l),
(1216,728,l),
(1216,560,l),
(984,560,l),
(984,408,l),
(1216,408,l),
(1216,-16,l),
(1376,-16,l),
(1376,1568,l),
(1216,1568,l),
(1216,880,l)
);
},
{
closed = 1;
nodes = (
(600,152,l),
(600,952,l),
(760,960,l),
(760,144,l),
(912,144,l),
(912,968,l),
(1104,976,l),
(1104,1128,l),
(152,1080,l),
(176,928,l),
(440,944,l),
(440,152,l)
);
}
);
vertWidth = 2048;
width = 2048;
}
);
note = uni1192;
unicode = (4498,12683);
}
{
glyphname = "yuIJung-ko";
layers = (
{
layerId = m01;
shapes = (
{
closed = 1;
nodes = (
(80,496,l),
(92,420,l),
(260,432,l),
(260,64,l),
(340,64,l),
(340,436,l),
(484,448,l),
(484,56,l),
(564,56,l),
(564,452,l),
(736,464,l),
(736,-60,l),
(816,-60,l),
(816,800,l),
(736,800,l),
(736,540,l)
);
}
);
vertWidth = 1024;
width = 1024;
}
);
note = uni318C;
unicode = (4500,12684);
}
{
glyphname = "araeaJung-ko";
layers = (
{
layerId = m01;
shapes = (
{
closed = 1;
nodes = (
(153,92,qs),
(153,118,o),
(103,118,o),
(103,92,qs),
(103,67,o),
(153,67,o)
);
}
);
vertWidth = 256;
width = 256;
}
);
note = uni318D;
unicode = (4510,12685);
}
{
glyphname = "araeaIJung-ko";
layers = (
{
layerId = m01;
shapes = (
{
closed = 1;
nodes = (
(1616,-120,l),
(1616,1600,l),
(1456,1600,l),
(1456,-120,l)
);
},
{
closed = 1;
nodes = (
(992,760,qs),
(992,960,o),
(792,960,qs),
(584,960,o),
(584,760,qs),
(584,552,o),
(792,552,qs),
(992,552,o)
);
}
);
vertWidth = 2048;
width = 2048;
}
);
note = uni318E;
unicode = (4513,12686);
}
{
glyphname = "kiyeokSiosJong-ko";
layers = (
{
layerId = m01;
shapes = (
{
closed = 1;
nodes = (
(224,31,q),
(236,46,l),
(194,71,o),
(194,136,qs),
(194,158,l),
(174,158,l),
(174,137,l),
(168,72,o),
(122,44,q),
(135,28,l),
(172,55,o),
(183,99,q),
(191,54,o)
);
},
{
closed = 1;
nodes = (
(101,135,l),
(101,27,l),
(121,27,l),
(121,154,l),
(33,154,l),
(33,135,l)
);
}
);
vertWidth = 256;
width = 256;
}
);
note = uni3133;
unicode = (4522,12595);
}
{
glyphname = "rieulKiyeokJong-ko";
layers = (
{
layerId = m01;
shapes = (
{
closed = 1;
nodes = (
(1560,1080,l),
(1560,216,l),
(1720,216,l),
(1720,1232,l),
(1080,1232,l),
(1080,1080,l)
);
},
{
closed = 1;
nodes = (
(840,1080,l),
(840,848,l),
(272,848,l),
(272,232,l),
(1120,304,l),
(1096,448,l),
(744,392,o),
(432,384,q),
(432,696,l),
(992,696,l),
(992,1232,l),
(280,1232,l),
(280,1080,l)
);
}
);
vertWidth = 2048;
width = 2048;
}
);
note = uni313A;
unicode = (4528,12602);
}
{
glyphname = "rieulMieumJong-ko";
layers = (
{
layerId = m01;
shapes = (
{
closed = 1;
nodes = (
(97,135,l),
(97,106,l),
(34,106,l),
(34,29,l),
(128,38,l),
(124,56,l),
(87,49,o),
(54,48,q),
(54,87,l),
(117,87,l),
(117,154,l),
(35,154,l),
(35,135,l)
);
},
{
closed = 1;
nodes = (
(132,27,l),
(152,27,l),
(152,35,l),
(198,35,l),
(198,27,l),
(219,27,l),
(219,154,l),
(132,154,l)
);
},
{
closed = 1;
nodes = (
(198,135,l),
(198,54,l),
(152,54,l),
(152,135,l)
);
}
);
vertWidth = 256;
width = 256;
}
);
note = uni11B1;
unicode = (4529,12603);
}
{
glyphname = "rieulPieupJong-ko";
layers = (
{
layerId = m01;
shapes = (
{
closed = 1;
nodes = (
(752,1080,l),
(752,872,l),
(272,872,l),
(272,232,l),
(1000,304,l),
(976,448,l),
(688,392,o),
(432,384,q),
(432,720,l),
(912,720,l),
(912,1232,l),
(280,1232,l),
(280,1080,l)
);
},
{
closed = 1;
nodes = (
(1216,1232,l),
(1056,1232,l),
(1056,224,l),
(1216,224,l),
(1216,264,l),
(1592,264,l),
(1592,224,l),
(1752,224,l),
(1752,1232,l),
(1592,1232,l),
(1592,920,l),
(1216,920,l)
);
},
{
closed = 1;
nodes = (
(1216,776,l),
(1592,776,l),
(1592,416,l),
(1216,416,l)
);
}
);
vertWidth = 2048;
width = 2048;
}
);
note = uni11B2;
unicode = (4530,12604);
}
{
glyphname = "rieulSiosJong-ko";
layers = (
{
layerId = m01;
shapes = (
{
closed = 1;
nodes = (
(1792,248,q),
(1888,368,l),
(1552,568,o),
(1552,1088,qs),
(1552,1264,l),
(1392,1264,l),
(1392,1096,l),
(1344,576,o),
(976,352,q),
(1080,224,l),
(1376,440,o),
(1464,792,q),
(1528,432,o)
);
},
{
closed = 1;
nodes = (
(800,1080,l),
(800,880,l),
(288,880,l),
(288,232,l),
(632,240,o),
(952,296,q),
(928,440,l),
(448,384,l),
(448,728,l),
(960,728,l),
(960,1232,l),
(296,1232,l),
(296,1080,l)
);
}
);
vertWidth = 2048;
width = 2048;
}
);
note = uni11B3;
unicode = (4531,12605);
}
{
glyphname = "rieulThieuthJong-ko";
layers = (
{
layerId = m01;
shapes = (
{
closed = 1;
nodes = (
(98,135,l),
(98,107,l),
(35,107,l),
(35,29,l),
(84,30,o),
(130,37,q),
(127,55,l),
(55,48,l),
(55,88,l),
(118,88,l),
(118,154,l),
(36,154,l),
(36,135,l)
);
},
{
closed = 1;
nodes = (
(155,135,l),
(217,135,l),
(217,154,l),
(135,154,l),
(135,29,l),
(222,29,l),
(222,48,l),
(155,48,l),
(155,85,l),
(217,85,l),
(217,104,l),
(155,104,l)
);
}
);
vertWidth = 256;
width = 256;
}
);
note = uni11B4;
unicode = (4532,12606);
}
{
glyphname = "rieulPhieuphJong-ko";
layers = (
{
layerId = m01;
shapes = (
{
closed = 1;
nodes = (
(1016,1080,l),
(1752,1080,l),
(1752,1232,l),
(1016,1232,l)
);
},
{
closed = 1;
nodes = (
(752,1080,l),
(752,864,l),
(272,864,l),
(272,232,l),
(632,240,o),
(960,304,q),
(936,440,l),
(432,384,l),
(432,712,l),
(912,712,l),
(912,1232,l),
(280,1232,l),
(280,1080,l)
);
},
{
closed = 1;
nodes = (
(1664,1032,l),
(1520,1032,l),
(1464,392,l),
(1320,392,l),
(1280,1032,l),
(1136,1032,l),
(1168,392,l),
(984,392,l),
(984,240,l),
(1792,240,l),
(1792,392,l),
(1616,392,l)
);
}
);
vertWidth = 2048;
width = 2048;
}
);
note = uni313F;
unicode = (4533,12607);
}
{
glyphname = "nieunPansiosJong-ko";
layers = (
{
layerId = m01;
shapes = (
{
closed = 1;
nodes = (
(1840,256,l),
(1384,1320,l),
(912,256,l)
);
},
{
closed = 1;
nodes = (
(1144,392,l),
(1384,984,l),
(1616,392,l)
);
},
{
closed = 1;
nodes = (
(608,240,o),
(912,312,q),
(896,440,l),
(640,384,o),
(384,384,q),
(384,1224,l),
(224,1224,l),
(224,240,l)
);
}
);
vertWidth = 2048;
width = 2048;
}
);
note = uni3168;
unicode = (4552,12648);
}
{
glyphname = "rieulKiyeokSiosJong-ko";
layers = (
{
layerId = m01;
shapes = (
{
closed = 1;
nodes = (
(181,49,q),
(190,76,l),
(192,82,l),
(192,72,o),
(208,37,o),
(218,28,q),
(231,44,l),
(202,66,o),
(202,119,qs),
(202,158,l),
(182,158,l),
(182,120,ls),
(179,66,o),
(152,44,q),
(164,28,l),
(174,37,o)
);
},
{
closed = 1;
nodes = (
(71,135,l),
(71,110,l),
(30,110,l),
(30,29,l),
(69,30,o),
(106,37,q),
(102,55,l),
(50,48,l),
(50,91,l),
(91,91,l),
(91,154,l),
(30,154,l),
(30,135,l)
);
},
{
closed = 1;
nodes = (
(131,135,l),
(131,27,l),
(151,27,l),
(151,154,l),
(95,154,l),
(95,135,l)
);
}
);
vertWidth = 256;
width = 256;
}
);
note = uni3169;
unicode = (4556,12649);
}
{
glyphname = "rieulTikeutJong-ko";
layers = (
{
layerId = m01;
shapes = (
{
closed = 1;
nodes = (
(1128,232,l),
(1848,232,l),
(1848,384,l),
(1280,384,l),
(1280,1080,l),
(1816,1080,l),
(1816,1232,l),
(1128,1232,l)
);
},
{
closed = 1;
nodes = (
(736,1080,l),
(736,864,l),
(240,864,l),
(240,232,l),
(632,240,o),
(1000,296,q),
(976,440,l),
(400,384,l),
(400,712,l),
(896,712,l),
(896,1232,l),
(232,1232,l),
(232,1080,l)
);
}
);
vertWidth = 2048;
width = 2048;
}
);
note = uni11CE;
unicode = (4558,12650);
}
{
glyphname = "rieulPieupSiosJong-ko";
layers = (
{
layerId = m01;
shapes = (
{
closed = 1;
nodes = (
(195,60,o),
(200,82,q),
(200,71,o),
(216,37,o),
(226,28,q),
(239,44,l),
(210,65,o),
(210,119,qs),
(210,158,l),
(190,158,l),
(190,120,l),
(186,66,o),
(160,44,q),
(173,28,l),
(188,48,l)
);
},
{
closed = 1;
nodes = (
(66,135,l),
(66,109,l),
(30,109,l),
(30,29,l),
(61,30,o),
(90,36,q),
(86,53,l),
(67,48,o),
(49,48,q),
(49,90,l),
(86,90,l),
(86,154,l),
(29,154,l),
(29,135,l)
);
},
{
closed = 1;
nodes = (
(114,154,l),
(95,154,l),
(95,28,l),
(114,28,l),
(114,33,l),
(139,33,l),
(139,28,l),
(158,28,l),
(158,154,l),
(139,154,l),
(139,115,l),
(114,115,l)
);
},
{
closed = 1;
nodes = (
(114,97,l),
(139,97,l),
(139,52,l),
(114,52,l)
);
}
);
vertWidth = 256;
width = 256;
}
);
note = uni316B;
unicode = (4563,12651);
}
{
glyphname = "rieulPansiosJong-ko";
layers = (
{
layerId = m01;
shapes = (
{
closed = 1;
nodes = (
(238,32,l),
(181,165,l),
(122,32,l)
);
},
{
closed = 1;
nodes = (
(151,49,l),
(181,123,l),
(209,49,l)
);
},
{
closed = 1;
nodes = (
(93,135,l),
(93,106,l),
(30,106,l),
(30,29,l),
(77,30,o),
(121,37,q),
(117,55,l),
(50,48,l),
(50,87,l),
(113,87,l),
(113,154,l),
(29,154,l),
(29,135,l)
);
}
);
vertWidth = 256;
width = 256;
}
);
note = uni316C;
unicode = (4567,12652);
}
{
glyphname = "rieulYeorinhieuhJong-ko";
layers = (
{
layerId = m01;
shapes = (
{
closed = 1;
nodes = (
(93,135,l),
(93,106,l),
(30,106,l),
(30,29,l),
(79,30,o),
(124,37,q),
(121,55,l),
(50,48,l),
(50,87,l),
(113,87,l),
(113,154,l),
(29,154,l),
(29,135,l)
);
},
{
closed = 1;
nodes = (
(122,135,l),
(237,135,l),
(237,154,l),
(122,154,l)
);
},
{
closed = 1;
nodes = (
(135,72,qs),
(135,51,o),
(160,25,o),
(181,25,qs),
(200,25,o),
(226,51,o),
(226,72,qs),
(226,111,o),
(190,118,q),
(190,131,l),
(171,131,l),
(171,118,l),
(135,111,o)
);
},
{
closed = 1;
nodes = (
(207,43,o),
(155,43,o),
(155,101,o),
(207,101,o)
);
}
);
vertWidth = 256;
width = 256;
}
);
note = uni316D;
unicode = (4569,12653);
}
{
glyphname = "mieumSiosJong-ko";
layers = (
{
layerId = m01;
shapes = (
{
closed = 1;
nodes = (
(1776,232,q),
(1872,360,l),
(1464,528,o),
(1464,976,qs),
(1464,1264,l),
(1304,1264,l),
(1304,984,l),
(1264,528,o),
(944,336,q),
(1048,208,l),
(1320,400,o),
(1392,680,q),
(1448,392,o)
);
},
{
closed = 1;
nodes = (
(216,240,l),
(376,240,l),
(376,296,l),
(760,296,l),
(760,240,l),
(920,240,l),
(920,1232,l),
(216,1232,l)
);
},
{
closed = 1;
nodes = (
(760,1080,l),
(760,448,l),
(376,448,l),
(376,1080,l)
);
}
);
vertWidth = 2048;
width = 2048;
}
);
note = uni316F;
unicode = (4573,12655);
}
{
glyphname = "mieumPansiosJong-ko";
layers = (
{
layerId = m01;
shapes = (
{
closed = 1;
nodes = (
(234,32,l),
(179,165,l),
(123,32,l)
);
},
{
closed = 1;
nodes = (
(151,49,l),
(179,123,l),
(206,49,l)
);
},
{
closed = 1;
nodes = (
(35,30,l),
(55,30,l),
(55,37,l),
(101,37,l),
(101,30,l),
(121,30,l),
(121,154,l),
(35,154,l)
);
},
{
closed = 1;
nodes = (
(101,135,l),
(101,56,l),
(55,56,l),
(55,135,l)
);
}
);
vertWidth = 256;
width = 256;
}
);
note = uni11DF;
unicode = (4575,12656);
}
{
glyphname = "yesieungSiosJong-ko";
layers = (
{
layerId = m01;
shapes = (
{
closed = 1;
nodes = (
(92,456,o),
(92,352,qs),
(92,236,o),
(200,104,o),
(284,104,qs),
(372,104,o),
(484,236,o),
(484,352,qs),
(484,560,o),
(328,596,q),
(328,648,l),
(252,648,l),
(252,596,l),
(184,588,o)
);
},
{
closed = 1;
nodes = (
(404,180,o),
(284,180,qs),
(172,180,o),
(172,524,o),
(284,524,qs),
(404,524,o)
);
},
{
closed = 1;
nodes = (
(872,124,q),
(920,184,l),
(752,288,o),
(752,548,qs),
(752,632,l),
(672,632,l),
(672,552,l),
(648,292,o),
(460,180,q),
(512,116,l),
(668,232,o),
(708,400,q),
(744,216,o)
);
}
);
vertWidth = 1024;
width = 1024;
}
);
note = uni11F1;
unicode = (4593,12674);
}
{
glyphname = "yesieungPansiosJong-ko";
layers = (
{
layerId = m01;
shapes = (
{
closed = 1;
nodes = (
(924,128,l),
(696,660,l),
(464,128,l)
);
},
{
closed = 1;
nodes = (
(576,196,l),
(696,492,l),
(812,196,l)
);
},
{
closed = 1;
nodes = (
(92,456,o),
(92,352,qs),
(92,236,o),
(200,104,o),
(284,104,qs),
(372,104,o),
(484,236,o),
(484,352,qs),
(484,560,o),
(328,596,q),
(328,648,l),
(252,648,l),
(252,596,l),
(184,588,o)
);
},
{
closed = 1;
nodes = (
(404,180,o),
(284,180,qs),
(172,180,o),
(172,524,o),
(284,524,qs),
(404,524,o)
);
}
);
vertWidth = 1024;
width = 1024;
}
);
note = uni11F2;
unicode = (4594,12675);
}
{
glyphname = emdash;
layers = (
{
layerId = m01;
shapes = (
{
closed = 1;
nodes = (
(2048,590,l),
(2048,734,l),
(0,734,l),
(0,590,l)
);
}
);
width = 2048;
}
);
unicode = 8212;
}
{
glyphname = bullet;
layers = (
{
layerId = m01;
shapes = (
{
closed = 1;
nodes = (
(718,494,l),
(718,906,l),
(306,906,l),
(306,494,l)
);
}
);
width = 1024;
}
);
unicode = 8226;
}
{
glyphname = ellipsis;
layers = (
{
layerId = m01;
shapes = (
{
closed = 1;
nodes = (
(1130,0,l),
(1130,254,l),
(918,254,l),
(918,0,l)
);
},
{
closed = 1;
nodes = (
(1812,0,l),
(1812,254,l),
(1599,254,l),
(1599,0,l)
);
},
{
closed = 1;
nodes = (
(449,0,l),
(449,254,l),
(236,254,l),
(236,0,l)
);
}
);
width = 2048;
}
);
unicode = 8230;
}
{
glyphname = referencemark;
layers = (
{
layerId = m01;
shapes = (
{
closed = 1;
nodes = (
(1158,1438,qs),
(1112,1516,o),
(1024,1516,qs),
(984,1516,o),
(948,1496,qs),
(870,1450,o),
(870,1362,qs),
(870,1322,o),
(890,1286,qs),
(936,1208,o),
(1024,1208,qs),
(1064,1208,o),
(1100,1228,qs),
(1178,1274,o),
(1178,1362,qs),
(1178,1402,o)
);
},
{
closed = 1;
nodes = (
(964,778,l),
(286,100,l),
(346,40,l),
(1024,718,l),
(1700,44,l),
(1760,102,l),
(1084,778,l),
(1760,1454,l),
(1700,1514,l),
(1024,838,l),
(348,1514,l),
(288,1454,l)
);
},
{
closed = 1;
nodes = (
(364,912,qs),
(286,866,o),
(286,778,qs),
(286,738,o),
(306,702,qs),
(352,624,o),
(440,624,qs),
(480,624,o),
(516,644,qs),
(594,690,o),
(594,778,qs),
(594,818,o),
(574,854,qs),
(528,932,o),
(440,932,qs),
(400,932,o)
);
},
{
closed = 1;
nodes = (
(1684,644,qs),
(1762,690,o),
(1762,778,qs),
(1762,818,o),
(1742,854,qs),
(1696,932,o),
(1608,932,qs),
(1568,932,o),
(1532,912,qs),
(1454,866,o),
(1454,778,qs),
(1454,738,o),
(1474,702,qs),
(1520,624,o),
(1608,624,qs),
(1648,624,o)
);
},
{
closed = 1;
nodes = (
(890,118,qs),
(936,40,o),
(1024,40,qs),
(1064,40,o),
(1100,60,qs),
(1178,106,o),
(1178,194,qs),
(1178,234,o),
(1158,270,qs),
(1112,348,o),
(1024,348,qs),
(984,348,o),
(948,328,qs),
(870,282,o),
(870,194,qs),
(870,154,o)
);
}
);
width = 2048;
}
);
unicode = 8251;
}
{
glyphname = "comma-han";
layers = (
{
layerId = m01;
shapes = (
{
closed = 1;
nodes = (
(84,152,q),
(24,104,l),
(152,8,o),
(232,-120,q),
(292,-68,l),
(228,36,o)
);
}
);
vertWidth = 1024;
width = 1024;
}
);
note = uni3001;
unicode = 12289;
}
{
glyphname = "period-han";
layers = (
{
layerId = m01;
shapes = (
{
closed = 1;
nodes = (
(208,-232,o),
(328,-232,qs),
(440,-232,o),
(600,-72,o),
(600,152,o),
(440,312,o),
(328,312,qs),
(208,312,o),
(48,152,o),
(48,-72,o)
);
},
{
closed = 1;
nodes = (
(328,184,qs),
(472,184,o),
(472,40,qs),
(472,-24,o),
(384,-112,o),
(328,-112,qs),
(176,-112,o),
(176,40,qs),
(176,184,o)
);
}
);
vertWidth = 2048;
width = 2048;
}
);
note = uni3002;
unicode = 12290;
}
{
glyphname = dittomark;
layers = (
{
layerId = m01;
shapes = (
{
closed = 1;
nodes = (
(508,176,l),
(584,160,l),
(724,560,l),
(624,580,l)
);
},
{
closed = 1;
nodes = (
(308,180,l),
(384,160,l),
(520,560,l),
(420,580,l)
);
}
);
vertWidth = 1024;
width = 1024;
}
);
note = uni3003;
unicode = 12291;
}
{
glyphname = "iterationmark-han";
layers = (
{
layerId = m01;
shapes = (
{
closed = 1;
nodes = (
(165,80,o),
(111,41,q),
(74,57,l),
(65,39,l),
(115,18,o),
(160,-13,q),
(174,6,l),
(132,31,l),
(166,57,o),
(205,122,o),
(205,132,qs),
(205,149,l),
(97,149,l),
(114,184,l),
(96,196,l),
(72,143,o),
(31,94,q),
(49,81,l),
(85,129,l),
(183,129,l)
);
}
);
vertWidth = 256;
width = 256;
}
);
note = uni3005;
unicode = 12293;
}
{
glyphname = "close-han";
layers = (
{
layerId = m01;
shapes = (
{
closed = 1;
nodes = (
(145,120,l),
(129,138,o),
(112,138,qs),
(87,138,o),
(56,62,qs),
(48,41,o),
(34,24,q),
(49,7,l),
(141,91,l),
(159,67,l),
(176,81,l),
(159,106,l),
(222,160,l),
(208,177,l)
);
},
{
closed = 1;
nodes = (
(97,104,o),
(107,117,o),
(112,117,qs),
(120,117,o),
(129,108,q),
(76,60,l)
);
}
);
vertWidth = 256;
width = 256;
}
);
note = uni3006;
unicode = 12294;
}
{
glyphname = "zero-han";
layers = (
{
layerId = m01;
shapes = (
{
closed = 1;
nodes = (
(1920,392,o),
(1920,744,qs),
(1920,1088,o),
(1400,1592,o),
(648,1592,o),
(128,1088,o),
(128,744,qs),
(128,392,o),
(648,-112,o),
(1400,-112,o)
);
},
{
closed = 1;
nodes = (
(1768,1032,o),
(1768,456,o),
(1336,40,o),
(1024,40,qs),
(704,40,o),
(280,456,o),
(280,1032,o),
(712,1456,o),
(1336,1456,o)
);
}
);
vertWidth = 2048;
width = 2048;
}
);
note = uni3007;
unicode = 12295;
}
{
glyphname = anglebracketleft;
layers = (
{
layerId = m01;
shapes = (
{
closed = 1;
nodes = (
(1718,1732,l),
(1110,778,l),
(1718,-176,l),
(1848,-116,l),
(1274,778,l),
(1848,1674,l)
);
}
);
width = 2048;
}
);
unicode = 12296;
}
{
glyphname = anglebracketright;
layers = (
{
layerId = m01;
shapes = (
{
closed = 1;
nodes = (
(165,866,l),
(100,837,l),
(387,389,l),
(100,-58,l),
(165,-88,l),
(469,389,l)
);
}
);
width = 1024;
}
);
unicode = 12297;
}
{
glyphname = dblanglebracketleft;
layers = (
{
layerId = m01;
shapes = (
{
closed = 1;
nodes = (
(1414,1704,l),
(960,750,l),
(1414,-204,l),
(1524,-168,l),
(1084,750,l),
(1524,1668,l)
);
},
{
closed = 1;
nodes = (
(1738,1704,l),
(1284,750,l),
(1738,-204,l),
(1848,-168,l),
(1408,750,l),
(1848,1668,l)
);
}
);
vertWidth = 2048;
width = 2048;
}
);
note = uni300A;
unicode = 12298;
}
{
glyphname = dblanglebracketright;
layers = (
{
layerId = m01;
shapes = (
{
closed = 1;
nodes = (
(240,788,l),
(440,368,l),
(240,-44,l),
(300,-76,l),
(512,368,l),
(300,816,l)
);
},
{
closed = 1;
nodes = (
(108,788,l),
(312,368,l),
(108,-44,l),
(168,-76,l),
(384,368,l),
(168,816,l)
);
}
);
vertWidth = 1024;
width = 1024;
}
);
note = uni300B;
unicode = 12299;
}
{
glyphname = cornerbracketleft;
layers = (
{
layerId = m01;
shapes = (
{
closed = 1;
nodes = (
(1402,1592,l),
(1898,1592,l),
(1898,1732,l),
(1252,1732,l),
(1252,408,l),
(1402,408,l)
);
}
);
vertWidth = 2048;
width = 2048;
}
);
note = uni300C;
unicode = 12300;
}
{
glyphname = cornerbracketright;
layers = (
{
layerId = m01;
shapes = (
{
closed = 1;
nodes = (
(696,-34,l),
(200,-34,l),
(200,-176,l),
(846,-176,l),
(846,1148,l),
(696,1148,l)
);
}
);
vertWidth = 2048;
width = 2048;
}
);
note = uni300D;
unicode = 12301;
}
{
glyphname = whitecornerbracketleft;
layers = (
{
layerId = m01;
shapes = (
{
closed = 1;
nodes = (
(512,816,l),
(512,368,l),
(712,368,l),
(712,612,l),
(852,612,l),
(852,816,l)
);
},
{
closed = 1;
nodes = (
(652,432,l),
(576,432,l),
(576,752,l),
(788,752,l),
(788,676,l),
(652,676,l)
);
}
);
vertWidth = 1024;
width = 1024;
}
);
note = uni300E;
unicode = 12302;
}
{
glyphname = whitecornerbracketright;
layers = (
{
layerId = m01;
shapes = (
{
closed = 1;
nodes = (
(77,92,l),
(77,32,l),
(43,32,l),
(43,-19,l),
(128,-19,l),
(128,92,l)
);
},
{
closed = 1;
nodes = (
(59,16,l),
(93,16,l),
(93,76,l),
(112,76,l),
(112,-3,l),
(59,-3,l)
);
}
);
vertWidth = 256;
width = 256;
}
);
note = uni300F;
unicode = 12303;
}
{
glyphname = blacklenticularbracketleft;
layers = (
{
layerId = m01;
shapes = (
{
closed = 1;
nodes = (
(158,34,o),
(158,92,qs),
(158,152,o),
(208,195,q),
(208,204,l),
(128,204,l),
(128,-19,l),
(208,-19,l),
(208,-11,l)
);
}
);
vertWidth = 256;
width = 256;
}
);
note = uni3010;
unicode = 12304;
}
{
glyphname = blacklenticularbracketright;
layers = (
{
layerId = m01;
shapes = (
{
closed = 1;
nodes = (
(100,861,l),
(146,822,o),
(184,769,qs),
(303,606,o),
(303,389,qs),
(303,288,o),
(275,193,qs),
(223,20,o),
(100,-83,q),
(100,-88,l),
(407,-88,l),
(407,866,l),
(100,866,l)
);
}
);
vertWidth = 1024;
width = 1024;
}
);
note = uni3011;
unicode = 12305;
}
{
glyphname = postalmark;
layers = (
{
layerId = m01;
shapes = (
{
closed = 1;
nodes = (
(160,732,l),
(160,648,l),
(864,648,l),
(864,732,l)
);
},
{
closed = 1;
nodes = (
(160,520,l),
(160,436,l),
(468,436,l),
(468,0,l),
(556,0,l),
(556,436,l),
(864,436,l),
(864,520,l)
);
}
);
vertWidth = 1024;
width = 1024;
}
);
note = uni3012;
unicode = 12306;
}
{
glyphname = getamark;
layers = (
{
layerId = m01;
shapes = (
{
closed = 1;
nodes = (
(51,168,l),
(51,117,l),
(204,117,l),
(204,168,l)
);
},
{
closed = 1;
nodes = (
(51,68,l),
(51,17,l),
(204,17,l),
(204,68,l)
);
}
);
vertWidth = 256;
width = 256;
}
);
note = uni3013;
unicode = 12307;
}
{
glyphname = tortoiseshellbracketleft;
layers = (
{
layerId = m01;
shapes = (
{
closed = 1;
nodes = (
(151,167,l),
(190,187,l),
(181,204,l),
(128,176,l),
(128,8,l),
(181,-20,l),
(190,-3,l),
(151,17,l)
);
}
);
vertWidth = 256;
width = 256;
}
);
note = uni3014;
unicode = 12308;
}
{
glyphname = tortoiseshellbracketright;
layers = (
{
layerId = m01;
shapes = (
{
closed = 1;
nodes = (
(75,204,l),
(66,187,l),
(105,167,l),
(105,17,l),
(66,-3,l),
(75,-20,l),
(128,8,l),
(128,176,l)
);
}
);
vertWidth = 256;
width = 256;
}
);
note = uni3015;
unicode = 12309;
}
{
glyphname = whitelenticularbracketleft;
layers = (
{
layerId = m01;
shapes = (
{
closed = 1;
nodes = (
(805,8,qs),
(655,147,o),
(655,389,qs),
(655,501,o),
(690,596,qs),
(755,772,o),
(924,849,q),
(924,866,l),
(573,866,l),
(573,-88,l),
(924,-88,l),
(924,-71,l),
(858,-41,o)
);
},
{
closed = 1;
nodes = (
(860,842,l),
(824,820,o),
(791,790,qs),
(630,642,o),
(630,389,qs),
(630,273,o),
(666,176,qs),
(724,20,o),
(860,-63,q),
(597,-63,l),
(597,842,l)
);
}
);
vertWidth = 1024;
width = 1024;
}
);
note = uni3016;
unicode = 12310;
}
{
glyphname = whitelenticularbracketright;
layers = (
{
layerId = m01;
shapes = (
{
closed = 1;
nodes = (
(43,204,l),
(43,194,l),
(76,151,o),
(76,92,qs),
(76,34,o),
(43,-9,q),
(43,-19,l),
(128,-19,l),
(128,204,l)
);
},
{
closed = 1;
nodes = (
(91,39,o),
(91,145,o),
(65,189,q),
(112,189,l),
(112,-5,l),
(65,-5,l)
);
}
);
vertWidth = 256;
width = 256;
}
);
note = uni3017;
unicode = 12311;
}
{
glyphname = whitetortoiseshellbracketleft;
layers = (
{
layerId = m01;
shapes = (
{
closed = 1;
nodes = (
(964,672,l),
(752,592,l),
(752,144,l),
(964,68,l),
(964,140,l),
(820,188,l),
(820,548,l),
(964,604,l)
);
},
{
closed = 1;
nodes = (
(964,844,l),
(608,708,l),
(608,28,l),
(964,-104,l),
(964,-36,l),
(676,68,l),
(676,668,l),
(964,776,l)
);
}
);
vertWidth = 1024;
width = 1024;
}
);
note = uni3018;
unicode = 12312;
}
{
glyphname = whitetortoiseshellbracketright;
layers = (
{
layerId = m01;
shapes = (
{
closed = 1;
nodes = (
(200,188,l),
(56,140,l),
(56,68,l),
(268,144,l),
(268,592,l),
(56,672,l),
(56,604,l),
(200,548,l)
);
},
{
closed = 1;
nodes = (
(344,68,l),
(56,-36,l),
(56,-104,l),
(412,28,l),
(412,708,l),
(56,844,l),
(56,776,l),
(344,668,l)
);
}
);
vertWidth = 1024;
width = 1024;
}
);
note = uni3019;
unicode = 12313;
}
{
glyphname = wavedash;
layers = (
{
layerId = m01;
shapes = (
{
closed = 1;
nodes = (
(177,119,qs),
(159,119,o),
(96,93,o),
(80,93,qs),
(51,93,o),
(23,117,q),
(10,102,l),
(46,74,o),
(81,74,qs),
(101,74,o),
(164,100,o),
(176,100,qs),
(205,100,o),
(232,74,q),
(246,88,l),
(213,119,o)
);
}
);
vertWidth = 256;
width = 256;
}
);
note = uni301C;
unicode = 12316;
}
{
glyphname = quotedoubleprimeReversed;
layers = (
{
layerId = m01;
shapes = (
{
closed = 1;
nodes = (
(1720,1736,l),
(1712,1712,l),
(1760,1512,o),
(1888,1232,q),
(2024,1232,l),
(1920,1736,l)
);
},
{
closed = 1;
nodes = (
(1336,1736,l),
(1320,1712,l),
(1496,1232,l),
(1640,1232,l),
(1536,1736,l)
);
}
);
vertWidth = 2048;
width = 2048;
}
);
note = uni301D;
unicode = 12317;
}
{
glyphname = quotedoubleprime;
layers = (
{
layerId = m01;
shapes = (
{
closed = 1;
nodes = (
(256,868,l),
(204,616,l),
(272,616,l),
(336,756,o),
(360,856,q),
(356,868,l)
);
},
{
closed = 1;
nodes = (
(64,868,l),
(12,616,l),
(80,616,l),
(144,756,o),
(168,856,q),
(164,868,l)
);
}
);
vertWidth = 1024;
width = 1024;
}
);
note = uni301E;
unicode = 12318;
}
{
glyphname = lowquotedoubleprime;
layers = (
{
layerId = m01;
shapes = (
{
closed = 1;
nodes = (
(408,-240,l),
(424,-264,l),
(624,-264,l),
(720,240,l),
(584,240,l)
);
},
{
closed = 1;
nodes = (
(72,-40,o),
(24,-240,q),
(40,-264,l),
(240,-264,l),
(336,240,l),
(200,240,l)
);
}
);
vertWidth = 2048;
width = 2048;
}
);
note = uni301F;
unicode = 12319;
}
{
glyphname = "one-hangzhou";
layers = (
{
layerId = m01;
shapes = (
{
closed = 1;
nodes = (
(552,-88,l),
(552,812,l),
(472,812,l),
(472,-88,l)
);
}
);
vertWidth = 1024;
width = 1024;
}
);
note = uni3021;
unicode = 12321;
}
{
glyphname = "two-hangzhou";
layers = (
{
layerId = m01;
shapes = (
{
closed = 1;
nodes = (
(704,-80,l),
(704,812,l),
(624,812,l),
(624,-80,l)
);
},
{
closed = 1;
nodes = (
(396,72,l),
(396,700,l),
(316,700,l),
(316,72,l)
);
}
);
vertWidth = 1024;
width = 1024;
}
);
note = uni3022;
unicode = 12322;
}
{
glyphname = "three-hangzhou";
layers = (
{
layerId = m01;
shapes = (
{
closed = 1;
nodes = (
(1664,-184,l),
(1664,1632,l),
(1504,1632,l),
(1504,-184,l)
);
},
{
closed = 1;
nodes = (
(576,48,l),
(576,1472,l),
(416,1472,l),
(416,48,l)
);
},
{
closed = 1;
nodes = (
(1112,168,l),
(1112,1336,l),
(952,1336,l),
(952,168,l)
);
}
);
vertWidth = 2048;
width = 2048;
}
);
note = uni3023;
unicode = 12323;
}
{
glyphname = "four-hangzhou";
layers = (
{
layerId = m01;
shapes = (
{
closed = 1;
nodes = (
(1176,696,q),
(480,1104,l),
(408,960,l),
(1080,552,l),
(808,176,o),
(168,8,q),
(256,-144,l),
(872,8,o),
(1224,448,q),
(1680,96,l),
(1784,240,l),
(1320,600,l),
(1520,944,o),
(1624,1552,q),
(1440,1552,l),
(1352,976,o)
);
}
);
vertWidth = 2048;
width = 2048;
}
);
note = uni3024;
unicode = 12324;
}
{
glyphname = "five-hangzhou";
layers = (
{
layerId = m01;
shapes = (
{
closed = 1;
nodes = (
(1320,1184,o),
(1008,984,q),
(808,1096,o),
(808,1160,qs),
(808,1208,o),
(928,1280,q),
(824,1400,l),
(624,1288,o),
(624,1160,qs),
(624,1000,o),
(848,888,q),
(472,648,o),
(472,416,qs),
(472,232,o),
(744,-24,o),
(1160,-24,o),
(1456,256,o),
(1456,448,qs),
(1456,720,o),
(1160,896,q),
(1464,1104,o),
(1568,1424,q),
(1408,1480,l)
);
},
{
closed = 1;
nodes = (
(1272,456,qs),
(1272,136,o),
(952,136,qs),
(656,136,o),
(656,408,qs),
(656,608,o),
(1008,800,q),
(1272,664,o)
);
}
);
vertWidth = 2048;
width = 2048;
}
);
note = uni3025;
unicode = 12325;
}
{
glyphname = "six-hangzhou";
layers = (
{
layerId = m01;
shapes = (
{
closed = 1;
nodes = (
(114,141,o),
(120,116,q),
(144,124,l),
(137,148,o),
(123,168,q),
(101,161,l)
);
},
{
closed = 1;
nodes = (
(243,88,l),
(243,107,l),
(13,107,l),
(13,88,l)
);
}
);
vertWidth = 256;
width = 256;
}
);
note = uni3026;
unicode = 12326;
}
{
glyphname = "seven-hangzhou";
layers = (
{
layerId = m01;
shapes = (
{
closed = 1;
nodes = (
(551,427,l),
(551,623,l),
(473,623,l),
(473,427,l)
);
},
{
closed = 1;
nodes = (
(942,312,l),
(942,387,l),
(72,387,l),
(72,312,l)
);
},
{
closed = 1;
nodes = (
(792,0,l),
(792,74,l),
(223,74,l),
(223,0,l)
);
}
);
vertWidth = 1024;
width = 1024;
}
);
note = uni3027;
unicode = 12327;
}
{
glyphname = "eight-hangzhou";
layers = (
{
layerId = m01;
shapes = (
{
closed = 1;
nodes = (
(117,177,o),
(123,155,q),
(144,162,l),
(137,183,o),
(124,200,q),
(104,194,l)
);
},
{
closed = 1;
nodes = (
(241,127,l),
(241,146,l),
(15,146,l),
(15,127,l)
);
},
{
closed = 1;
nodes = (
(212,74,l),
(212,93,l),
(37,93,l),
(37,74,l)
);
},
{
closed = 1;
nodes = (
(233,15,l),
(233,34,l),
(21,34,l),
(21,15,l)
);
}
);
vertWidth = 256;
width = 256;
}
);
note = uni3028;
unicode = 12328;
}
{
glyphname = "nine-hangzhou";
layers = (
{
layerId = m01;
shapes = (
{
closed = 1;
nodes = (
(192,480,q),
(256,428,l),
(320,492,o),
(360,568,q),
(684,568,l),
(644,388,o),
(480,240,q),
(404,316,o),
(344,428,q),
(276,384,l),
(332,276,o),
(412,184,q),
(308,108,o),
(112,48,q),
(164,-28,l),
(404,56,o),
(476,128,q),
(656,-20,o),
(908,-32,q),
(932,52,l),
(692,68,o),
(544,184,q),
(748,376,o),
(780,644,q),
(404,644,l),
(460,760,l),
(380,788,l),
(312,612,o)
);
}
);
vertWidth = 1024;
width = 1024;
}
);
note = uni3029;
unicode = 12329;
}
{
glyphname = "asmall-hira";
layers = (
{
layerId = m01;
shapes = (
{
closed = 1;
nodes = (
(836,148,qs),
(836,308,o),
(648,360,q),
(652,380,l),
(568,404,l),
(560,372,l),
(536,376,l),
(460,368,l),
(464,436,l),
(780,448,l),
(776,524,l),
(472,508,l),
(480,604,l),
(396,616,l),
(388,508,l),
(224,516,l),
(224,436,l),
(384,436,l),
(380,344,l),
(188,256,o),
(188,100,qs),
(188,44,o),
(264,-36,o),
(320,-36,qs),
(388,-36,o),
(556,120,o),
(620,284,q),
(748,248,o),
(748,156,qs),
(748,24,o),
(492,8,q),
(524,-76,l),
(836,-40,o)
);
},
{
closed = 1;
nodes = (
(456,136,q),
(460,288,l),
(536,296,l),
(500,196,o)
);
},
{
closed = 1;
nodes = (
(324,44,qs),
(272,44,o),
(272,104,qs),
(272,184,o),
(380,256,q),
(388,192,l),
(400,84,l),
(356,44,o)
);
}
);
vertWidth = 1024;
width = 1024;
}
);
note = uni3041;
unicode = 12353;
}
{
glyphname = "a-hira";
layers = (
{
layerId = m01;
shapes = (
{
closed = 1;
nodes = (
(916,220,qs),
(916,424,o),
(672,484,q),
(684,524,l),
(596,544,l),
(588,496,l),
(552,500,l),
(448,488,l),
(452,596,l),
(840,608,l),
(836,692,l),
(460,684,l),
(472,792,l),
(384,796,l),
(372,680,l),
(280,676,l),
(148,684,l),
(148,596,l),
(364,596,l),
(360,460,l),
(108,360,o),
(108,152,qs),
(108,76,o),
(200,-24,o),
(264,-24,qs),
(356,-24,o),
(572,184,o),
(648,404,q),
(820,360,o),
(820,224,qs),
(820,44,o),
(504,24,q),
(536,-64,l),
(916,-8,o)
);
},
{
closed = 1;
nodes = (
(432,164,q),
(444,296,l),
(444,400,l),
(564,416,l),
(512,260,o)
);
},
{
closed = 1;
nodes = (
(272,60,qs),
(244,60,o),
(192,120,o),
(192,156,qs),
(192,288,o),
(360,372,q),
(360,176,o),
(372,108,q),
(316,60,o)
);
}
);
vertWidth = 1024;
width = 1024;
}
);
note = uni3042;
unicode = 12354;
}
{
glyphname = "ismall-hira";
layers = (
{
layerId = m01;
shapes = (
{
closed = 1;
nodes = (
(85,15,o),
(80,15,qs),
(77,15,o),
(74,35,q),
(72,69,l),
(75,134,l),
(53,138,l),
(49,72,ls),
(49,28,o),
(66,-11,o),
(77,-11,qs),
(97,-11,o),
(117,39,q),
(98,50,l)
);
},
{
closed = 1;
nodes = (
(185,136,q),
(163,129,l),
(183,76,o),
(183,2,q),
(206,3,l),
(206,78,o)
);
}
);
vertWidth = 256;
width = 256;
}
);
note = uni3043;
unicode = 12355;
}
{
glyphname = "i-hira";
layers = (
{
layerId = m01;
shapes = (
{
closed = 1;
nodes = (
(71,17,o),
(63,17,qs),
(58,17,o),
(49,58,o),
(49,98,q),
(54,181,l),
(30,187,l),
(26,98,ls),
(26,-8,o),
(61,-8,qs),
(88,-8,o),
(107,62,q),
(85,71,l)
);
},
{
closed = 1;
nodes = (
(203,185,q),
(181,179,l),
(206,107,o),
(206,9,q),
(230,10,l),
(230,111,o)
);
}
);
vertWidth = 256;
width = 256;
}
);
note = uni3044;
unicode = 12356;
}
{
glyphname = "usmall-hira";
layers = (
{
layerId = m01;
shapes = (
{
closed = 1;
nodes = (
(712,1224,q),
(696,1056,l),
(1088,1016,o),
(1368,944,q),
(1408,1104,l),
(1096,1200,o)
);
},
{
closed = 1;
nodes = (
(1544,208,o),
(1544,472,qs),
(1544,864,o),
(1128,864,qs),
(864,864,o),
(504,744,q),
(552,576,l),
(936,696,o),
(1128,696,qs),
(1264,696,o),
(1360,600,o),
(1360,472,qs),
(1360,256,o),
(1136,64,o),
(768,16,q),
(824,-152,l),
(1224,-96,o)
);
}
);
vertWidth = 2048;
width = 2048;
}
);
note = uni3045;
unicode = 12357;
}
{
glyphname = "u-hira";
layers = (
{
layerId = m01;
shapes = (
{
closed = 1;
nodes = (
(268,804,q),
(256,716,l),
(536,684,o),
(688,648,q),
(708,732,l),
(568,776,o)
);
},
{
closed = 1;
nodes = (
(900,288,qs),
(900,544,o),
(628,544,qs),
(404,544,o),
(124,448,q),
(152,360,l),
(428,456,o),
(636,456,qs),
(804,456,o),
(804,284,qs),
(804,168,o),
(608,20,o),
(304,-20,q),
(348,-108,l),
(900,-28,o)
);
}
);
vertWidth = 1024;
width = 1024;
}
);
note = uni3046;
unicode = 12358;
}
{
glyphname = "esmall-hira";
layers = (
{
layerId = m01;
shapes = (
{
closed = 1;
nodes = (
(77,157,q),
(74,136,l),
(128,131,o),
(154,123,q),
(158,145,l),
(113,156,o)
);
},
{
closed = 1;
nodes = (
(171,6,ls),
(156,6,o),
(156,16,qs),
(157,34,ls),
(157,63,o),
(139,63,qs),
(133,63,o),
(119,55,q),
(118,56,l),
(160,93,l),
(167,96,o),
(167,102,q),
(154,118,l),
(148,114,l),
(53,111,l),
(54,89,l),
(90,91,l),
(133,97,l),
(134,95,l),
(85,48,o),
(43,-4,q),
(59,-18,l),
(94,26,o),
(117,46,o),
(126,46,qs),
(136,46,o),
(136,34,qs),
(135,17,ls),
(135,-16,o),
(175,-16,qs),
(213,-13,l),
(210,9,l)
);
}
);
vertWidth = 256;
width = 256;
}
);
note = uni3047;
unicode = 12359;
}
{
glyphname = "e-hira";
layers = (
{
layerId = m01;
shapes = (
{
closed = 1;
nodes = (
(268,796,q),
(264,712,l),
(528,688,o),
(644,656,q),
(660,740,l),
(492,788,o)
);
},
{
closed = 1;
nodes = (
(736,44,ls),
(672,44,o),
(652,72,o),
(652,156,qs),
(652,344,o),
(568,344,qs),
(536,344,o),
(468,304,q),
(464,308,l),
(672,516,l),
(704,528,o),
(704,560,q),
(636,616,l),
(612,600,l),
(152,580,l),
(156,484,l),
(556,524,l),
(560,520,l),
(300,248,o),
(96,0,q),
(164,-60,l),
(288,96,o),
(452,264,o),
(512,264,qs),
(564,264,o),
(564,196,qs),
(568,60,l),
(584,-48,o),
(760,-48,qs),
(924,-36,l),
(916,56,l)
);
}
);
vertWidth = 1024;
width = 1024;
}
);
note = uni3048;
unicode = 12360;
}
{
glyphname = "osmall-hira";
layers = (
{
layerId = m01;
shapes = (
{
closed = 1;
nodes = (
(166,140,q),
(152,124,l),
(153,124,l),
(117,121,l),
(117,153,l),
(95,153,l),
(95,120,l),
(80,119,l),
(50,121,l),
(50,99,l),
(96,99,l),
(96,75,l),
(43,60,o),
(43,26,qs),
(43,11,o),
(74,-15,o),
(95,-15,qs),
(118,-15,o),
(118,18,qs),
(118,59,l),
(134,60,ls),
(176,60,o),
(176,34,qs),
(176,14,o),
(129,3,q),
(139,-17,l),
(199,-5,o),
(199,34,qs),
(199,54,o),
(166,81,o),
(135,81,qs),
(118,80,l),
(117,100,l),
(161,103,l),
(161,118,l),
(185,98,o),
(197,82,q),
(213,98,l),
(200,114,o)
);
},
{
closed = 1;
nodes = (
(97,7,o),
(92,7,qs),
(80,7,o),
(63,19,o),
(63,25,qs),
(63,44,o),
(96,54,q),
(97,19,ls)
);
}
);
vertWidth = 256;
width = 256;
}
);
note = uni3049;
unicode = 12361;
}
{
glyphname = "o-hira";
layers = (
{
layerId = m01;
shapes = (
{
closed = 1;
nodes = (
(174,183,q),
(160,167,l),
(161,166,l),
(111,162,l),
(111,201,l),
(88,201,l),
(89,161,l),
(60,160,l),
(30,161,l),
(30,139,l),
(89,139,l),
(89,104,l),
(23,86,o),
(23,44,qs),
(23,22,o),
(58,-9,o),
(85,-9,qs),
(111,-9,o),
(112,24,qs),
(112,87,l),
(133,89,l),
(193,89,o),
(193,50,qs),
(193,15,o),
(130,9,q),
(138,-13,l),
(216,-3,o),
(216,50,qs),
(216,77,o),
(173,111,o),
(134,111,q),
(112,109,l),
(111,140,l),
(164,144,l),
(163,164,l),
(197,137,o),
(216,113,q),
(231,130,l),
(215,151,o)
);
},
{
closed = 1;
nodes = (
(90,13,o),
(83,13,qs),
(66,13,o),
(45,31,o),
(45,44,qs),
(45,69,o),
(89,82,q),
(90,28,ls)
);
}
);
vertWidth = 256;
width = 256;
}
);
note = uni304A;
unicode = 12362;
}
{
glyphname = "ka-hira";
layers = (
{
layerId = m01;
shapes = (
{
closed = 1;
nodes = (
(128,-16,qs),
(147,-16,o),
(167,32,o),
(167,105,qs),
(167,149,o),
(121,150,qs),
(105,150,l),
(118,195,l),
(96,201,l),
(81,148,l),
(26,142,l),
(30,120,l),
(75,125,l),
(50,45,o),
(24,-9,q),
(45,-18,l),
(71,35,o),
(99,128,q),
(119,129,ls),
(134,129,o),
(144,118,o),
(144,103,qs),
(144,48,o),
(135,19,qs),
(132,8,o),
(124,8,qs),
(111,8,o),
(88,15,q),
(89,-10,l),
(111,-16,o)
);
},
{
closed = 1;
nodes = (
(194,181,q),
(175,169,l),
(207,122,o),
(226,58,q),
(247,68,l),
(225,133,o)
);
}
);
vertWidth = 256;
width = 256;
}
);
note = uni304B;
unicode = 12363;
}
{
glyphname = "ga-hira";
layers = (
{
layerId = m01;
shapes = (
{
closed = 1;
nodes = (
(916,856,q),
(868,820,l),
(924,764,o),
(968,672,q),
(1020,708,l),
(980,796,o)
);
},
{
closed = 1;
nodes = (
(512,-64,qs),
(588,-64,o),
(668,128,o),
(668,420,qs),
(668,596,o),
(484,600,qs),
(420,600,l),
(472,780,l),
(384,804,l),
(324,592,l),
(104,568,l),
(120,480,l),
(300,500,l),
(200,180,o),
(96,-36,q),
(180,-72,l),
(284,140,o),
(396,512,q),
(476,516,ls),
(536,516,o),
(576,472,o),
(576,412,qs),
(576,192,o),
(540,76,qs),
(528,32,o),
(496,32,qs),
(444,32,o),
(352,60,q),
(356,-40,l),
(444,-64,o)
);
},
{
closed = 1;
nodes = (
(832,796,q),
(780,760,l),
(840,704,o),
(884,612,q),
(936,648,l),
(896,732,o)
);
},
{
closed = 1;
nodes = (
(728,724,q),
(656,676,l),
(780,488,o),
(856,232,q),
(944,272,l),
(856,532,o)
);
}
);
vertWidth = 1024;
width = 1024;
}
);
note = uni304C;
unicode = 12364;
}
{
glyphname = "ki-hira";
layers = (
{
layerId = m01;
shapes = (
{
closed = 1;
nodes = (
(604,504,l),
(548,600,l),
(792,620,l),
(780,704,l),
(500,680,l),
(424,812,l),
(344,776,l),
(404,672,l),
(108,660,l),
(108,576,l),
(452,592,l),
(512,496,l),
(72,476,l),
(72,388,l),
(560,416,l),
(656,292,l),
(652,288,l),
(564,336,o),
(464,336,qs),
(160,336,o),
(160,136,qs),
(160,-60,o),
(496,-60,q),
(768,-44,l),
(768,52,l),
(696,28,o),
(484,28,qs),
(252,28,o),
(252,252,o),
(464,252,qs),
(620,252,o),
(756,176,q),
(804,236,l),
(736,304,o),
(656,428,q),
(900,448,l),
(892,532,l)
);
}
);
vertWidth = 1024;
width = 1024;
}
);
note = uni304D;
unicode = 12365;
}
{
glyphname = "gi-hira";
layers = (
{
layerId = m01;
shapes = (
{
closed = 1;
nodes = (
(219,219,q),
(207,209,l),
(223,196,o),
(235,174,q),
(248,183,l),
(236,204,o)
);
},
{
closed = 1;
nodes = (
(196,207,q),
(184,197,l),
(200,184,o),
(212,162,q),
(225,172,l),
(213,193,o)
);
},
{
closed = 1;
nodes = (
(151,126,l),
(137,150,l),
(198,155,l),
(195,176,l),
(125,170,l),
(106,203,l),
(86,194,l),
(101,168,l),
(27,165,l),
(27,144,l),
(113,148,l),
(128,124,l),
(18,119,l),
(18,97,l),
(140,104,l),
(164,73,l),
(163,72,l),
(141,84,o),
(116,84,qs),
(40,84,o),
(40,34,qs),
(40,-15,o),
(124,-15,q),
(192,-11,l),
(192,13,l),
(174,7,o),
(121,7,qs),
(63,7,o),
(63,63,o),
(116,63,qs),
(155,63,o),
(189,44,q),
(201,59,l),
(184,76,o),
(164,107,q),
(225,112,l),
(223,133,l)
);
}
);
vertWidth = 256;
width = 256;
}
);
note = uni304E;
unicode = 12366;
}
{
glyphname = "ku-hira";
layers = (
{
layerId = m01;
shapes = (
{
closed = 1;
nodes = (
(360,376,qs),
(340,396,l),
(348,408,l),
(748,760,l),
(688,828,l),
(272,456,ls),
(240,424,o),
(240,396,qs),
(240,360,o),
(296,304,qs),
(608,16,o),
(684,-96,q),
(764,-28,l),
(672,88,o)
);
}
);
vertWidth = 1024;
width = 1024;
}
);
note = uni304F;
unicode = 12367;
}
{
glyphname = "gu-hira";
layers = (
{
layerId = m01;
shapes = (
{
closed = 1;
nodes = (
(228,214,q),
(216,205,l),
(230,191,o),
(241,168,q),
(255,177,l),
(244,199,o)
);
},
{
closed = 1;
nodes = (
(90,94,qs),
(85,99,l),
(87,102,l),
(187,190,l),
(172,207,l),
(68,114,ls),
(60,106,o),
(60,99,qs),
(60,90,o),
(74,76,qs),
(152,4,o),
(171,-24,q),
(191,-7,l),
(168,22,o)
);
},
{
closed = 1;
nodes = (
(206,201,q),
(193,192,l),
(208,177,o),
(219,155,q),
(232,164,l),
(222,186,o)
);
}
);
vertWidth = 256;
width = 256;
}
);
note = uni3050;
unicode = 12368;
}
{
glyphname = "ke-hira";
layers = (
{
layerId = m01;
shapes = (
{
closed = 1;
nodes = (
(31,146,o),
(31,70,qs),
(33,-10,l),
(56,-8,l),
(54,77,ls),
(54,145,o),
(62,195,q),
(39,198,l)
);
},
{
closed = 1;
nodes = (
(193,149,l),
(192,198,l),
(168,197,l),
(169,147,l),
(135,146,l),
(84,147,l),
(84,124,l),
(109,123,l),
(170,125,l),
(171,71,ls),
(171,22,o),
(122,-4,q),
(139,-21,l),
(194,11,o),
(194,71,qs),
(193,127,l),
(235,129,l),
(234,152,l)
);
}
);
vertWidth = 256;
width = 256;
}
);
note = uni3051;
unicode = 12369;
}
{
glyphname = "ge-hira";
layers = (
{
layerId = m01;
shapes = (
{
closed = 1;
nodes = (
(912,856,q),
(860,816,l),
(924,756,o),
(964,680,q),
(1020,720,l),
(980,792,o)
);
},
{
closed = 1;
nodes = (
(840,796,q),
(788,756,l),
(852,696,o),
(892,620,q),
(948,656,l),
(908,732,o)
);
},
{
closed = 1;
nodes = (
(124,584,o),
(124,280,qs),
(132,-40,l),
(224,-32,l),
(216,308,ls),
(216,580,o),
(248,780,q),
(156,792,l)
);
},
{
closed = 1;
nodes = (
(772,596,l),
(768,792,l),
(672,788,l),
(676,588,l),
(540,584,l),
(336,588,l),
(336,496,l),
(436,492,l),
(680,500,l),
(684,284,ls),
(684,88,o),
(488,-16,q),
(556,-84,l),
(776,44,o),
(776,284,qs),
(772,508,l),
(940,516,l),
(936,608,l)
);
}
);
vertWidth = 1024;
width = 1024;
}
);
note = uni3052;
unicode = 12370;
}
{
glyphname = "ko-hira";
layers = (
{
layerId = m01;
shapes = (
{
closed = 1;
nodes = (
(128,171,l),
(48,173,l),
(48,150,l),
(117,147,l),
(204,150,l),
(204,173,l)
);
},
{
closed = 1;
nodes = (
(142,19,l),
(60,19,o),
(60,44,qs),
(60,57,o),
(78,79,q),
(60,93,l),
(38,62,o),
(38,44,qs),
(38,21,o),
(80,-4,o),
(142,-4,q),
(218,2,l),
(217,27,l)
);
}
);
vertWidth = 256;
width = 256;
}
);
note = uni3053;
unicode = 12371;
}
{
glyphname = "go-hira";
layers = (
{
layerId = m01;
shapes = (
{
closed = 1;
nodes = (
(219,220,q),
(207,210,l),
(224,196,o),
(236,175,q),
(248,185,l),
(236,205,o)
);
},
{
closed = 1;
nodes = (
(201,205,q),
(189,195,l),
(205,182,o),
(217,160,q),
(229,170,l),
(218,190,o)
);
},
{
closed = 1;
nodes = (
(128,171,l),
(48,173,l),
(48,150,l),
(117,147,l),
(201,150,l),
(201,173,l)
);
},
{
closed = 1;
nodes = (
(142,19,l),
(60,19,o),
(60,44,qs),
(60,57,o),
(78,79,q),
(60,93,l),
(38,62,o),
(38,44,qs),
(38,21,o),
(80,-4,o),
(142,-4,q),
(218,2,l),
(217,27,l)
);
}
);
vertWidth = 256;
width = 256;
}
);
note = uni3054;
unicode = 12372;
}
{
glyphname = "sa-hira";
layers = (
{
layerId = m01;
shapes = (
{
closed = 1;
nodes = (
(596,640,l),
(504,816,l),
(420,780,l),
(496,632,l),
(116,628,l),
(124,540,l),
(540,548,l),
(600,436,o),
(684,336,q),
(680,332,l),
(576,384,o),
(484,384,qs),
(336,384,o),
(176,260,o),
(176,172,qs),
(176,-36,o),
(512,-36,qs),
(812,-24,l),
(824,68,l),
(528,52,ls),
(264,52,o),
(264,172,qs),
(264,300,o),
(484,300,qs),
(668,300,o),
(772,212,q),
(832,268,l),
(748,356,o),
(636,556,q),
(908,580,l),
(904,668,l)
);
}
);
vertWidth = 1024;
width = 1024;
}
);
note = uni3055;
unicode = 12373;
}
{
glyphname = "za-hira";
layers = (
{
layerId = m01;
shapes = (
{
closed = 1;
nodes = (
(215,219,q),
(203,209,l),
(217,197,o),
(228,176,q),
(241,185,l),
(229,205,o)
);
},
{
closed = 1;
nodes = (
(190,212,q),
(178,202,l),
(192,190,o),
(203,169,q),
(216,178,l),
(205,199,o)
);
},
{
closed = 1;
nodes = (
(149,160,l),
(126,204,l),
(105,195,l),
(124,158,l),
(29,157,l),
(31,135,l),
(135,137,l),
(150,109,o),
(171,84,q),
(170,83,l),
(147,96,o),
(121,96,qs),
(84,96,o),
(44,65,o),
(44,43,qs),
(44,-9,o),
(128,-9,qs),
(203,-6,l),
(206,17,l),
(132,13,ls),
(66,13,o),
(66,43,qs),
(66,75,o),
(121,75,qs),
(167,75,o),
(193,53,q),
(208,67,l),
(187,89,o),
(159,139,q),
(227,145,l),
(226,167,l)
);
}
);
vertWidth = 256;
width = 256;
}
);
note = uni3056;
unicode = 12374;
}
{
glyphname = "si-hira";
layers = (
{
layerId = m01;
shapes = (
{
closed = 1;
nodes = (
(1544,88,o),
(1056,88,qs),
(680,88,o),
(680,416,qs),
(728,1592,l),
(536,1592,l),
(504,416,ls),
(504,-80,o),
(1056,-80,qs),
(1376,-80,o),
(1752,256,o),
(1856,680,q),
(1688,736,l)
);
}
);
vertWidth = 2048;
width = 2048;
}
);
note = uni3057;
unicode = 12375;
}
{
glyphname = "zi-hira";
layers = (
{
layerId = m01;
shapes = (
{
closed = 1;
nodes = (
(1560,1632,q),
(1472,1544,l),
(1608,1448,o),
(1712,1280,q),
(1808,1360,l),
(1704,1520,o)
);
},
{
closed = 1;
nodes = (
(1544,88,o),
(1056,88,qs),
(680,88,o),
(680,416,qs),
(728,1592,l),
(536,1592,l),
(504,416,ls),
(504,-80,o),
(1056,-80,qs),
(1376,-80,o),
(1752,256,o),
(1856,680,q),
(1688,736,l)
);
},
{
closed = 1;
nodes = (
(1368,1512,q),
(1280,1432,l),
(1416,1328,o),
(1520,1160,q),
(1616,1248,l),
(1520,1400,o)
);
}
);
vertWidth = 2048;
width = 2048;
}
);
note = uni3058;
unicode = 12376;
}
{
glyphname = "su-hira";
layers = (
{
layerId = m01;
shapes = (
{
closed = 1;
nodes = (
(1256,1368,l),
(1240,1632,l),
(1064,1632,l),
(1072,1360,l),
(128,1344,l),
(128,1168,l),
(1080,1184,l),
(1080,1008,l),
(1040,1072,o),
(896,1072,qs),
(728,1072,o),
(512,848,o),
(512,544,o),
(736,328,o),
(888,328,qs),
(1024,328,o),
(1152,464,q),
(1160,456,l),
(1096,136,o),
(624,8,q),
(712,-168,l),
(1064,-32,o),
(1336,328,o),
(1336,632,qs),
(1336,792,o),
(1264,888,q),
(1264,1192,l),
(1920,1200,l),
(1920,1376,l)
);
},
{
closed = 1;
nodes = (
(808,904,o),
(904,904,qs),
(1120,904,o),
(1120,712,qs),
(1120,496,o),
(896,496,qs),
(808,496,o),
(688,624,o),
(688,784,o)
);
}
);
vertWidth = 2048;
width = 2048;
}
);
note = uni3059;
unicode = 12377;
}
{
glyphname = "zu-hira";
layers = (
{
layerId = m01;
shapes = (
{
closed = 1;
nodes = (
(216,219,q),
(205,209,l),
(219,198,o),
(231,177,q),
(244,187,l),
(231,207,o)
);
},
{
closed = 1;
nodes = (
(188,215,q),
(177,205,l),
(191,194,o),
(204,173,q),
(216,183,l),
(204,203,o)
);
},
{
closed = 1;
nodes = (
(157,171,l),
(155,204,l),
(133,204,l),
(134,170,l),
(16,168,l),
(16,146,l),
(135,148,l),
(135,126,l),
(130,134,o),
(112,134,qs),
(91,134,o),
(64,106,o),
(64,68,o),
(92,41,o),
(111,41,qs),
(128,41,o),
(144,58,q),
(145,57,l),
(137,17,o),
(78,1,q),
(89,-21,l),
(133,-4,o),
(167,41,o),
(167,79,qs),
(167,99,o),
(158,111,q),
(158,149,l),
(240,150,l),
(240,172,l)
);
},
{
closed = 1;
nodes = (
(101,113,o),
(113,113,qs),
(140,113,o),
(140,89,qs),
(140,62,o),
(112,62,qs),
(101,62,o),
(86,78,o),
(86,98,o)
);
}
);
vertWidth = 256;
width = 256;
}
);
note = uni305A;
unicode = 12378;
}
{
glyphname = "se-hira";
layers = (
{
layerId = m01;
shapes = (
{
closed = 1;
nodes = (
(1528,1144,l),
(1536,1328,l),
(1536,1584,l),
(1352,1584,l),
(1352,1136,l),
(704,1120,l),
(712,1528,l),
(528,1528,l),
(520,1112,l),
(112,1096,l),
(112,912,l),
(512,928,l),
(504,416,ls),
(504,120,o),
(728,-80,o),
(1152,-80,qs),
(1696,-48,l),
(1696,136,l),
(1160,96,l),
(728,96,o),
(696,208,q),
(680,424,l),
(696,936,l),
(1344,952,l),
(1344,680,ls),
(1336,576,o),
(1296,520,o),
(1232,520,q),
(1008,552,l),
(1000,368,l),
(1248,344,l),
(1504,344,o),
(1520,640,qs),
(1528,960,l),
(1928,976,l),
(1928,1152,l)
);
}
);
vertWidth = 2048;
width = 2048;
}
);
note = uni305B;
unicode = 12379;
}
{
glyphname = "ze-hira";
layers = (
{
layerId = m01;
shapes = (
{
closed = 1;
nodes = (
(226,219,q),
(214,208,l),
(232,195,o),
(243,177,q),
(255,187,l),
(244,205,o)
);
},
{
closed = 1;
nodes = (
(207,203,q),
(196,192,l),
(213,179,o),
(225,161,q),
(237,171,l),
(226,188,o)
);
},
{
closed = 1;
nodes = (
(191,143,l),
(192,166,l),
(192,198,l),
(169,198,l),
(169,142,l),
(88,140,l),
(89,191,l),
(66,191,l),
(65,139,l),
(14,137,l),
(14,114,l),
(64,116,l),
(63,52,ls),
(63,15,o),
(91,-10,o),
(144,-10,qs),
(212,-6,l),
(212,17,l),
(145,12,l),
(91,12,o),
(87,26,q),
(85,53,l),
(87,117,l),
(168,119,l),
(168,85,ls),
(167,72,o),
(162,65,o),
(154,65,q),
(126,69,l),
(125,46,l),
(156,43,l),
(188,43,o),
(190,80,qs),
(191,120,l),
(241,122,l),
(241,144,l)
);
}
);
vertWidth = 256;
width = 256;
}
);
note = uni305C;
unicode = 12380;
}
{
glyphname = "so-hira";
layers = (
{
layerId = m01;
shapes = (
{
closed = 1;
nodes = (
(145,117,o),
(107,111,q),
(107,112,l),
(186,169,ls),
(194,174,o),
(194,177,q),
(178,195,l),
(171,192,l),
(57,187,l),
(59,164,l),
(153,172,l),
(154,171,l),
(75,109,l),
(18,103,l),
(22,82,l),
(57,87,l),
(122,94,l),
(123,93,l),
(110,87,o),
(90,57,o),
(90,45,qs),
(90,-11,o),
(187,-11,qs),
(197,-11,l),
(199,12,l),
(172,11,ls),
(112,11,o),
(112,46,qs),
(112,60,o),
(138,92,o),
(170,98,o),
(238,98,q),
(237,120,l)
);
}
);
vertWidth = 256;
width = 256;
}
);
note = uni305D;
unicode = 12381;
}
{
glyphname = "zo-hira";
layers = (
{
layerId = m01;
shapes = (
{
closed = 1;
nodes = (
(223,220,q),
(213,209,l),
(227,198,o),
(241,177,q),
(253,187,l),
(239,208,o)
);
},
{
closed = 1;
nodes = (
(203,204,q),
(191,193,l),
(206,183,o),
(220,161,q),
(232,172,l),
(218,192,o)
);
},
{
closed = 1;
nodes = (
(145,117,o),
(107,111,q),
(107,112,l),
(186,169,ls),
(194,174,o),
(194,177,q),
(178,195,l),
(171,192,l),
(57,187,l),
(59,164,l),
(153,172,l),
(154,171,l),
(75,109,l),
(18,103,l),
(22,82,l),
(57,87,l),
(122,94,l),
(123,93,l),
(110,87,o),
(90,57,o),
(90,45,qs),
(90,-11,o),
(187,-11,qs),
(197,-11,l),
(199,12,l),
(172,11,ls),
(112,11,o),
(112,46,qs),
(112,60,o),
(138,92,o),
(170,98,o),
(238,98,q),
(237,120,l)
);
}
);
vertWidth = 256;
width = 256;
}
);
note = uni305E;
unicode = 12382;
}
{
glyphname = "ta-hira";
layers = (
{
layerId = m01;
shapes = (
{
closed = 1;
nodes = (
(368,648,l),
(396,792,l),
(304,804,l),
(276,644,l),
(92,636,l),
(100,548,l),
(260,552,l),
(184,196,o),
(104,-24,q),
(192,-56,l),
(268,168,o),
(352,556,q),
(576,576,l),
(576,664,l)
);
},
{
closed = 1;
nodes = (
(760,516,l),
(456,488,l),
(460,404,l),
(752,428,l),
(908,420,l),
(908,508,l)
);
},
{
closed = 1;
nodes = (
(492,44,o),
(492,136,qs),
(492,168,o),
(544,236,q),
(476,284,l),
(400,196,o),
(400,124,qs),
(400,-48,o),
(692,-48,qs),
(928,-36,l),
(932,64,l),
(696,44,l)
);
}
);
vertWidth = 1024;
width = 1024;
}
);
note = uni305F;
unicode = 12383;
}
{
glyphname = "da-hira";
layers = (
{
layerId = m01;
shapes = (
{
closed = 1;
nodes = (
(210,207,q),
(199,196,l),
(216,184,o),
(229,163,q),
(241,174,l),
(228,194,o)
);
},
{
closed = 1;
nodes = (
(92,162,l),
(99,198,l),
(76,201,l),
(69,161,l),
(23,159,l),
(25,137,l),
(65,138,l),
(46,49,o),
(26,-6,q),
(48,-14,l),
(67,42,o),
(88,139,q),
(144,144,l),
(144,166,l)
);
},
{
closed = 1;
nodes = (
(184,195,q),
(173,184,l),
(190,171,o),
(203,151,q),
(215,162,l),
(202,182,o)
);
},
{
closed = 1;
nodes = (
(190,129,l),
(114,122,l),
(115,101,l),
(188,107,l),
(227,105,l),
(227,127,l)
);
},
{
closed = 1;
nodes = (
(123,11,o),
(123,34,qs),
(123,42,o),
(136,59,q),
(119,71,l),
(100,49,o),
(100,31,qs),
(100,-12,o),
(173,-12,qs),
(232,-9,l),
(233,16,l),
(174,11,l)
);
}
);
vertWidth = 256;
width = 256;
}
);
note = uni3060;
unicode = 12384;
}
{
glyphname = "ti-hira";
layers = (
{
layerId = m01;
shapes = (
{
closed = 1;
nodes = (
(912,1312,l),
(968,1616,l),
(784,1640,l),
(728,1304,l),
(232,1296,l),
(232,1120,l),
(688,1120,l),
(592,696,o),
(464,488,q),
(608,376,l),
(896,656,o),
(1224,656,qs),
(1568,656,o),
(1568,96,o),
(1048,96,qs),
(776,96,o),
(544,152,q),
(552,-64,l),
(1064,-88,ls),
(1776,-88,o),
(1776,376,qs),
(1776,576,o),
(1488,832,o),
(1224,832,qs),
(1016,832,o),
(720,632,q),
(704,640,l),
(808,872,o),
(872,1128,q),
(1816,1192,l),
(1808,1376,l)
);
}
);
vertWidth = 2048;
width = 2048;
}
);
note = uni3061;
unicode = 12385;
}
{
glyphname = "di-hira";
layers = (
{
layerId = m01;
shapes = (
{
closed = 1;
nodes = (
(892,880,q),
(848,836,l),
(916,784,o),
(968,704,q),
(1016,748,l),
(964,828,o)
);
},
{
closed = 1;
nodes = (
(868,684,l),
(896,712,l),
(844,792,o),
(772,844,q),
(728,796,l),
(784,756,o),
(840,680,q),
(456,656,l),
(484,808,l),
(392,820,l),
(364,652,l),
(116,648,l),
(116,560,l),
(344,560,l),
(296,348,o),
(232,244,q),
(304,188,l),
(448,328,o),
(612,328,qs),
(784,328,o),
(784,48,o),
(524,48,qs),
(388,48,o),
(272,76,q),
(276,-32,l),
(532,-44,ls),
(888,-44,o),
(888,188,qs),
(888,288,o),
(744,416,o),
(612,416,qs),
(508,416,o),
(360,316,q),
(352,320,l),
(404,436,o),
(436,564,q),
(908,596,l),
(904,688,l)
);
}
);
vertWidth = 1024;
width = 1024;
}
);
note = uni3062;
unicode = 12386;
}
{
glyphname = "tusmall-hira";
layers = (
{
layerId = m01;
shapes = (
{
closed = 1;
nodes = (
(1688,600,qs),
(1688,1064,o),
(1200,1064,qs),
(936,1064,o),
(360,928,q),
(424,752,l),
(1008,896,o),
(1168,896,qs),
(1496,896,o),
(1496,584,qs),
(1496,152,o),
(648,128,q),
(704,-56,l),
(1688,8,o)
);
}
);
vertWidth = 2048;
width = 2048;
}
);
note = uni3063;
unicode = 12387;
}
{
glyphname = "tu-hira";
layers = (
{
layerId = m01;
shapes = (
{
closed = 1;
nodes = (
(920,216,o),
(920,400,qs),
(920,552,o),
(756,696,o),
(556,696,qs),
(412,696,o),
(104,624,q),
(136,528,l),
(404,608,o),
(576,608,qs),
(824,608,o),
(824,396,qs),
(824,252,o),
(616,104,o),
(292,84,q),
(316,-4,l),
(664,12,o)
);
}
);
vertWidth = 1024;
width = 1024;
}
);
note = uni3064;
unicode = 12388;
}
{
glyphname = "du-hira";
layers = (
{
layerId = m01;
shapes = (
{
closed = 1;
nodes = (
(872,872,q),
(832,824,l),
(908,784,o),
(972,708,q),
(1016,760,l),
(948,832,o)
);
},
{
closed = 1;
nodes = (
(776,808,q),
(736,760,l),
(812,720,o),
(876,648,q),
(920,696,l),
(856,768,o)
);
},
{
closed = 1;
nodes = (
(920,216,o),
(920,400,qs),
(920,552,o),
(756,696,o),
(556,696,qs),
(412,696,o),
(104,624,q),
(136,528,l),
(404,608,o),
(576,608,qs),
(824,608,o),
(824,396,qs),
(824,252,o),
(616,104,o),
(292,84,q),
(316,-4,l),
(664,12,o)
);
}
);
vertWidth = 1024;
width = 1024;
}
);
note = uni3065;
unicode = 12389;
}
{
glyphname = "te-hira";
layers = (
{
layerId = m01;
shapes = (
{
closed = 1;
nodes = (
(200,1168,l),
(1120,1256,l),
(1128,1240,l),
(696,968,o),
(696,520,qs),
(696,-80,o),
(1616,-104,q),
(1656,88,l),
(880,88,o),
(880,528,qs),
(880,760,o),
(1208,1176,o),
(1336,1232,qs),
(1424,1264,o),
(1856,1264,q),
(1864,1448,l),
(184,1352,l)
);
}
);
vertWidth = 2048;
width = 2048;
}
);
note = uni3066;
unicode = 12390;
}
{
glyphname = "de-hira";
layers = (
{
layerId = m01;
shapes = (
{
closed = 1;
nodes = (
(25,146,l),
(140,157,l),
(141,155,l),
(87,121,o),
(87,65,qs),
(87,-10,o),
(202,-13,q),
(207,11,l),
(110,11,o),
(110,66,qs),
(110,95,o),
(151,147,o),
(167,154,qs),
(178,158,o),
(232,158,q),
(233,181,l),
(23,169,l)
);
},
{
closed = 1;
nodes = (
(212,154,q),
(199,145,l),
(214,131,o),
(224,108,q),
(238,117,l),
(228,139,o)
);
},
{
closed = 1;
nodes = (
(188,141,q),
(175,132,l),
(190,118,o),
(201,95,q),
(214,104,l),
(204,125,o)
);
}
);
vertWidth = 256;
width = 256;
}
);
note = uni3067;
unicode = 12391;
}
{
glyphname = "to-hira";
layers = (
{
layerId = m01;
shapes = (
{
closed = 1;
nodes = (
(64,12,o),
(64,45,qs),
(64,64,o),
(117,99,o),
(221,124,q),
(214,146,l),
(122,121,l),
(116,162,o),
(116,200,q),
(93,199,l),
(99,112,l),
(42,86,o),
(42,45,qs),
(42,18,o),
(85,-10,o),
(143,-10,qs),
(223,-6,l),
(224,18,l),
(143,12,l)
);
}
);
vertWidth = 256;
width = 256;
}
);
note = uni3068;
unicode = 12392;
}
{
glyphname = "do-hira";
layers = (
{
layerId = m01;
shapes = (
{
closed = 1;
nodes = (
(836,844,q),
(788,804,l),
(852,752,o),
(900,664,q),
(952,704,l),
(904,788,o)
);
},
{
closed = 1;
nodes = (
(256,48,o),
(256,180,qs),
(256,256,o),
(468,396,o),
(884,496,q),
(856,584,l),
(488,484,l),
(464,648,o),
(464,800,q),
(372,796,l),
(396,448,l),
(168,344,o),
(168,180,qs),
(168,72,o),
(340,-40,o),
(572,-40,qs),
(892,-24,l),
(896,72,l),
(572,48,l)
);
},
{
closed = 1;
nodes = (
(748,788,q),
(696,748,l),
(760,696,o),
(808,608,q),
(860,648,l),
(812,732,o)
);
}
);
vertWidth = 1024;
width = 1024;
}
);
note = uni3069;
unicode = 12393;
}
{
glyphname = "na-hira";
layers = (
{
layerId = m01;
shapes = (
{
closed = 1;
nodes = (
(96,163,l),
(105,196,l),
(82,201,l),
(73,162,l),
(29,161,l),
(29,139,l),
(66,140,l),
(44,70,o),
(22,29,q),
(42,18,l),
(67,64,o),
(90,141,q),
(142,145,l),
(142,166,l)
);
},
{
closed = 1;
nodes = (
(166,178,q),
(155,159,l),
(197,139,o),
(224,116,q),
(237,135,l),
(199,163,o)
);
},
{
closed = 1;
nodes = (
(186,43,q),
(183,121,l),
(160,120,l),
(164,50,l),
(142,55,o),
(122,55,qs),
(78,55,o),
(78,20,qs),
(78,-17,o),
(132,-17,qs),
(179,-17,o),
(185,18,q),
(228,-3,l),
(240,17,l),
(215,33,o)
);
},
{
closed = 1;
nodes = (
(132,6,qs),
(100,6,o),
(100,20,qs),
(100,33,o),
(122,33,qs),
(141,33,o),
(164,26,q),
(162,6,o)
);
}
);
vertWidth = 256;
width = 256;
}
);
note = uni306A;
unicode = 12394;
}
{
glyphname = "ni-hira";
layers = (
{
layerId = m01;
shapes = (
{
closed = 1;
nodes = (
(152,560,o),
(152,252,qs),
(160,-64,l),
(252,-56,l),
(244,272,ls),
(244,536,o),
(272,760,q),
(180,768,l)
);
},
{
closed = 1;
nodes = (
(388,648,l),
(388,560,l),
(888,576,l),
(888,664,l)
);
},
{
closed = 1;
nodes = (
(448,80,o),
(448,176,qs),
(448,220,o),
(496,304,q),
(416,344,l),
(356,252,o),
(356,168,qs),
(356,-12,o),
(708,-12,q),
(924,0,l),
(932,96,l),
(696,80,l)
);
}
);
vertWidth = 1024;
width = 1024;
}
);
note = uni306B;
unicode = 12395;
}
{
glyphname = "nu-hira";
layers = (
{
layerId = m01;
shapes = (
{
closed = 1;
nodes = (
(231,43,o),
(231,66,qs),
(231,108,o),
(206,134,qs),
(187,156,o),
(147,156,q),
(153,195,l),
(131,198,l),
(125,155,l),
(99,151,o),
(78,139,q),
(72,181,l),
(50,177,l),
(59,125,l),
(25,95,o),
(25,48,qs),
(25,21,o),
(47,-10,o),
(62,-10,qs),
(78,-10,o),
(126,61,o),
(143,136,q),
(209,136,o),
(209,66,q),
(206,38,l),
(180,50,o),
(160,50,qs),
(122,50,o),
(122,18,qs),
(122,-13,o),
(167,-13,qs),
(199,-13,o),
(216,8,q),
(236,-5,l),
(248,13,l),
(226,27,l)
);
},
{
closed = 1;
nodes = (
(97,57,q),
(83,117,l),
(100,129,o),
(121,133,q),
(109,79,o)
);
},
{
closed = 1;
nodes = (
(62,11,qs),
(57,11,o),
(47,31,o),
(47,48,qs),
(47,78,o),
(64,101,q),
(79,46,o),
(87,40,q),
(70,11,o)
);
},
{
closed = 1;
nodes = (
(165,9,qs),
(143,9,o),
(143,18,qs),
(143,30,o),
(160,30,qs),
(173,30,o),
(195,19,q),
(184,9,o)
);
}
);
vertWidth = 256;
width = 256;
}
);
note = uni306C;
unicode = 12396;
}
{
glyphname = "ne-hira";
layers = (
{
layerId = m01;
shapes = (
{
closed = 1;
nodes = (
(900,200,o),
(900,308,qs),
(900,660,o),
(668,660,qs),
(524,660,o),
(336,472,q),
(340,528,l),
(392,572,l),
(356,632,l),
(340,628,l),
(348,784,l),
(256,784,l),
(252,616,l),
(84,616,l),
(88,520,l),
(252,532,l),
(248,372,l),
(68,136,l),
(140,76,l),
(244,224,l),
(240,-56,l),
(332,-56,l),
(336,340,l),
(532,576,o),
(660,576,qs),
(808,576,o),
(808,324,qs),
(804,184,l),
(704,228,o),
(632,228,qs),
(476,228,o),
(476,96,qs),
(476,-44,o),
(676,-44,qs),
(800,-44,o),
(856,52,q),
(936,-8,l),
(992,64,l),
(884,140,l)
);
},
{
closed = 1;
nodes = (
(672,44,qs),
(564,44,o),
(564,96,qs),
(564,144,o),
(632,144,qs),
(688,144,o),
(776,96,q),
(744,44,o)
);
}
);
vertWidth = 1024;
width = 1024;
}
);
note = uni306D;
unicode = 12397;
}
{
glyphname = "no-hira";
layers = (
{
layerId = m01;
shapes = (
{
closed = 1;
nodes = (
(236,92,qs),
(236,129,o),
(177,181,o),
(132,181,qs),
(84,181,o),
(20,119,o),
(20,76,qs),
(20,45,o),
(56,-1,o),
(77,-1,qs),
(105,-1,o),
(137,123,o),
(137,150,qs),
(137,156,o),
(134,160,q),
(168,160,o),
(212,120,o),
(212,92,qs),
(212,22,o),
(132,12,q),
(142,-11,l),
(236,8,o)
);
},
{
closed = 1;
nodes = (
(105,156,qs),
(114,158,l),
(118,158,o),
(118,152,qs),
(118,137,o),
(88,21,o),
(75,21,qs),
(65,21,o),
(43,53,o),
(43,76,qs),
(43,136,o)
);
}
);
vertWidth = 256;
width = 256;
}
);
note = uni306E;
unicode = 12398;
}
{
glyphname = "ha-hira";
layers = (
{
layerId = m01;
shapes = (
{
closed = 1;
nodes = (
(1584,1064,l),
(1912,1088,l),
(1904,1272,l),
(1576,1248,l),
(1568,1592,l),
(1384,1592,l),
(1392,1240,l),
(944,1224,l),
(712,1232,l),
(720,1048,l),
(1400,1056,l),
(1424,432,l),
(1248,480,o),
(1072,480,qs),
(696,480,o),
(696,208,qs),
(696,80,o),
(920,-96,o),
(1112,-96,qs),
(1512,-96,o),
(1576,160,q),
(1864,-24,l),
(1968,136,l),
(1608,360,l)
);
},
{
closed = 1;
nodes = (
(1112,88,qs),
(880,88,o),
(880,208,qs),
(880,312,o),
(1064,312,qs),
(1216,312,o),
(1408,232,q),
(1376,88,o)
);
},
{
closed = 1;
nodes = (
(272,1096,o),
(272,480,qs),
(288,-104,l),
(464,-88,l),
(456,456,ls),
(456,1184,o),
(504,1568,q),
(320,1576,l)
);
}
);
vertWidth = 2048;
width = 2048;
}
);
note = uni306F;
unicode = 12399;
}
{
glyphname = "ba-hira";
layers = (
{
layerId = m01;
shapes = (
{
closed = 1;
nodes = (
(1800,1752,q),
(1712,1664,l),
(1832,1576,o),
(1928,1432,q),
(2032,1512,l),
(1936,1656,o)
);
},
{
closed = 1;
nodes = (
(1664,1608,q),
(1576,1528,l),
(1704,1432,o),
(1800,1296,q),
(1888,1376,l),
(1800,1504,o)
);
},
{
closed = 1;
nodes = (
(1560,376,q),
(1544,1064,l),
(1872,1088,l),
(1864,1272,l),
(1536,1248,l),
(1528,1592,l),
(1336,1592,l),
(1352,1240,l),
(944,1224,l),
(712,1232,l),
(720,1048,l),
(1248,1056,l),
(1360,1056,l),
(1376,440,l),
(1224,480,o),
(1072,480,qs),
(696,480,o),
(696,208,qs),
(696,80,o),
(920,-96,o),
(1112,-96,qs),
(1496,-96,o),
(1544,176,q),
(1864,-24,l),
(1968,136,l),
(1784,280,o)
);
},
{
closed = 1;
nodes = (
(1264,88,o),
(1112,88,qs),
(880,88,o),
(880,208,qs),
(880,312,o),
(1064,312,qs),
(1200,312,o),
(1376,248,q),
(1368,160,o)
);
},
{
closed = 1;
nodes = (
(272,1096,o),
(272,480,qs),
(288,-104,l),
(464,-88,l),
(456,456,ls),
(456,1184,o),
(504,1568,q),
(320,1576,l)
);
}
);
vertWidth = 2048;
width = 2048;
}
);
note = uni3070;
unicode = 12400;
}
{
glyphname = "pa-hira";
layers = (
{
layerId = m01;
shapes = (
{
closed = 1;
nodes = (
(864,660,o),
(952,660,o),
(1016,724,o),
(1016,768,qs),
(1016,808,o),
(952,872,o),
(864,872,o),
(804,812,o),
(804,724,o)
);
},
{
closed = 1;
nodes = (
(956,816,o),
(956,768,qs),
(956,716,o),
(860,716,o),
(860,768,qs),
(860,816,o)
);
},
{
closed = 1;
nodes = (
(780,188,q),
(772,532,l),
(936,544,l),
(932,636,l),
(768,624,l),
(764,796,l),
(668,796,l),
(676,620,l),
(472,612,l),
(356,616,l),
(360,524,l),
(624,528,l),
(680,528,l),
(688,220,l),
(612,240,o),
(536,240,qs),
(348,240,o),
(348,104,qs),
(348,40,o),
(460,-48,o),
(556,-48,qs),
(748,-48,o),
(772,88,q),
(932,-12,l),
(984,68,l),
(892,140,o)
);
},
{
closed = 1;
nodes = (
(632,44,o),
(556,44,qs),
(440,44,o),
(440,104,qs),
(440,156,o),
(532,156,qs),
(600,156,o),
(688,124,q),
(684,80,o)
);
},
{
closed = 1;
nodes = (
(136,548,o),
(136,240,qs),
(144,-52,l),
(232,-44,l),
(228,228,ls),
(228,592,o),
(252,784,q),
(160,788,l)
);
}
);
vertWidth = 1024;
width = 1024;
}
);
note = uni3071;
unicode = 12401;
}
{
glyphname = "hi-hira";
layers = (
{
layerId = m01;
shapes = (
{
closed = 1;
nodes = (
(724,760,q),
(636,728,l),
(704,528,o),
(704,408,qs),
(704,24,o),
(452,24,qs),
(252,24,o),
(252,232,qs),
(252,364,o),
(396,632,q),
(428,644,o),
(428,668,qs),
(428,680,o),
(360,728,q),
(332,712,l),
(80,688,l),
(96,592,l),
(164,604,ls),
(240,612,o),
(312,640,q),
(316,632,l),
(164,408,o),
(164,232,qs),
(164,92,o),
(320,-68,o),
(452,-68,qs),
(600,-68,o),
(788,136,o),
(788,312,q),
(764,480,l),
(768,484,l),
(788,432,o),
(904,228,q),
(980,292,l),
(780,556,o)
);
}
);
vertWidth = 1024;
width = 1024;
}
);
note = uni3072;
unicode = 12402;
}
{
glyphname = "bi-hira";
layers = (
{
layerId = m01;
shapes = (
{
closed = 1;
nodes = (
(1824,1752,q),
(1720,1680,l),
(1840,1560,o),
(1928,1384,q),
(2032,1456,l),
(1952,1624,o)
);
},
{
closed = 1;
nodes = (
(1648,1624,q),
(1552,1552,l),
(1664,1440,o),
(1752,1256,q),
(1856,1328,l),
(1776,1504,o)
);
},
{
closed = 1;
nodes = (
(1448,1520,q),
(1272,1456,l),
(1408,1056,o),
(1408,816,qs),
(1408,48,o),
(904,48,qs),
(504,48,o),
(504,464,qs),
(504,728,o),
(792,1264,q),
(856,1288,o),
(856,1336,qs),
(856,1360,o),
(720,1456,q),
(664,1424,l),
(160,1376,l),
(192,1184,l),
(328,1208,ls),
(480,1224,o),
(624,1280,q),
(632,1264,l),
(328,816,o),
(328,464,qs),
(328,184,o),
(640,-136,o),
(904,-136,qs),
(1200,-136,o),
(1576,272,o),
(1576,624,q),
(1528,960,l),
(1536,968,l),
(1576,864,o),
(1808,456,q),
(1960,584,l),
(1560,1112,o)
);
}
);
vertWidth = 2048;
width = 2048;
}
);
note = uni3073;
unicode = 12403;
}
{
glyphname = "pi-hira";
layers = (
{
layerId = m01;
shapes = (
{
closed = 1;
nodes = (
(860,648,o),
(948,648,o),
(1008,708,o),
(1008,796,o),
(944,856,o),
(904,856,qs),
(860,856,o),
(796,796,o),
(796,708,o)
);
},
{
closed = 1;
nodes = (
(904,800,qs),
(952,800,o),
(952,704,o),
(904,704,qs),
(852,704,o),
(852,800,o)
);
},
{
closed = 1;
nodes = (
(724,760,q),
(636,728,l),
(704,528,o),
(704,408,qs),
(704,24,o),
(452,24,qs),
(252,24,o),
(252,232,qs),
(252,364,o),
(396,632,q),
(428,644,o),
(428,668,qs),
(428,680,o),
(360,728,q),
(332,712,l),
(80,688,l),
(96,592,l),
(164,604,ls),
(240,612,o),
(312,640,q),
(316,632,l),
(164,408,o),
(164,232,qs),
(164,92,o),
(320,-68,o),
(452,-68,qs),
(600,-68,o),
(788,136,o),
(788,312,q),
(764,480,l),
(768,484,l),
(788,432,o),
(904,228,q),
(980,292,l),
(780,556,o)
);
}
);
vertWidth = 1024;
width = 1024;
}
);
note = uni3074;
unicode = 12404;
}
{
glyphname = "hu-hira";
layers = (
{
layerId = m01;
shapes = (
{
closed = 1;
nodes = (
(65,193,q),
(64,172,l),
(124,167,o),
(181,153,q),
(184,175,l),
(139,188,o)
);
},
{
closed = 1;
nodes = (
(141,-13,o),
(169,12,o),
(169,32,qs),
(169,45,o),
(158,65,o),
(118,108,o),
(118,110,qs),
(118,114,o),
(146,136,q),
(128,151,l),
(94,120,o),
(94,109,qs),
(94,99,o),
(144,46,o),
(144,33,qs),
(144,9,o),
(117,9,qs),
(110,9,o),
(82,19,q),
(75,-3,l),
(117,-13,l)
);
},
{
closed = 1;
nodes = (
(206,119,q),
(187,110,l),
(202,77,o),
(222,6,q),
(244,15,l),
(222,90,o)
);
},
{
closed = 1;
nodes = (
(32,55,o),
(12,15,q),
(33,5,l),
(42,23,o),
(60,93,o),
(60,108,q),
(38,113,l)
);
}
);
vertWidth = 256;
width = 256;
}
);
note = uni3075;
unicode = 12405;
}
{
glyphname = "bu-hira";
layers = (
{
layerId = m01;
shapes = (
{
closed = 1;
nodes = (
(884,872,q),
(836,828,l),
(904,776,o),
(956,692,q),
(1004,732,l),
(952,816,o)
);
},
{
closed = 1;
nodes = (
(808,800,q),
(760,756,l),
(824,708,o),
(876,620,q),
(924,664,l),
(876,744,o)
);
},
{
closed = 1;
nodes = (
(260,772,q),
(256,688,l),
(496,668,o),
(724,612,q),
(736,700,l),
(556,752,o)
);
},
{
closed = 1;
nodes = (
(564,-52,o),
(676,48,o),
(676,128,qs),
(676,180,o),
(632,260,o),
(472,432,o),
(472,440,qs),
(472,456,o),
(584,544,q),
(512,604,l),
(376,480,o),
(376,436,qs),
(376,396,o),
(576,184,o),
(576,132,qs),
(576,36,o),
(468,36,qs),
(440,36,o),
(328,76,q),
(300,-12,l),
(468,-52,l)
);
},
{
closed = 1;
nodes = (
(824,476,q),
(748,440,l),
(808,308,o),
(888,24,q),
(976,60,l),
(888,360,o)
);
},
{
closed = 1;
nodes = (
(128,220,o),
(48,60,q),
(132,20,l),
(168,92,o),
(240,372,o),
(240,432,q),
(152,452,l)
);
}
);
vertWidth = 1024;
width = 1024;
}
);
note = uni3076;
unicode = 12406;
}
{
glyphname = "pu-hira";
layers = (
{
layerId = m01;
shapes = (
{
closed = 1;
nodes = (
(204,162,o),
(216,162,qs),
(226,162,o),
(242,178,o),
(242,200,o),
(226,215,o),
(216,215,qs),
(205,215,o),
(189,200,o),
(189,178,o)
);
},
{
closed = 1;
nodes = (
(216,201,qs),
(228,201,o),
(228,177,o),
(216,177,qs),
(203,177,o),
(203,201,o)
);
},
{
closed = 1;
nodes = (
(65,193,q),
(64,172,l),
(124,167,o),
(181,153,q),
(184,175,l),
(139,188,o)
);
},
{
closed = 1;
nodes = (
(141,-13,o),
(169,12,o),
(169,32,qs),
(169,45,o),
(158,65,o),
(118,108,o),
(118,110,qs),
(118,114,o),
(146,136,q),
(128,151,l),
(94,120,o),
(94,109,qs),
(94,99,o),
(144,46,o),
(144,33,qs),
(144,9,o),
(117,9,qs),
(110,9,o),
(82,19,q),
(75,-3,l),
(117,-13,l)
);
},
{
closed = 1;
nodes = (
(206,119,q),
(187,110,l),
(202,77,o),
(222,6,q),
(244,15,l),
(222,90,o)
);
},
{
closed = 1;
nodes = (
(32,55,o),
(12,15,q),
(33,5,l),
(42,23,o),
(60,93,o),
(60,108,q),
(38,113,l)
);
}
);
vertWidth = 256;
width = 256;
}
);
note = uni3077;
unicode = 12407;
}
{
glyphname = "he-hira";
layers = (
{
layerId = m01;
shapes = (
{
closed = 1;
nodes = (
(128,144,qs),
(111,162,o),
(100,162,qs),
(91,162,o),
(83,154,qs),
(14,75,l),
(32,58,l),
(89,127,ls),
(98,138,o),
(101,138,q),
(104,139,o),
(127,111,qs),
(190,36,o),
(228,6,q),
(242,25,l),
(227,37,o)
);
}
);
vertWidth = 256;
width = 256;
}
);
note = uni3078;
unicode = 12408;
}
{
glyphname = "be-hira";
layers = (
{
layerId = m01;
shapes = (
{
closed = 1;
nodes = (
(1504,1520,q),
(1408,1432,l),
(1552,1336,o),
(1656,1168,q),
(1752,1256,l),
(1648,1424,o)
);
},
{
closed = 1;
nodes = (
(1304,1416,q),
(1216,1328,l),
(1352,1232,o),
(1464,1064,q),
(1560,1152,l),
(1456,1304,o)
);
},
{
closed = 1;
nodes = (
(1024,1152,qs),
(888,1296,o),
(800,1296,qs),
(728,1296,o),
(664,1232,qs),
(112,600,l),
(256,464,l),
(712,1016,ls),
(784,1104,o),
(808,1104,q),
(832,1112,o),
(1016,888,qs),
(1520,288,o),
(1824,48,q),
(1936,200,l),
(1816,296,o)
);
}
);
vertWidth = 2048;
width = 2048;
}
);
note = uni3079;
unicode = 12409;
}
{
glyphname = "pe-hira";
layers = (
{
layerId = m01;
shapes = (
{
closed = 1;
nodes = (
(166,145,o),
(188,145,o),
(204,161,o),
(204,172,qs),
(204,182,o),
(188,198,o),
(166,198,o),
(151,182,o),
(151,172,qs),
(151,161,o)
);
},
{
closed = 1;
nodes = (
(177,184,qs),
(182,184,o),
(190,176,o),
(190,172,qs),
(190,159,o),
(177,159,qs),
(165,159,o),
(165,172,qs),
(165,184,o)
);
},
{
closed = 1;
nodes = (
(128,144,qs),
(111,162,o),
(100,162,qs),
(91,162,o),
(83,154,qs),
(14,75,l),
(32,58,l),
(89,127,ls),
(98,138,o),
(101,138,q),
(104,139,o),
(127,111,qs),
(190,36,o),
(228,6,q),
(242,25,l),
(227,37,o)
);
}
);
vertWidth = 256;
width = 256;
}
);
note = uni307A;
unicode = 12410;
}
{
glyphname = "ho-hira";
layers = (
{
layerId = m01;
shapes = (
{
closed = 1;
nodes = (
(32,141,o),
(32,69,qs),
(33,-16,l),
(56,-16,l),
(55,74,ls),
(55,149,o),
(63,194,q),
(41,196,l)
);
},
{
closed = 1;
nodes = (
(195,36,q),
(194,103,l),
(232,105,l),
(232,127,l),
(194,125,l),
(193,161,l),
(231,164,l),
(231,186,l),
(164,181,o),
(89,181,q),
(89,159,l),
(171,160,l),
(171,124,l),
(87,123,l),
(89,101,l),
(172,102,l),
(173,46,l),
(150,55,o),
(129,55,qs),
(85,55,o),
(85,21,qs),
(85,-14,o),
(138,-14,qs),
(181,-14,o),
(192,13,q),
(226,-11,l),
(239,7,l),
(219,24,o)
);
},
{
closed = 1;
nodes = (
(135,8,qs),
(108,8,o),
(108,34,o),
(150,34,o),
(171,25,q),
(164,8,o)
);
}
);
vertWidth = 256;
width = 256;
}
);
note = uni307B;
unicode = 12411;
}
{
glyphname = "bo-hira";
layers = (
{
layerId = m01;
shapes = (
{
closed = 1;
nodes = (
(1800,1752,q),
(1704,1672,l),
(1832,1568,o),
(1928,1392,q),
(2032,1472,l),
(1936,1632,o)
);
},
{
closed = 1;
nodes = (
(1568,288,q),
(1552,824,l),
(1864,840,l),
(1864,1016,l),
(1552,1000,l),
(1544,1280,l),
(1704,1288,l),
(1704,1392,l),
(1784,1272,l),
(1888,1352,l),
(1792,1520,o),
(1648,1632,q),
(1552,1552,l),
(1640,1464,l),
(712,1448,l),
(712,1272,l),
(1368,1280,l),
(1368,992,l),
(696,984,l),
(712,808,l),
(1376,816,l),
(1384,368,l),
(1200,440,o),
(1032,440,qs),
(680,440,o),
(680,168,qs),
(680,-112,o),
(1104,-112,qs),
(1448,-112,o),
(1536,104,q),
(1808,-88,l),
(1912,56,l),
(1752,192,o)
);
},
{
closed = 1;
nodes = (
(1080,64,qs),
(864,64,o),
(864,272,o),
(1200,272,o),
(1368,200,q),
(1312,64,o)
);
},
{
closed = 1;
nodes = (
(256,1120,o),
(256,552,qs),
(264,-128,l),
(448,-128,l),
(440,592,ls),
(440,1192,o),
(504,1552,q),
(328,1568,l)
);
}
);
vertWidth = 2048;
width = 2048;
}
);
note = uni307C;
unicode = 12412;
}
{
glyphname = "po-hira";
layers = (
{
layerId = m01;
shapes = (
{
closed = 1;
nodes = (
(1808,1312,qs),
(1896,1312,o),
(2016,1432,o),
(2016,1520,qs),
(2016,1736,o),
(1808,1736,qs),
(1720,1736,o),
(1600,1608,o),
(1600,1520,qs),
(1608,1464,l),
(712,1448,l),
(712,1272,l),
(1368,1280,l),
(1368,992,l),
(696,984,l),
(712,808,l),
(1376,816,l),
(1384,368,l),
(1200,440,o),
(1032,440,qs),
(680,440,o),
(680,168,qs),
(680,-112,o),
(1104,-112,qs),
(1448,-112,o),
(1536,104,q),
(1808,-88,l),
(1912,56,l),
(1752,192,o),
(1568,288,q),
(1552,824,l),
(1864,840,l),
(1864,1016,l),
(1552,1000,l),
(1544,1280,l),
(1680,1288,l),
(1680,1352,l),
(1736,1312,o)
);
},
{
closed = 1;
nodes = (
(1808,1624,qs),
(1912,1624,o),
(1912,1520,qs),
(1912,1424,o),
(1808,1424,qs),
(1768,1424,o),
(1712,1488,o),
(1712,1520,qs),
(1712,1624,o)
);
},
{
closed = 1;
nodes = (
(1080,64,qs),
(864,64,o),
(864,272,o),
(1200,272,o),
(1368,200,q),
(1312,64,o)
);
},
{
closed = 1;
nodes = (
(256,1120,o),
(256,552,qs),
(264,-128,l),
(448,-128,l),
(440,592,ls),
(440,1192,o),
(504,1552,q),
(328,1568,l)
);
}
);
vertWidth = 2048;
width = 2048;
}
);
note = uni307D;
unicode = 12413;
}
{
glyphname = "ma-hira";
layers = (
{
layerId = m01;
shapes = (
{
closed = 1;
nodes = (
(140,53,q),
(139,95,l),
(217,98,l),
(217,120,l),
(139,117,l),
(139,144,l),
(217,145,l),
(217,168,l),
(139,166,l),
(138,197,l),
(115,197,l),
(115,165,l),
(32,166,l),
(32,143,l),
(116,143,l),
(116,117,l),
(32,116,l),
(32,93,l),
(104,94,l),
(117,94,l),
(117,59,l),
(86,62,l),
(60,62,o),
(29,38,o),
(29,23,qs),
(29,7,o),
(58,-14,o),
(83,-14,qs),
(137,-14,o),
(140,29,q),
(172,16,o),
(213,-10,q),
(227,9,l),
(188,37,o)
);
},
{
closed = 1;
nodes = (
(104,7,o),
(85,7,qs),
(51,7,o),
(51,23,qs),
(51,41,o),
(86,41,q),
(117,37,l),
(117,20,o)
);
}
);
vertWidth = 256;
width = 256;
}
);
note = uni307E;
unicode = 12414;
}
{
glyphname = "mi-hira";
layers = (
{
layerId = m01;
shapes = (
{
closed = 1;
nodes = (
(205,153,l),
(181,153,l),
(179,96,l),
(152,105,o),
(122,109,q),
(133,182,l),
(42,180,l),
(43,158,l),
(71,159,l),
(108,162,l),
(109,160,l),
(100,110,l),
(64,110,o),
(22,72,o),
(22,44,qs),
(22,24,o),
(43,0,o),
(59,0,qs),
(96,0,o),
(117,87,q),
(146,84,o),
(177,72,q),
(174,20,o),
(137,-4,q),
(153,-23,l),
(178,-3,o),
(197,32,o),
(200,64,q),
(238,45,l),
(248,67,l),
(202,88,l)
);
},
{
closed = 1;
nodes = (
(59,22,qs),
(45,22,o),
(45,43,qs),
(45,86,o),
(95,88,q),
(78,22,o)
);
}
);
vertWidth = 256;
width = 256;
}
);
note = uni307F;
unicode = 12415;
}
{
glyphname = "mu-hira";
layers = (
{
layerId = m01;
shapes = (
{
closed = 1;
nodes = (
(224,16,o),
(336,-48,o),
(532,-48,qs),
(720,-48,o),
(812,4,qs),
(876,44,o),
(876,160,q),
(848,420,l),
(760,404,l),
(788,256,o),
(788,172,qs),
(788,80,o),
(648,32,o),
(492,32,qs),
(316,32,o),
(316,84,qs),
(324,148,l),
(424,220,o),
(424,348,qs),
(424,440,o),
(368,488,q),
(372,588,l),
(556,592,l),
(556,680,l),
(376,672,l),
(380,796,l),
(288,800,l),
(288,672,l),
(96,676,l),
(96,584,l),
(284,584,l),
(280,516,l),
(204,512,o),
(104,388,o),
(104,284,qs),
(104,224,o),
(180,128,o),
(228,124,q),
(224,84,ls)
);
},
{
closed = 1;
nodes = (
(252,432,o),
(292,432,qs),
(336,432,o),
(336,348,qs),
(336,288,o),
(280,208,o),
(248,208,qs),
(228,208,o),
(192,252,o),
(192,284,qs),
(192,352,o)
);
},
{
closed = 1;
nodes = (
(704,764,q),
(648,700,l),
(772,600,o),
(880,460,q),
(948,524,l),
(860,632,o)
);
}
);
vertWidth = 1024;
width = 1024;
}
);
note = uni3080;
unicode = 12416;
}
{
glyphname = "me-hira";
layers = (
{
layerId = m01;
shapes = (
{
closed = 1;
nodes = (
(1848,616,qs),
(1848,888,o),
(1512,1232,o),
(1216,1256,q),
(1272,1576,l),
(1088,1616,l),
(1032,1264,l),
(832,1248,o),
(664,1168,q),
(608,1504,l),
(432,1488,l),
(504,1080,l),
(200,856,o),
(200,464,qs),
(200,280,o),
(392,0,o),
(504,0,qs),
(640,0,o),
(1048,552,o),
(1176,1088,q),
(1400,1080,o),
(1656,808,o),
(1656,616,qs),
(1656,144,o),
(952,56,q),
(1032,-112,l),
(1848,16,o)
);
},
{
closed = 1;
nodes = (
(704,1000,l),
(832,1064,o),
(992,1088,q),
(808,544,l)
);
},
{
closed = 1;
nodes = (
(496,184,qs),
(464,184,o),
(368,360,o),
(368,488,qs),
(368,736,o),
(552,896,q),
(640,536,o),
(704,432,qs),
(728,400,l),
(552,184,o)
);
}
);
vertWidth = 2048;
width = 2048;
}
);
note = uni3081;
unicode = 12417;
}
{
glyphname = "mo-hira";
layers = (
{
layerId = m01;
shapes = (
{
closed = 1;
nodes = (
(320,-56,o),
(604,-56,qs),
(928,-56,o),
(928,136,qs),
(928,212,o),
(872,292,q),
(788,256,l),
(832,188,o),
(832,140,qs),
(832,32,o),
(604,32,qs),
(484,32,o),
(408,84,o),
(408,144,qs),
(420,320,l),
(788,340,l),
(788,432,l),
(428,408,l),
(440,540,l),
(788,556,l),
(788,644,l),
(448,628,l),
(460,784,l),
(372,796,l),
(356,628,l),
(104,624,l),
(100,540,l),
(348,540,l),
(340,408,l),
(96,404,l),
(96,312,l),
(328,316,l),
(320,144,ls)
);
}
);
vertWidth = 1024;
width = 1024;
}
);
note = uni3082;
unicode = 12418;
}
{
glyphname = "yasmall-hira";
layers = (
{
layerId = m01;
shapes = (
{
closed = 1;
nodes = (
(1536,280,o),
(1752,480,o),
(1752,800,o),
(1520,1024,o),
(1320,1024,q),
(1184,1008,l),
(1112,1248,l),
(944,1208,l),
(1016,976,l),
(760,920,l),
(680,1224,l),
(512,1176,l),
(592,872,l),
(296,784,l),
(352,608,l),
(640,704,l),
(864,-144,l),
(1032,-96,l),
(808,752,l),
(1064,816,l),
(1136,600,l),
(1296,656,l),
(1240,848,l),
(1320,856,ls),
(1576,856,o),
(1576,640,qs),
(1576,448,o),
(1344,448,qs),
(1200,448,o),
(1080,488,q),
(1048,320,l),
(1352,280,l)
);
}
);
vertWidth = 2048;
width = 2048;
}
);
note = uni3083;
unicode = 12419;
}
{
glyphname = "ya-hira";
layers = (
{
layerId = m01;
shapes = (
{
closed = 1;
nodes = (
(716,184,qs),
(828,184,o),
(960,308,o),
(960,400,qs),
(960,496,o),
(816,628,o),
(692,628,qs),
(616,624,l),
(564,792,l),
(480,760,l),
(528,608,l),
(344,572,l),
(296,776,l),
(208,752,l),
(256,552,l),
(64,504,l),
(96,416,l),
(276,464,l),
(400,-80,l),
(488,-60,l),
(364,484,l),
(552,524,l),
(596,388,l),
(684,416,l),
(644,536,l),
(692,540,ls),
(860,540,o),
(860,400,qs),
(860,272,o),
(716,272,q),
(540,292,l),
(528,204,l),
(620,184,o)
);
}
);
vertWidth = 1024;
width = 1024;
}
);
note = uni3084;
unicode = 12420;
}
{
glyphname = "yusmall-hira";
layers = (
{
layerId = m01;
shapes = (
{
closed = 1;
nodes = (
(832,188,o),
(832,292,qs),
(832,512,o),
(600,536,q),
(596,628,l),
(508,624,l),
(512,532,l),
(352,492,o),
(272,312,q),
(268,312,l),
(300,572,l),
(212,588,l),
(192,452,o),
(192,276,qs),
(200,36,l),
(288,44,l),
(276,164,l),
(276,224,o),
(432,424,o),
(516,444,q),
(520,220,l),
(516,152,l),
(468,168,o),
(384,232,q),
(328,176,l),
(408,96,o),
(488,72,q),
(460,28,o),
(372,-24,q),
(420,-96,l),
(544,-24,o),
(580,56,q),
(692,56,o)
);
},
{
closed = 1;
nodes = (
(740,292,qs),
(740,156,o),
(600,140,q),
(604,220,l),
(600,452,l),
(740,436,o)
);
}
);
vertWidth = 1024;
width = 1024;
}
);
note = uni3085;
unicode = 12421;
}
{
glyphname = "yu-hira";
layers = (
{
layerId = m01;
shapes = (
{
closed = 1;
nodes = (
(1824,512,o),
(1824,760,qs),
(1824,1016,o),
(1504,1336,o),
(1224,1352,q),
(1216,1592,l),
(1032,1584,l),
(1040,1344,l),
(616,1264,o),
(400,760,q),
(392,760,l),
(456,1480,l),
(280,1496,l),
(224,1136,o),
(224,728,qs),
(256,144,l),
(424,160,l),
(416,408,ls),
(416,592,o),
(632,888,qs),
(808,1112,o),
(1048,1168,q),
(1064,544,l),
(1048,384,l),
(896,424,o),
(688,592,q),
(568,472,l),
(768,280,o),
(984,216,q),
(904,96,o),
(664,-32,q),
(792,-176,l),
(1112,16,o),
(1184,192,q),
(1480,192,o)
);
},
{
closed = 1;
nodes = (
(1632,760,qs),
(1632,400,o),
(1224,368,q),
(1240,544,l),
(1224,1184,l),
(1632,1152,o)
);
}
);
vertWidth = 2048;
width = 2048;
}
);
note = uni3086;
unicode = 12422;
}
{
glyphname = "yosmall-hira";
layers = (
{
layerId = m01;
shapes = (
{
closed = 1;
nodes = (
(560,160,q),
(552,380,l),
(788,392,l),
(788,484,l),
(548,464,l),
(548,604,l),
(460,604,l),
(476,184,l),
(380,192,l),
(196,192,o),
(196,-56,o),
(372,-56,qs),
(552,-56,o),
(560,80,q),
(788,-24,l),
(828,48,l),
(712,116,o)
);
},
{
closed = 1;
nodes = (
(444,28,o),
(372,28,qs),
(280,28,o),
(280,68,qs),
(280,116,o),
(380,116,q),
(476,104,l),
(476,56,o)
);
}
);
vertWidth = 1024;
width = 1024;
}
);
note = uni3087;
unicode = 12423;
}
{
glyphname = "yo-hira";
layers = (
{
layerId = m01;
shapes = (
{
closed = 1;
nodes = (
(1120,440,q),
(1096,1008,l),
(1704,1040,l),
(1704,1224,l),
(1088,1192,l),
(1072,1552,l),
(888,1544,l),
(936,480,l),
(664,512,l),
(232,512,o),
(232,192,qs),
(232,72,o),
(456,-96,o),
(656,-96,qs),
(912,-96,o),
(1112,56,o),
(1120,256,q),
(1440,152,o),
(1728,-16,q),
(1816,152,l),
(1512,328,o)
);
},
{
closed = 1;
nodes = (
(840,80,o),
(656,80,qs),
(416,80,o),
(416,200,qs),
(416,344,o),
(664,344,q),
(936,312,l),
(936,160,o)
);
}
);
vertWidth = 2048;
width = 2048;
}
);
note = uni3088;
unicode = 12424;
}
{
glyphname = "ra-hira";
layers = (
{
layerId = m01;
shapes = (
{
closed = 1;
nodes = (
(568,1560,q),
(536,1392,l),
(904,1352,o),
(1304,1192,q),
(1368,1368,l),
(1016,1504,o)
);
},
{
closed = 1;
nodes = (
(1704,-88,o),
(1704,376,qs),
(1704,568,o),
(1400,824,o),
(1136,824,qs),
(848,824,o),
(552,608,q),
(664,1208,l),
(496,1224,l),
(424,672,o),
(344,424,q),
(488,360,l),
(552,464,o),
(944,664,o),
(1120,664,qs),
(1312,664,o),
(1528,504,o),
(1528,384,qs),
(1528,88,o),
(904,88,q),
(488,120,l),
(528,-72,l),
(904,-88,ls)
);
}
);
vertWidth = 2048;
width = 2048;
}
);
note = uni3089;
unicode = 12425;
}
{
glyphname = "ri-hira";
layers = (
{
layerId = m01;
shapes = (
{
closed = 1;
nodes = (
(1648,368,o),
(1648,952,qs),
(1648,1552,o),
(1336,1552,qs),
(1176,1552,o),
(1016,1320,q),
(1136,1192,l),
(1256,1368,o),
(1328,1368,qs),
(1456,1368,o),
(1456,984,qs),
(1456,480,o),
(1328,312,qs),
(1184,112,o),
(760,40,q),
(856,-136,l),
(1256,-64,o)
);
},
{
closed = 1;
nodes = (
(400,1184,o),
(400,808,qs),
(416,352,l),
(600,376,l),
(592,824,ls),
(592,1128,o),
(640,1472,q),
(456,1496,l)
);
}
);
vertWidth = 2048;
width = 2048;
}
);
note = uni308A;
unicode = 12426;
}
{
glyphname = "ru-hira";
layers = (
{
layerId = m01;
shapes = (
{
closed = 1;
nodes = (
(464,224,o),
(396,224,qs),
(256,224,o),
(256,104,qs),
(256,-48,o),
(504,-48,qs),
(684,-48,o),
(880,104,o),
(880,224,qs),
(880,320,o),
(716,456,o),
(592,456,qs),
(524,456,o),
(408,408,q),
(408,412,l),
(728,668,ls),
(736,676,o),
(736,688,q),
(740,692,o),
(676,760,q),
(644,748,l),
(232,740,l),
(236,652,l),
(396,656,l),
(592,672,l),
(596,668,l),
(144,284,l),
(200,212,l),
(356,368,o),
(572,368,qs),
(668,368,o),
(784,280,o),
(784,220,qs),
(784,104,o),
(644,56,q),
(640,56,l),
(604,124,o)
);
},
{
closed = 1;
nodes = (
(500,32,ls),
(428,32,o),
(340,76,o),
(340,104,qs),
(340,136,o),
(396,136,qs),
(468,136,o),
(548,44,q),
(548,36,l)
);
}
);
vertWidth = 1024;
width = 1024;
}
);
note = uni308B;
unicode = 12427;
}
{
glyphname = "re-hira";
layers = (
{
layerId = m01;
shapes = (
{
closed = 1;
nodes = (
(1744,152,o),
(1664,152,qs),
(1576,152,o),
(1576,272,q),
(1648,992,l),
(1648,1336,o),
(1320,1336,qs),
(1056,1336,o),
(680,984,q),
(688,1088,l),
(800,1176,l),
(728,1296,l),
(688,1288,l),
(704,1608,l),
(512,1624,l),
(512,1256,l),
(160,1248,l),
(176,1064,l),
(504,1080,l),
(496,784,l),
(128,312,l),
(264,184,l),
(488,496,l),
(480,-120,l),
(672,-120,l),
(680,728,l),
(1056,1160,o),
(1320,1160,qs),
(1456,1160,o),
(1456,976,q),
(1384,272,l),
(1384,-32,o),
(1648,-32,qs),
(1872,-32,o),
(1992,368,q),
(1824,464,l)
);
}
);
vertWidth = 2048;
width = 2048;
}
);
note = uni308C;
unicode = 12428;
}
{
glyphname = "ro-hira";
layers = (
{
layerId = m01;
shapes = (
{
closed = 1;
nodes = (
(1368,-80,o),
(1744,200,o),
(1744,424,qs),
(1744,608,o),
(1440,864,o),
(1208,864,qs),
(1040,864,o),
(792,752,q),
(784,760,l),
(1424,1304,l),
(1496,1320,o),
(1496,1368,qs),
(1496,1384,o),
(1352,1504,q),
(1304,1472,l),
(432,1456,l),
(440,1272,l),
(712,1280,l),
(1160,1304,l),
(1168,1296,l),
(728,896,o),
(304,576,q),
(416,432,l),
(776,696,o),
(1168,696,qs),
(1344,696,o),
(1560,544,o),
(1560,440,qs),
(1560,96,o),
(992,96,q),
(480,136,l),
(496,-64,l),
(1008,-80,ls)
);
}
);
vertWidth = 2048;
width = 2048;
}
);
note = uni308D;
unicode = 12429;
}
{
glyphname = "wasmall-hira";
layers = (
{
layerId = m01;
shapes = (
{
closed = 1;
nodes = (
(1728,480,qs),
(1728,696,o),
(1480,952,o),
(1296,952,qs),
(1096,952,o),
(792,712,q),
(792,792,l),
(888,864,l),
(848,968,l),
(800,960,l),
(808,1232,l),
(632,1232,l),
(624,944,l),
(352,936,l),
(360,784,l),
(624,800,l),
(616,552,l),
(320,248,l),
(448,128,l),
(608,328,l),
(600,-128,l),
(776,-128,l),
(784,504,l),
(1096,784,o),
(1288,784,qs),
(1552,784,o),
(1552,480,qs),
(1552,80,o),
(1008,40,q),
(1064,-128,l),
(1728,-64,o)
);
}
);
vertWidth = 2048;
width = 2048;
}
);
note = uni308E;
unicode = 12430;
}
{
glyphname = "wa-hira";
layers = (
{
layerId = m01;
shapes = (
{
closed = 1;
nodes = (
(236,82,qs),
(236,116,o),
(199,154,o),
(169,154,qs),
(132,154,o),
(86,114,q),
(86,128,l),
(101,142,l),
(93,156,l),
(87,156,l),
(88,198,l),
(65,198,l),
(64,153,l),
(22,151,l),
(23,129,l),
(64,131,l),
(63,92,l),
(20,41,l),
(36,26,l),
(63,59,l),
(61,-13,l),
(85,-13,l),
(85,85,l),
(132,134,o),
(167,134,qs),
(214,134,o),
(214,82,qs),
(214,18,o),
(127,11,q),
(136,-11,l),
(236,-2,o)
);
}
);
vertWidth = 256;
width = 256;
}
);
note = uni308F;
unicode = 12431;
}
{
glyphname = "wi-hira";
layers = (
{
layerId = m01;
shapes = (
{
closed = 1;
nodes = (
(164,49,o),
(147,49,qs),
(131,49,o),
(110,31,o),
(110,5,o),
(134,-14,o),
(156,-14,qs),
(189,-14,o),
(229,26,o),
(229,58,qs),
(229,131,o),
(131,131,q),
(143,188,l),
(54,186,l),
(56,162,l),
(115,167,l),
(117,166,l),
(112,141,l),
(109,128,l),
(71,120,o),
(27,71,o),
(27,38,qs),
(27,-10,o),
(63,-10,qs),
(98,-10,o),
(126,109,q),
(140,109,ls),
(207,109,o),
(207,58,qs),
(207,38,o),
(198,27,q),
(195,33,o)
);
},
{
closed = 1;
nodes = (
(69,12,o),
(62,12,qs),
(57,12,o),
(48,26,o),
(48,38,qs),
(48,88,o),
(104,105,q),
(93,56,o)
);
},
{
closed = 1;
nodes = (
(174,8,o),
(156,8,qs),
(144,8,o),
(132,15,o),
(132,18,qs),
(132,29,o),
(147,29,qs),
(167,29,o),
(184,15,q),
(184,13,l)
);
}
);
vertWidth = 256;
width = 256;
}
);
note = uni3090;
unicode = 12432;
}
{
glyphname = "we-hira";
layers = (
{
layerId = m01;
shapes = (
{
closed = 1;
nodes = (
(572,184,o),
(520,60,q),
(516,60,l),
(480,160,o),
(404,160,qs),
(376,160,o),
(332,132,q),
(328,136,l),
(432,212,l),
(820,212,o),
(820,408,qs),
(820,576,o),
(576,576,qs),
(524,576,o),
(444,552,q),
(444,556,l),
(672,668,o),
(712,672,qs),
(744,680,o),
(744,696,q),
(684,764,l),
(656,756,l),
(212,748,l),
(212,664,l),
(564,692,l),
(564,688,l),
(336,552,o),
(120,456,q),
(164,380,l),
(388,508,o),
(556,508,qs),
(732,508,o),
(732,408,qs),
(732,292,o),
(512,284,q),
(544,316,o),
(544,344,qs),
(544,444,o),
(388,444,qs),
(324,444,o),
(232,376,o),
(232,336,qs),
(232,260,o),
(336,228,q),
(68,-4,l),
(132,-68,l),
(268,88,o),
(360,88,qs),
(464,88,o),
(476,-52,q),
(548,-52,l),
(584,104,o),
(708,104,qs),
(788,104,o),
(876,-76,q),
(956,-28,l),
(836,184,o)
);
},
{
closed = 1;
nodes = (
(408,288,q),
(308,300,o),
(308,336,qs),
(308,376,o),
(384,376,qs),
(456,376,o),
(456,344,qs),
(456,324,o)
);
}
);
vertWidth = 1024;
width = 1024;
}
);
note = uni3091;
unicode = 12433;
}
{
glyphname = "wo-hira";
layers = (
{
layerId = m01;
shapes = (
{
closed = 1;
nodes = (
(1296,768,l),
(1240,1032,o),
(944,1032,qs),
(800,1032,o),
(688,920,q),
(680,920,l),
(864,1176,l),
(1672,1216,l),
(1664,1392,l),
(968,1352,l),
(1064,1552,l),
(880,1608,l),
(760,1352,l),
(216,1336,l),
(216,1160,l),
(656,1168,l),
(456,824,o),
(216,552,q),
(344,440,l),
(552,704,o),
(768,864,o),
(920,864,qs),
(1096,864,o),
(1120,720,q),
(504,528,o),
(504,240,qs),
(504,64,o),
(784,-104,o),
(1192,-104,qs),
(1712,-88,l),
(1736,104,l),
(1144,72,ls),
(672,72,o),
(672,240,qs),
(672,400,o),
(1128,536,q),
(1128,232,l),
(1304,232,l),
(1304,584,l),
(1832,696,l),
(1800,872,l)
);
}
);
vertWidth = 2048;
width = 2048;
}
);
note = uni3092;
unicode = 12434;
}
{
glyphname = "n-hira";
layers = (
{
layerId = m01;
shapes = (
{
closed = 1;
nodes = (
(202,9,o),
(167,9,qs),
(149,9,o),
(149,33,qs),
(152,75,ls),
(152,116,o),
(117,116,qs),
(100,116,o),
(80,91,q),
(79,92,l),
(101,142,l),
(122,189,l),
(101,198,l),
(66,123,o),
(26,-5,q),
(47,-13,l),
(68,54,o),
(80,72,qs),
(97,94,o),
(113,94,qs),
(130,94,o),
(130,73,qs),
(127,32,ls),
(127,-12,o),
(165,-12,qs),
(220,-12,o),
(230,90,q),
(208,96,l)
);
}
);
vertWidth = 256;
width = 256;
}
);
note = uni3093;
unicode = 12435;
}
{
glyphname = "vu-hira";
layers = (
{
layerId = m01;
shapes = (
{
closed = 1;
nodes = (
(217,211,q),
(206,200,l),
(222,189,o),
(234,171,q),
(246,181,l),
(234,198,o)
);
},
{
closed = 1;
nodes = (
(67,201,q),
(64,179,l),
(134,171,o),
(172,162,q),
(177,183,l),
(142,194,o)
);
},
{
closed = 1;
nodes = (
(200,193,q),
(189,182,l),
(206,171,o),
(217,153,q),
(229,164,l),
(218,180,o)
);
},
{
closed = 1;
nodes = (
(225,72,qs),
(225,136,o),
(157,136,qs),
(101,136,o),
(31,112,q),
(38,90,l),
(107,114,o),
(159,114,qs),
(201,114,o),
(201,71,qs),
(201,42,o),
(152,5,o),
(76,-5,q),
(87,-27,l),
(225,-7,o)
);
}
);
vertWidth = 256;
width = 256;
}
);
note = uni3094;
unicode = 12436;
}
{
glyphname = "voiced-kana";
layers = (
{
layerId = m01;
shapes = (
{
closed = 1;
nodes = (
(40,218,q),
(26,209,l),
(44,191,o),
(54,170,q),
(68,179,l),
(58,200,o)
);
},
{
closed = 1;
nodes = (
(16,206,q),
(2,196,l),
(21,178,o),
(30,157,q),
(44,167,l),
(35,186,o)
);
}
);
vertWidth = 256;
width = 256;
}
);
note = uni309B;
unicode = 12443;
}
{
glyphname = "semivoiced-kana";
layers = (
{
layerId = m01;
shapes = (
{
closed = 1;
nodes = (
(30,166,qs),
(41,166,o),
(57,182,o),
(57,193,qs),
(57,203,o),
(41,219,o),
(19,219,o),
(4,203,o),
(4,193,qs),
(4,166,o)
);
},
{
closed = 1;
nodes = (
(30,205,qs),
(35,205,o),
(42,197,o),
(42,193,qs),
(42,180,o),
(18,180,o),
(18,193,qs),
(18,205,o)
);
}
);
vertWidth = 256;
width = 256;
}
);
note = uni309C;
unicode = 12444;
}
{
glyphname = "iteration-hira";
layers = (
{
layerId = m01;
shapes = (
{
closed = 1;
nodes = (
(94,168,q),
(74,162,l),
(102,81,o),
(151,58,q),
(150,56,l),
(68,31,l),
(77,12,l),
(170,42,o),
(184,42,q),
(188,64,l),
(124,81,o)
);
}
);
vertWidth = 256;
width = 256;
}
);
note = uni309D;
unicode = 12445;
}
{
glyphname = "voicediteration-hira";
layers = (
{
layerId = m01;
shapes = (
{
closed = 1;
nodes = (
(179,177,q),
(169,168,l),
(185,156,o),
(198,136,q),
(208,146,l),
(196,165,o)
);
},
{
closed = 1;
nodes = (
(94,168,q),
(74,162,l),
(102,81,o),
(151,58,q),
(150,56,l),
(68,31,l),
(77,12,l),
(170,42,o),
(184,42,q),
(188,64,l),
(124,81,o)
);
},
{
closed = 1;
nodes = (
(156,159,q),
(147,150,l),
(163,138,o),
(176,118,q),
(186,128,l),
(174,146,o)
);
}
);
vertWidth = 256;
width = 256;
}
);
note = uni309E;
unicode = 12446;
}
{
glyphname = "dblhyphen-kana";
layers = (
{
layerId = m01;
shapes = (
{
closed = 1;
nodes = (
(1488,1000,l),
(560,1000,l),
(560,856,l),
(1488,856,l)
);
},
{
closed = 1;
nodes = (
(1488,592,l),
(560,592,l),
(560,440,l),
(1488,440,l)
);
}
);
vertWidth = 2048;
width = 2048;
}
);
note = uni30A0;
unicode = 12448;
}
{
glyphname = "asmall-kata";
layers = (
{
layerId = m01;
shapes = (
{
closed = 1;
nodes = (
(215,130,qs),
(215,133,o),
(200,147,q),
(195,144,l),
(48,142,l),
(48,120,l),
(183,123,l),
(184,122,l),
(171,105,o),
(138,77,q),
(154,60,l),
(188,87,o),
(209,122,q),
(215,125,o)
);
},
{
closed = 1;
nodes = (
(112,70,ls),
(112,42,o),
(90,13,o),
(59,3,q),
(70,-18,l),
(108,-3,o),
(134,33,o),
(135,68,qs),
(135,108,l),
(112,108,l)
);
}
);
vertWidth = 256;
width = 256;
}
);
note = uni30A1;
unicode = 12449;
}
{
glyphname = "a-kata";
layers = (
{
layerId = m01;
shapes = (
{
closed = 1;
nodes = (
(1880,1360,qs),
(1880,1384,o),
(1752,1504,q),
(1704,1480,l),
(216,1464,l),
(224,1264,l),
(1608,1296,l),
(1616,1288,l),
(1400,952,o),
(1144,720,q),
(1272,568,l),
(1624,864,o),
(1832,1288,q),
(1880,1328,o)
);
},
{
closed = 1;
nodes = (
(880,736,ls),
(880,448,o),
(648,144,o),
(336,40,q),
(432,-128,l),
(800,16,o),
(1064,376,o),
(1072,720,qs),
(1080,1104,l),
(880,1104,l)
);
}
);
vertWidth = 2048;
width = 2048;
}
);
note = uni30A2;
unicode = 12450;
}
{
glyphname = "ismall-kata";
layers = (
{
layerId = m01;
shapes = (
{
closed = 1;
nodes = (
(992,824,o),
(312,488,q),
(432,344,l),
(944,640,l),
(944,-120,l),
(1136,-120,l),
(1136,776,l),
(1376,960,o),
(1544,1144,q),
(1400,1264,l)
);
}
);
vertWidth = 2048;
width = 2048;
}
);
note = uni30A3;
unicode = 12451;
}
{
glyphname = "i-kata";
layers = (
{
layerId = m01;
shapes = (
{
closed = 1;
nodes = (
(1072,1080,o),
(200,648,q),
(304,488,l),
(672,672,o),
(992,888,q),
(992,-112,l),
(1192,-112,l),
(1192,1024,l),
(1512,1256,o),
(1712,1472,q),
(1560,1600,l)
);
}
);
vertWidth = 2048;
width = 2048;
}
);
note = uni30A4;
unicode = 12452;
}
{
glyphname = "usmall-kata";
layers = (
{
layerId = m01;
shapes = (
{
closed = 1;
nodes = (
(1112,1016,l),
(1112,1248,l),
(920,1248,l),
(920,1016,l),
(440,1016,l),
(440,432,l),
(624,432,l),
(624,832,l),
(1416,832,l),
(1400,424,o),
(1112,104,o),
(696,32,q),
(792,-152,l),
(1256,-32,o),
(1608,400,o),
(1608,904,qs),
(1608,1016,l)
);
}
);
vertWidth = 2048;
width = 2048;
}
);
note = uni30A5;
unicode = 12453;
}
{
glyphname = "u-kata";
layers = (
{
layerId = m01;
shapes = (
{
closed = 1;
nodes = (
(1112,1312,l),
(1112,1608,l),
(920,1608,l),
(920,1312,l),
(296,1312,l),
(296,608,l),
(488,608,l),
(488,1120,l),
(1544,1120,l),
(1544,992,ls),
(1528,552,o),
(1144,128,o),
(648,48,q),
(744,-144,l),
(1328,-8,o),
(1752,544,o),
(1752,1184,qs),
(1752,1312,l)
);
}
);
vertWidth = 2048;
width = 2048;
}
);
note = uni30A6;
unicode = 12454;
}
{
glyphname = "esmall-kata";
layers = (
{
layerId = m01;
shapes = (
{
closed = 1;
nodes = (
(556,80,l),
(556,432,l),
(804,432,l),
(804,520,l),
(212,520,l),
(212,432,l),
(464,432,l),
(464,80,l),
(176,80,l),
(176,-12,l),
(848,-12,l),
(848,80,l)
);
}
);
vertWidth = 1024;
width = 1024;
}
);
note = uni30A7;
unicode = 12455;
}
{
glyphname = "e-kata";
layers = (
{
layerId = m01;
shapes = (
{
closed = 1;
nodes = (
(1120,216,l),
(1120,1168,l),
(1752,1168,l),
(1752,1360,l),
(296,1360,l),
(296,1168,l),
(928,1168,l),
(928,216,l),
(160,216,l),
(160,32,l),
(1888,32,l),
(1888,216,l)
);
}
);
vertWidth = 2048;
width = 2048;
}
);
note = uni30A8;
unicode = 12456;
}
{
glyphname = "osmall-kata";
layers = (
{
layerId = m01;
shapes = (
{
closed = 1;
nodes = (
(668,488,l),
(664,616,l),
(572,616,l),
(572,488,l),
(196,484,l),
(196,396,l),
(536,396,l),
(396,224,o),
(172,100,q),
(236,24,l),
(436,144,o),
(576,304,q),
(576,36,ls),
(576,24,o),
(572,24,qs),
(448,36,l),
(464,-60,l),
(576,-68,ls),
(672,-68,o),
(672,40,qs),
(668,396,l),
(852,400,l),
(852,488,l)
);
}
);
vertWidth = 1024;
width = 1024;
}
);
note = uni30A9;
unicode = 12457;
}
{
glyphname = "o-kata";
layers = (
{
layerId = m01;
shapes = (
{
closed = 1;
nodes = (
(176,158,l),
(176,199,l),
(151,199,l),
(152,158,l),
(30,157,l),
(31,134,l),
(143,135,l),
(99,79,o),
(23,36,q),
(39,17,l),
(111,61,o),
(152,110,q),
(154,17,ls),
(154,11,o),
(147,11,qs),
(112,14,l),
(116,-11,l),
(149,-14,l),
(178,-14,o),
(178,18,qs),
(176,135,l),
(233,135,l),
(233,159,l)
);
}
);
vertWidth = 256;
width = 256;
}
);
note = uni30AA;
unicode = 12458;
}
{
glyphname = "ka-kata";
layers = (
{
layerId = m01;
shapes = (
{
closed = 1;
nodes = (
(1000,1608,l),
(808,1608,l),
(800,1240,l),
(264,1248,l),
(264,1056,l),
(784,1056,l),
(728,384,o),
(200,56,q),
(336,-96,l),
(912,280,o),
(984,1056,q),
(1544,1048,l),
(1536,520,ls),
(1520,256,o),
(1432,112,o),
(1320,112,q),
(1024,152,l),
(1056,-56,l),
(1360,-80,ls),
(1672,-80,o),
(1712,368,q),
(1744,1240,l),
(992,1240,l)
);
}
);
vertWidth = 2048;
width = 2048;
}
);
note = uni30AB;
unicode = 12459;
}
{
glyphname = "ga-kata";
layers = (
{
layerId = m01;
shapes = (
{
closed = 1;
nodes = (
(1624,1720,q),
(1536,1624,l),
(1704,1512,o),
(1808,1368,q),
(1912,1464,l),
(1808,1600,o)
);
},
{
closed = 1;
nodes = (
(1440,1616,q),
(1344,1520,l),
(1512,1408,o),
(1616,1256,q),
(1720,1352,l),
(1608,1496,o)
);
},
{
closed = 1;
nodes = (
(1000,1608,l),
(808,1608,l),
(800,1240,l),
(264,1248,l),
(264,1056,l),
(784,1056,l),
(728,384,o),
(200,56,q),
(336,-96,l),
(912,280,o),
(984,1056,q),
(1544,1048,l),
(1536,520,ls),
(1520,256,o),
(1432,112,o),
(1320,112,q),
(1024,152,l),
(1056,-56,l),
(1360,-80,ls),
(1672,-80,o),
(1712,368,q),
(1744,1240,l),
(992,1240,l)
);
}
);
vertWidth = 2048;
width = 2048;
}
);
note = uni30AC;
unicode = 12460;
}
{
glyphname = "ki-kata";
layers = (
{
layerId = m01;
shapes = (
{
closed = 1;
nodes = (
(564,364,l),
(544,544,l),
(864,564,l),
(860,656,l),
(532,640,l),
(516,800,l),
(424,796,l),
(440,632,l),
(120,612,l),
(124,520,l),
(452,540,l),
(468,360,l),
(96,340,l),
(104,244,l),
(480,264,l),
(516,-68,l),
(612,-60,l),
(576,272,l),
(924,292,l),
(920,388,l)
);
}
);
vertWidth = 1024;
width = 1024;
}
);
note = uni30AD;
unicode = 12461;
}
{
glyphname = "gi-kata";
layers = (
{
layerId = m01;
shapes = (
{
closed = 1;
nodes = (
(884,872,q),
(836,828,l),
(916,768,o),
(960,684,q),
(1016,728,l),
(968,804,o)
);
},
{
closed = 1;
nodes = (
(776,844,q),
(728,800,l),
(808,736,o),
(852,656,q),
(904,700,l),
(864,776,o)
);
},
{
closed = 1;
nodes = (
(564,364,l),
(544,544,l),
(848,564,l),
(840,656,l),
(532,640,l),
(516,800,l),
(424,796,l),
(440,632,l),
(120,612,l),
(124,520,l),
(452,540,l),
(468,360,l),
(96,340,l),
(104,244,l),
(480,264,l),
(516,-68,l),
(612,-60,l),
(576,272,l),
(908,292,l),
(904,388,l)
);
}
);
vertWidth = 1024;
width = 1024;
}
);
note = uni30AE;
unicode = 12462;
}
{
glyphname = "ku-kata";
layers = (
{
layerId = m01;
shapes = (
{
closed = 1;
nodes = (
(214,156,o),
(196,172,q),
(190,167,l),
(106,166,l),
(118,195,l),
(95,203,l),
(70,132,o),
(28,92,q),
(45,76,l),
(76,108,o),
(95,143,q),
(185,145,l),
(187,143,l),
(171,88,o),
(115,23,o),
(67,2,q),
(82,-19,l),
(136,6,o),
(192,77,o),
(210,146,q),
(214,150,o)
);
}
);
vertWidth = 256;
width = 256;
}
);
note = uni30AF;
unicode = 12463;
}
{
glyphname = "gu-kata";
layers = (
{
layerId = m01;
shapes = (
{
closed = 1;
nodes = (
(876,860,q),
(832,812,l),
(912,756,o),
(968,684,q),
(1016,728,l),
(960,804,o)
);
},
{
closed = 1;
nodes = (
(840,624,o),
(768,688,q),
(744,668,l),
(408,664,l),
(456,780,l),
(364,812,l),
(264,528,o),
(96,368,q),
(168,304,l),
(292,432,o),
(364,572,q),
(724,580,l),
(732,572,l),
(668,348,o),
(444,92,o),
(252,8,q),
(312,-76,l),
(528,24,o),
(756,312,o),
(824,584,q),
(840,600,o)
);
},
{
closed = 1;
nodes = (
(788,800,q),
(744,752,l),
(824,696,o),
(876,620,q),
(928,668,l),
(884,732,o)
);
}
);
vertWidth = 1024;
width = 1024;
}
);
note = uni30B0;
unicode = 12464;
}
{
glyphname = "ke-kata";
layers = (
{
layerId = m01;
shapes = (
{
closed = 1;
nodes = (
(91,153,l),
(106,194,l),
(82,203,l),
(63,136,o),
(21,93,q),
(38,76,l),
(62,99,o),
(79,129,q),
(144,130,l),
(142,93,ls),
(135,33,o),
(59,7,q),
(71,-15,l),
(123,4,o),
(168,61,o),
(169,107,qs),
(170,130,l),
(235,130,l),
(235,154,l)
);
}
);
vertWidth = 256;
width = 256;
}
);
note = uni30B1;
unicode = 12465;
}
{
glyphname = "ge-kata";
layers = (
{
layerId = m01;
shapes = (
{
closed = 1;
nodes = (
(1696,1704,q),
(1592,1616,l),
(1752,1488,o),
(1848,1328,q),
(1952,1416,l),
(1864,1568,o)
);
},
{
closed = 1;
nodes = (
(1488,1632,q),
(1392,1536,l),
(1552,1408,o),
(1640,1256,q),
(1752,1344,l),
(1656,1496,o)
);
},
{
closed = 1;
nodes = (
(728,1224,l),
(848,1552,l),
(656,1624,l),
(504,1088,o),
(168,744,q),
(304,608,l),
(496,792,o),
(632,1032,q),
(1152,1040,l),
(1136,744,ls),
(1080,264,o),
(472,56,q),
(568,-120,l),
(984,32,o),
(1344,488,o),
(1352,856,qs),
(1360,1040,l),
(1880,1040,l),
(1880,1232,l)
);
}
);
vertWidth = 2048;
width = 2048;
}
);
note = uni30B2;
unicode = 12466;
}
{
glyphname = "ko-kata";
layers = (
{
layerId = m01;
shapes = (
{
closed = 1;
nodes = (
(344,1352,l),
(344,1160,l),
(1536,1160,l),
(1536,240,l),
(320,240,l),
(320,56,l),
(1536,56,l),
(1536,-80,l),
(1728,-80,l),
(1728,1352,l)
);
}
);
vertWidth = 2048;
width = 2048;
}
);
note = uni30B3;
unicode = 12467;
}
{
glyphname = "go-kata";
layers = (
{
layerId = m01;
shapes = (
{
closed = 1;
nodes = (
(1800,1760,q),
(1704,1672,l),
(1832,1552,o),
(1928,1400,q),
(2040,1488,l),
(1936,1648,o)
);
},
{
closed = 1;
nodes = (
(1656,1632,q),
(1552,1544,l),
(1712,1416,o),
(1792,1264,q),
(1896,1352,l),
(1816,1504,o)
);
},
{
closed = 1;
nodes = (
(312,1352,l),
(312,1160,l),
(1496,1160,l),
(1496,240,l),
(288,240,l),
(288,56,l),
(1496,56,l),
(1496,-80,l),
(1696,-80,l),
(1696,1352,l)
);
}
);
vertWidth = 2048;
width = 2048;
}
);
note = uni30B4;
unicode = 12468;
}
{
glyphname = "sa-kata";
layers = (
{
layerId = m01;
shapes = (
{
closed = 1;
nodes = (
(1536,1168,l),
(1536,1592,l),
(1336,1592,l),
(1344,1168,l),
(712,1168,l),
(712,1568,l),
(520,1568,l),
(520,1168,l),
(152,1168,l),
(152,976,l),
(520,976,l),
(520,424,l),
(712,424,l),
(712,976,l),
(1344,976,l),
(1344,808,ls),
(1344,496,o),
(1024,152,o),
(608,64,q),
(736,-112,l),
(1536,104,o),
(1536,736,qs),
(1536,976,l),
(1896,976,l),
(1896,1168,l)
);
}
);
vertWidth = 2048;
width = 2048;
}
);
note = uni30B5;
unicode = 12469;
}
{
glyphname = "za-kata";
layers = (
{
layerId = m01;
shapes = (
{
closed = 1;
nodes = (
(224,219,q),
(212,208,l),
(232,192,o),
(242,174,q),
(256,185,l),
(245,204,o)
);
},
{
closed = 1;
nodes = (
(207,202,q),
(195,190,l),
(209,179,o),
(224,156,q),
(238,167,l),
(225,188,o)
);
},
{
closed = 1;
nodes = (
(192,146,l),
(192,199,l),
(167,199,l),
(168,146,l),
(89,146,l),
(89,196,l),
(65,196,l),
(65,146,l),
(19,146,l),
(19,122,l),
(65,122,l),
(65,53,l),
(89,53,l),
(89,122,l),
(168,122,l),
(168,101,ls),
(168,62,o),
(128,19,o),
(76,8,q),
(92,-14,l),
(192,13,o),
(192,92,qs),
(192,122,l),
(237,122,l),
(237,146,l)
);
}
);
vertWidth = 256;
width = 256;
}
);
note = uni30B6;
unicode = 12470;
}
{
glyphname = "si-kata";
layers = (
{
layerId = m01;
shapes = (
{
closed = 1;
nodes = (
(220,772,q),
(180,684,l),
(344,624,o),
(456,556,q),
(512,640,l),
(392,708,o)
);
},
{
closed = 1;
nodes = (
(712,344,o),
(412,100,o),
(148,28,q),
(192,-64,l),
(464,16,o),
(792,280,o),
(916,520,q),
(836,580,l)
);
},
{
closed = 1;
nodes = (
(132,504,q),
(108,416,l),
(292,360,o),
(396,308,q),
(428,400,l),
(284,472,o)
);
}
);
vertWidth = 1024;
width = 1024;
}
);
note = uni30B7;
unicode = 12471;
}
{
glyphname = "zi-kata";
layers = (
{
layerId = m01;
shapes = (
{
closed = 1;
nodes = (
(214,213,q),
(202,202,l),
(222,186,o),
(233,166,q),
(246,177,l),
(235,197,o)
);
},
{
closed = 1;
nodes = (
(185,203,q),
(173,191,l),
(193,175,o),
(204,156,q),
(218,167,l),
(207,185,o)
);
},
{
closed = 1;
nodes = (
(55,193,q),
(45,171,l),
(86,156,o),
(114,139,q),
(128,160,l),
(98,177,o)
);
},
{
closed = 1;
nodes = (
(178,86,o),
(103,25,o),
(37,7,q),
(48,-16,l),
(116,4,o),
(198,70,o),
(229,130,q),
(209,145,l)
);
},
{
closed = 1;
nodes = (
(33,126,q),
(27,104,l),
(73,90,o),
(99,77,q),
(107,100,l),
(71,118,o)
);
}
);
vertWidth = 256;
width = 256;
}
);
note = uni30B8;
unicode = 12472;
}
{
glyphname = "su-kata";
layers = (
{
layerId = m01;
shapes = (
{
closed = 1;
nodes = (
(153,80,q),
(169,106,l),
(190,152,l),
(191,156,o),
(198,163,o),
(198,169,o),
(178,183,q),
(173,179,l),
(49,179,l),
(49,155,l),
(88,155,l),
(163,157,l),
(165,156,l),
(130,56,o),
(21,4,q),
(37,-16,l),
(102,17,o),
(139,62,q),
(171,35,o),
(215,-18,q),
(235,-2,l),
(194,47,o)
);
}
);
vertWidth = 256;
width = 256;
}
);
note = uni30B9;
unicode = 12473;
}
{
glyphname = "zu-kata";
layers = (
{
layerId = m01;
shapes = (
{
closed = 1;
nodes = (
(888,872,q),
(840,828,l),
(916,768,o),
(964,688,q),
(1020,732,l),
(972,804,o)
);
},
{
closed = 1;
nodes = (
(800,812,q),
(748,768,l),
(828,704,o),
(876,624,q),
(928,668,l),
(888,740,o)
);
},
{
closed = 1;
nodes = (
(612,320,q),
(676,424,l),
(760,608,l),
(764,624,o),
(792,652,o),
(792,676,o),
(712,732,q),
(692,716,l),
(196,716,l),
(196,620,l),
(352,620,l),
(652,628,l),
(660,624,l),
(520,224,o),
(84,16,q),
(148,-64,l),
(408,68,o),
(556,248,q),
(684,140,o),
(860,-72,q),
(940,-8,l),
(776,188,o)
);
}
);
vertWidth = 1024;
width = 1024;
}
);
note = uni30BA;
unicode = 12474;
}
{
glyphname = "se-kata";
layers = (
{
layerId = m01;
shapes = (
{
closed = 1;
nodes = (
(234,135,qs),
(234,138,o),
(215,155,q),
(209,152,l),
(98,144,l),
(99,199,l),
(74,200,l),
(74,142,l),
(22,138,l),
(25,113,l),
(74,118,l),
(73,34,ls),
(73,7,o),
(96,-12,o),
(145,-12,qs),
(230,-10,l),
(233,16,l),
(158,12,l),
(102,14,l),
(97,16,o),
(97,32,qs),
(98,120,l),
(198,129,l),
(199,128,l),
(177,94,o),
(142,61,q),
(159,43,l),
(201,82,o),
(226,126,q),
(234,130,o)
);
}
);
vertWidth = 256;
width = 256;
}
);
note = uni30BB;
unicode = 12475;
}
{
glyphname = "ze-kata";
layers = (
{
layerId = m01;
shapes = (
{
closed = 1;
nodes = (
(221,218,q),
(209,207,l),
(228,192,o),
(240,172,q),
(253,183,l),
(243,200,o)
);
},
{
closed = 1;
nodes = (
(196,205,q),
(184,195,l),
(203,179,o),
(215,160,q),
(228,170,l),
(217,188,o)
);
},
{
closed = 1;
nodes = (
(234,135,qs),
(234,138,o),
(215,155,q),
(209,152,l),
(98,144,l),
(99,199,l),
(74,200,l),
(74,142,l),
(22,138,l),
(25,113,l),
(74,118,l),
(73,34,ls),
(73,7,o),
(96,-12,o),
(145,-12,qs),
(230,-10,l),
(233,16,l),
(158,12,l),
(102,14,l),
(97,16,o),
(97,32,qs),
(98,120,l),
(198,129,l),
(199,128,l),
(177,94,o),
(142,61,q),
(159,43,l),
(201,82,o),
(226,126,q),
(234,130,o)
);
}
);
vertWidth = 256;
width = 256;
}
);
note = uni30BC;
unicode = 12476;
}
{
glyphname = "so-kata";
layers = (
{
layerId = m01;
shapes = (
{
closed = 1;
nodes = (
(190,108,o),
(118,23,o),
(48,7,q),
(62,-15,l),
(206,18,o),
(227,184,q),
(200,192,l)
);
},
{
closed = 1;
nodes = (
(50,185,q),
(29,172,l),
(54,139,o),
(75,83,q),
(99,96,l),
(80,145,o)
);
}
);
vertWidth = 256;
width = 256;
}
);
note = uni30BD;
unicode = 12477;
}
{
glyphname = "zo-kata";
layers = (
{
layerId = m01;
shapes = (
{
closed = 1;
nodes = (
(220,220,q),
(209,208,l),
(226,196,o),
(241,176,q),
(254,188,l),
(241,206,o)
);
},
{
closed = 1;
nodes = (
(198,206,q),
(187,194,l),
(206,180,o),
(219,162,q),
(231,174,l),
(218,193,o)
);
},
{
closed = 1;
nodes = (
(53,180,q),
(33,167,l),
(49,142,o),
(72,85,q),
(97,97,l),
(81,137,o)
);
},
{
closed = 1;
nodes = (
(181,89,o),
(120,20,o),
(48,7,q),
(61,-15,l),
(132,-1,o),
(206,82,o),
(216,162,q),
(191,171,l)
);
}
);
vertWidth = 256;
width = 256;
}
);
note = uni30BE;
unicode = 12478;
}
{
glyphname = "ta-kata";
layers = (
{
layerId = m01;
shapes = (
{
closed = 1;
nodes = (
(1808,1280,qs),
(1808,1296,o),
(1664,1408,q),
(1608,1376,l),
(984,1376,l),
(1064,1552,l),
(880,1632,l),
(712,1200,o),
(240,760,q),
(368,624,l),
(760,984,o),
(896,1200,q),
(1552,1200,l),
(1568,1184,l),
(1440,824,o),
(1352,696,q),
(848,984,l),
(752,824,l),
(992,704,o),
(1240,528,q),
(976,216,o),
(528,24,q),
(640,-144,l),
(1104,56,o),
(1632,680,o),
(1776,1216,q),
(1808,1240,o)
);
}
);
vertWidth = 2048;
width = 2048;
}
);
note = uni30BF;
unicode = 12479;
}
{
glyphname = "da-kata";
layers = (
{
layerId = m01;
shapes = (
{
closed = 1;
nodes = (
(1792,1760,q),
(1688,1672,l),
(1848,1544,o),
(1928,1400,q),
(2040,1488,l),
(1960,1632,o)
);
},
{
closed = 1;
nodes = (
(1616,1648,q),
(1520,1552,l),
(1672,1432,o),
(1760,1288,q),
(1864,1376,l),
(1784,1512,o)
);
},
{
closed = 1;
nodes = (
(1720,1280,qs),
(1720,1296,o),
(1576,1408,q),
(1520,1376,l),
(896,1376,l),
(976,1552,l),
(792,1632,l),
(624,1200,o),
(144,760,q),
(280,624,l),
(680,984,o),
(800,1200,q),
(1464,1200,l),
(1480,1184,l),
(1384,896,o),
(1264,696,q),
(752,984,l),
(656,824,l),
(904,704,o),
(1144,528,q),
(888,216,o),
(432,24,q),
(544,-144,l),
(1016,56,o),
(1536,680,o),
(1680,1216,q),
(1720,1240,o)
);
}
);
vertWidth = 2048;
width = 2048;
}
);
note = uni30C0;
unicode = 12480;
}
{
glyphname = "ti-kata";
layers = (
{
layerId = m01;
shapes = (
{
closed = 1;
nodes = (
(142,114,l),
(142,157,l),
(209,174,l),
(196,194,l),
(144,176,o),
(38,169,q),
(44,146,l),
(118,154,l),
(118,114,l),
(23,114,l),
(23,91,l),
(118,91,l),
(118,55,o),
(86,18,o),
(46,8,q),
(58,-15,l),
(107,3,o),
(142,48,o),
(142,91,q),
(233,91,l),
(233,114,l)
);
}
);
vertWidth = 256;
width = 256;
}
);
note = uni30C1;
unicode = 12481;
}
{
glyphname = "di-kata";
layers = (
{
layerId = m01;
shapes = (
{
closed = 1;
nodes = (
(226,220,q),
(213,210,l),
(231,193,o),
(241,175,q),
(255,184,l),
(247,202,o)
);
},
{
closed = 1;
nodes = (
(206,202,q),
(193,192,l),
(193,193,l),
(141,175,o),
(38,169,q),
(44,146,l),
(118,154,l),
(118,114,l),
(23,114,l),
(23,91,l),
(118,91,l),
(118,56,o),
(87,18,o),
(46,8,q),
(58,-15,l),
(108,3,o),
(142,48,o),
(142,91,q),
(234,91,l),
(234,114,l),
(142,114,l),
(142,157,l),
(183,164,o),
(206,173,q),
(194,190,l),
(212,174,o),
(220,156,q),
(235,166,l),
(226,185,o)
);
}
);
vertWidth = 256;
width = 256;
}
);
note = uni30C2;
unicode = 12482;
}
{
glyphname = "tusmall-kata";
layers = (
{
layerId = m01;
shapes = (
{
closed = 1;
nodes = (
(113,148,q),
(93,136,l),
(111,108,o),
(123,78,q),
(144,89,l),
(135,113,o)
);
},
{
closed = 1;
nodes = (
(178,81,l),
(164,23,o),
(80,6,q),
(91,-17,l),
(139,-4,o),
(185,30,o),
(206,77,o),
(212,140,q),
(187,144,l)
);
},
{
closed = 1;
nodes = (
(64,129,q),
(44,119,l),
(62,93,o),
(74,61,q),
(96,72,l),
(80,109,o)
);
}
);
vertWidth = 256;
width = 256;
}
);
note = uni30C3;
unicode = 12483;
}
{
glyphname = "tu-kata";
layers = (
{
layerId = m01;
shapes = (
{
closed = 1;
nodes = (
(696,1392,l),
(1000,824,l),
(1168,920,l),
(856,1488,l)
);
},
{
closed = 1;
nodes = (
(1552,688,o),
(1096,176,o),
(560,40,q),
(656,-144,l),
(1272,40,o),
(1752,640,o),
(1848,1352,q),
(1656,1384,l)
);
},
{
closed = 1;
nodes = (
(192,1216,l),
(504,648,l),
(672,752,l),
(352,1312,l)
);
}
);
vertWidth = 2048;
width = 2048;
}
);
note = uni30C4;
unicode = 12484;
}
{
glyphname = "du-kata";
layers = (
{
layerId = m01;
shapes = (
{
closed = 1;
nodes = (
(220,219,q),
(209,207,l),
(229,193,o),
(241,176,q),
(254,188,l),
(243,205,o)
);
},
{
closed = 1;
nodes = (
(204,200,q),
(193,187,l),
(214,174,o),
(226,156,q),
(238,169,l),
(227,185,o)
);
},
{
closed = 1;
nodes = (
(87,174,l),
(125,103,l),
(146,115,l),
(107,186,l)
);
},
{
closed = 1;
nodes = (
(24,152,l),
(64,81,l),
(84,94,l),
(45,164,l)
);
},
{
closed = 1;
nodes = (
(190,92,o),
(124,18,o),
(63,5,q),
(75,-18,l),
(142,-1,o),
(213,81,o),
(224,158,q),
(199,163,l)
);
}
);
vertWidth = 256;
width = 256;
}
);
note = uni30C5;
unicode = 12485;
}
{
glyphname = "te-kata";
layers = (
{
layerId = m01;
shapes = (
{
closed = 1;
nodes = (
(184,736,l),
(184,644,l),
(816,644,l),
(816,736,l)
);
},
{
closed = 1;
nodes = (
(100,496,l),
(100,400,l),
(472,400,l),
(472,224,o),
(376,80,o),
(192,20,q),
(256,-64,l),
(452,8,o),
(576,196,o),
(576,400,q),
(924,400,l),
(924,496,l)
);
}
);
vertWidth = 1024;
width = 1024;
}
);
note = uni30C6;
unicode = 12486;
}
{
glyphname = "de-kata";
layers = (
{
layerId = m01;
shapes = (
{
closed = 1;
nodes = (
(908,880,q),
(856,836,l),
(928,772,o),
(964,696,q),
(1024,736,l),
(988,808,o)
);
},
{
closed = 1;
nodes = (
(828,820,q),
(776,780,l),
(852,712,o),
(888,636,q),
(944,676,l),
(908,748,o)
);
},
{
closed = 1;
nodes = (
(184,736,l),
(184,644,l),
(808,644,l),
(808,736,l)
);
},
{
closed = 1;
nodes = (
(100,496,l),
(100,400,l),
(472,400,l),
(472,224,o),
(376,80,o),
(192,20,q),
(256,-64,l),
(452,8,o),
(576,196,o),
(576,400,q),
(924,400,l),
(924,496,l)
);
}
);
vertWidth = 1024;
width = 1024;
}
);
note = uni30C7;
unicode = 12487;
}
{
glyphname = "to-kata";
layers = (
{
layerId = m01;
shapes = (
{
closed = 1;
nodes = (
(110,126,q),
(110,199,l),
(86,199,l),
(86,-15,l),
(110,-15,l),
(110,102,l),
(163,91,o),
(215,72,q),
(224,93,l),
(176,113,o)
);
}
);
vertWidth = 256;
width = 256;
}
);
note = uni30C8;
unicode = 12488;
}
{
glyphname = "do-kata";
layers = (
{
layerId = m01;
shapes = (
{
closed = 1;
nodes = (
(880,1008,q),
(880,1592,l),
(680,1592,l),
(680,-120,l),
(880,-120,l),
(880,816,l),
(1296,728,o),
(1712,576,q),
(1792,744,l),
(1408,904,o)
);
},
{
closed = 1;
nodes = (
(1576,1536,q),
(1472,1456,l),
(1624,1312,o),
(1696,1168,q),
(1800,1248,l),
(1736,1392,o)
);
},
{
closed = 1;
nodes = (
(1400,1416,q),
(1296,1336,l),
(1448,1200,o),
(1520,1056,q),
(1632,1136,l),
(1560,1280,o)
);
}
);
vertWidth = 2048;
width = 2048;
}
);
note = uni30C9;
unicode = 12489;
}
{
glyphname = "na-kata";
layers = (
{
layerId = m01;
shapes = (
{
closed = 1;
nodes = (
(1128,1160,l),
(1120,1584,l),
(928,1584,l),
(936,1160,l),
(176,1160,l),
(176,976,l),
(944,976,l),
(952,792,ls),
(952,464,o),
(704,160,o),
(320,72,q),
(424,-112,l),
(840,16,o),
(1136,392,o),
(1136,976,q),
(1872,976,l),
(1872,1160,l)
);
}
);
vertWidth = 2048;
width = 2048;
}
);
note = uni30CA;
unicode = 12490;
}
{
glyphname = "ni-kata";
layers = (
{
layerId = m01;
shapes = (
{
closed = 1;
nodes = (
(328,1344,l),
(328,1160,l),
(1704,1160,l),
(1704,1344,l)
);
},
{
closed = 1;
nodes = (
(192,264,l),
(192,80,l),
(1856,80,l),
(1856,264,l)
);
}
);
vertWidth = 2048;
width = 2048;
}
);
note = uni30CB;
unicode = 12491;
}
{
glyphname = "nu-kata";
layers = (
{
layerId = m01;
shapes = (
{
closed = 1;
nodes = (
(1336,632,q),
(1512,896,o),
(1640,1280,q),
(1688,1304,o),
(1688,1344,qs),
(1688,1368,o),
(1536,1504,q),
(1480,1464,l),
(408,1456,l),
(408,1264,l),
(1440,1288,l),
(1448,1280,l),
(1352,1024,o),
(1176,744,q),
(616,1056,l),
(520,896,l),
(800,768,o),
(1064,592,q),
(760,216,o),
(256,32,q),
(384,-136,l),
(912,96,o),
(1224,480,q),
(1488,288,o),
(1720,64,q),
(1856,208,l),
(1648,416,o)
);
}
);
vertWidth = 2048;
width = 2048;
}
);
note = uni30CC;
unicode = 12492;
}
{
glyphname = "ne-kata";
layers = (
{
layerId = m01;
shapes = (
{
closed = 1;
nodes = (
(824,596,qs),
(824,608,o),
(760,672,q),
(728,656,l),
(552,652,l),
(552,804,l),
(452,804,l),
(452,652,l),
(156,652,l),
(156,564,l),
(400,564,l),
(672,576,l),
(676,572,l),
(612,500,o),
(272,288,o),
(76,208,q),
(140,128,l),
(304,196,o),
(456,292,q),
(456,-44,l),
(556,-44,l),
(556,360,l),
(688,456,o),
(788,564,q),
(824,572,o)
);
},
{
closed = 1;
nodes = (
(652,376,q),
(600,300,l),
(732,236,o),
(908,116,q),
(964,196,l),
(816,300,o)
);
}
);
vertWidth = 1024;
width = 1024;
}
);
note = uni30CD;
unicode = 12493;
}
{
glyphname = "no-kata";
layers = (
{
layerId = m01;
shapes = (
{
closed = 1;
nodes = (
(1256,824,o),
(864,192,o),
(480,16,q),
(608,-136,l),
(1016,72,o),
(1456,776,o),
(1560,1496,q),
(1368,1544,l)
);
}
);
vertWidth = 2048;
width = 2048;
}
);
note = uni30CE;
unicode = 12494;
}
{
glyphname = "ha-kata";
layers = (
{
layerId = m01;
shapes = (
{
closed = 1;
nodes = (
(1424,1528,q),
(1232,1504,l),
(1304,456,o),
(1760,-112,q),
(1912,32,l),
(1480,608,o)
);
},
{
closed = 1;
nodes = (
(584,592,o),
(128,8,q),
(280,-120,l),
(760,512,o),
(768,1512,q),
(584,1520,l)
);
}
);
vertWidth = 2048;
width = 2048;
}
);
note = uni30CF;
unicode = 12495;
}
{
glyphname = "ba-kata";
layers = (
{
layerId = m01;
shapes = (
{
closed = 1;
nodes = (
(1808,1744,q),
(1696,1664,l),
(1840,1520,o),
(1920,1352,q),
(2032,1432,l),
(1960,1584,o)
);
},
{
closed = 1;
nodes = (
(1616,1640,q),
(1504,1560,l),
(1656,1416,o),
(1728,1248,q),
(1840,1328,l),
(1768,1496,o)
);
},
{
closed = 1;
nodes = (
(1424,1528,q),
(1232,1504,l),
(1304,456,o),
(1760,-112,q),
(1912,32,l),
(1480,608,o)
);
},
{
closed = 1;
nodes = (
(576,584,o),
(128,8,q),
(280,-120,l),
(760,512,o),
(768,1512,q),
(576,1520,l)
);
}
);
vertWidth = 2048;
width = 2048;
}
);
note = uni30D0;
unicode = 12496;
}
{
glyphname = "pa-kata";
layers = (
{
layerId = m01;
shapes = (
{
closed = 1;
nodes = (
(217,155,qs),
(228,155,o),
(244,170,o),
(244,182,qs),
(244,192,o),
(228,208,o),
(206,208,o),
(191,192,o),
(191,182,qs),
(191,155,o)
);
},
{
closed = 1;
nodes = (
(217,194,qs),
(222,194,o),
(229,186,o),
(229,182,qs),
(229,169,o),
(205,169,o),
(205,182,qs),
(205,194,o)
);
},
{
closed = 1;
nodes = (
(178,191,q),
(154,188,l),
(163,57,o),
(220,-14,q),
(239,4,l),
(185,76,o)
);
},
{
closed = 1;
nodes = (
(73,73,o),
(16,1,q),
(35,-15,l),
(95,65,o),
(96,189,q),
(73,190,l)
);
}
);
vertWidth = 256;
width = 256;
}
);
note = uni30D1;
unicode = 12497;
}
{
glyphname = "hi-kata";
layers = (
{
layerId = m01;
shapes = (
{
closed = 1;
nodes = (
(376,60,o),
(320,92,o),
(320,172,qs),
(320,368,l),
(664,472,o),
(868,584,q),
(808,668,l),
(640,560,o),
(320,468,q),
(324,776,l),
(228,776,l),
(224,168,ls),
(224,44,o),
(316,-36,o),
(532,-36,qs),
(904,-20,l),
(908,84,l),
(524,60,l)
);
}
);
vertWidth = 1024;
width = 1024;
}
);
note = uni30D2;
unicode = 12498;
}
{
glyphname = "bi-kata";
layers = (
{
layerId = m01;
shapes = (
{
closed = 1;
nodes = (
(880,876,q),
(832,832,l),
(912,772,o),
(960,692,q),
(1012,736,l),
(972,808,o)
);
},
{
closed = 1;
nodes = (
(792,816,q),
(744,772,l),
(820,712,o),
(868,628,q),
(920,672,l),
(876,752,o)
);
},
{
closed = 1;
nodes = (
(368,60,o),
(320,92,o),
(320,172,qs),
(320,368,l),
(664,472,o),
(868,584,q),
(808,668,l),
(636,560,o),
(320,468,q),
(320,776,l),
(228,776,l),
(224,168,ls),
(224,44,o),
(316,-36,o),
(532,-36,qs),
(904,-20,l),
(904,84,l),
(524,60,l)
);
}
);
vertWidth = 1024;
width = 1024;
}
);
note = uni30D3;
unicode = 12499;
}
{
glyphname = "pi-kata";
layers = (
{
layerId = m01;
shapes = (
{
closed = 1;
nodes = (
(214,162,o),
(236,162,o),
(251,177,o),
(251,199,o),
(236,215,o),
(214,215,o),
(199,199,o),
(199,177,o)
);
},
{
closed = 1;
nodes = (
(225,200,qs),
(238,200,o),
(238,176,o),
(225,176,qs),
(213,176,o),
(213,200,o)
);
},
{
closed = 1;
nodes = (
(92,15,o),
(80,23,o),
(80,43,qs),
(80,92,l),
(166,118,o),
(217,146,q),
(202,167,l),
(159,140,o),
(80,117,q),
(80,194,l),
(57,194,l),
(56,42,ls),
(56,11,o),
(79,-9,o),
(133,-9,qs),
(226,-5,l),
(226,21,l),
(131,15,l)
);
}
);
vertWidth = 256;
width = 256;
}
);
note = uni30D4;
unicode = 12500;
}
{
glyphname = "hu-kata";
layers = (
{
layerId = m01;
shapes = (
{
closed = 1;
nodes = (
(884,644,qs),
(884,656,o),
(792,720,q),
(768,704,l),
(156,700,l),
(156,600,l),
(756,608,l),
(708,344,o),
(476,92,o),
(196,20,q),
(248,-68,l),
(532,4,o),
(808,308,o),
(860,608,q),
(884,624,o)
);
}
);
vertWidth = 1024;
width = 1024;
}
);
note = uni30D5;
unicode = 12501;
}
{
glyphname = "bu-kata";
layers = (
{
layerId = m01;
shapes = (
{
closed = 1;
nodes = (
(904,876,q),
(856,832,l),
(924,780,o),
(968,712,q),
(1020,756,l),
(980,824,o)
);
},
{
closed = 1;
nodes = (
(836,820,q),
(788,772,l),
(860,720,o),
(900,652,q),
(952,700,l),
(916,764,o)
);
},
{
closed = 1;
nodes = (
(884,644,qs),
(884,656,o),
(792,720,q),
(768,704,l),
(156,700,l),
(156,600,l),
(756,608,l),
(708,344,o),
(476,92,o),
(196,20,q),
(248,-68,l),
(532,4,o),
(808,308,o),
(860,608,q),
(884,624,o)
);
}
);
vertWidth = 1024;
width = 1024;
}
);
note = uni30D6;
unicode = 12502;
}
{
glyphname = "pu-kata";
layers = (
{
layerId = m01;
shapes = (
{
closed = 1;
nodes = (
(1976,1536,qs),
(1976,1624,o),
(1848,1752,o),
(1672,1752,o),
(1552,1624,o),
(1552,1536,qs),
(1552,1480,o),
(1576,1432,q),
(1544,1408,l),
(312,1400,l),
(312,1200,l),
(1512,1216,l),
(1424,688,o),
(952,184,o),
(400,40,q),
(496,-136,l),
(1072,8,o),
(1624,616,o),
(1720,1216,q),
(1776,1248,o),
(1776,1288,q),
(1744,1328,l),
(1976,1328,o)
);
},
{
closed = 1;
nodes = (
(1760,1632,qs),
(1864,1632,o),
(1864,1440,o),
(1760,1440,qs),
(1664,1440,o),
(1664,1632,o)
);
}
);
vertWidth = 2048;
width = 2048;
}
);
note = uni30D7;
unicode = 12503;
}
{
glyphname = "he-kata";
layers = (
{
layerId = m01;
shapes = (
{
closed = 1;
nodes = (
(444,644,o),
(404,644,qs),
(372,644,o),
(348,616,qs),
(64,296,l),
(144,224,l),
(376,508,ls),
(404,544,o),
(412,544,q),
(896,28,l),
(960,108,l),
(516,568,ls)
);
}
);
vertWidth = 1024;
width = 1024;
}
);
note = uni30D8;
unicode = 12504;
}
{
glyphname = "be-kata";
layers = (
{
layerId = m01;
shapes = (
{
closed = 1;
nodes = (
(187,192,q),
(176,181,l),
(195,166,o),
(208,146,q),
(220,157,l),
(210,175,o)
);
},
{
closed = 1;
nodes = (
(165,176,q),
(153,165,l),
(173,149,o),
(185,130,q),
(198,141,l),
(187,159,o)
);
},
{
closed = 1;
nodes = (
(111,161,o),
(101,161,qs),
(93,161,o),
(87,154,qs),
(16,74,l),
(36,56,l),
(94,127,ls),
(101,136,o),
(103,136,q),
(224,7,l),
(240,27,l),
(129,142,ls)
);
}
);
vertWidth = 256;
width = 256;
}
);
note = uni30D9;
unicode = 12505;
}
{
glyphname = "pe-kata";
layers = (
{
layerId = m01;
shapes = (
{
closed = 1;
nodes = (
(1328,1120,o),
(1416,1120,qs),
(1632,1120,o),
(1632,1328,qs),
(1632,1416,o),
(1504,1544,o),
(1328,1544,o),
(1208,1416,o),
(1208,1240,o)
);
},
{
closed = 1;
nodes = (
(1384,1424,o),
(1416,1424,qs),
(1520,1424,o),
(1520,1232,o),
(1416,1232,qs),
(1320,1232,o),
(1320,1328,qs),
(1320,1368,o)
);
},
{
closed = 1;
nodes = (
(888,1288,o),
(808,1288,qs),
(744,1288,o),
(696,1232,qs),
(128,592,l),
(288,448,l),
(752,1016,ls),
(808,1088,o),
(824,1088,q),
(1792,56,l),
(1920,216,l),
(1032,1136,ls)
);
}
);
vertWidth = 2048;
width = 2048;
}
);
note = uni30DA;
unicode = 12506;
}
{
glyphname = "ho-kata";
layers = (
{
layerId = m01;
shapes = (
{
closed = 1;
nodes = (
(1112,1264,l),
(1112,1584,l),
(920,1584,l),
(920,1264,l),
(192,1272,l),
(192,1080,l),
(928,1080,l),
(928,152,ls),
(928,72,o),
(864,72,q),
(648,104,l),
(672,-96,l),
(864,-120,l),
(1104,-120,o),
(1112,96,qs),
(1112,1080,l),
(1856,1080,l),
(1856,1264,l)
);
},
{
closed = 1;
nodes = (
(1488,992,q),
(1312,928,l),
(1464,472,o),
(1752,32,q),
(1912,144,l),
(1632,568,o)
);
},
{
closed = 1;
nodes = (
(376,456,o),
(136,128,q),
(304,24,l),
(568,392,o),
(688,912,q),
(512,968,l)
);
}
);
vertWidth = 2048;
width = 2048;
}
);
note = uni30DB;
unicode = 12507;
}
{
glyphname = "bo-kata";
layers = (
{
layerId = m01;
shapes = (
{
closed = 1;
nodes = (
(824,872,q),
(776,828,l),
(852,768,o),
(900,688,q),
(952,732,l),
(912,804,o)
);
},
{
closed = 1;
nodes = (
(724,828,q),
(676,784,l),
(756,720,o),
(804,644,q),
(856,688,l),
(812,756,o)
);
},
{
closed = 1;
nodes = (
(556,632,l),
(556,792,l),
(460,792,l),
(460,632,l),
(96,636,l),
(96,540,l),
(464,540,l),
(464,76,ls),
(464,36,o),
(432,36,q),
(324,52,l),
(336,-48,l),
(432,-60,l),
(552,-60,o),
(556,48,qs),
(556,540,l),
(928,540,l),
(928,632,l)
);
},
{
closed = 1;
nodes = (
(744,496,q),
(656,464,l),
(732,236,o),
(876,16,q),
(956,72,l),
(816,284,o)
);
},
{
closed = 1;
nodes = (
(188,228,o),
(68,64,q),
(152,12,l),
(284,196,o),
(344,456,q),
(256,484,l)
);
}
);
vertWidth = 1024;
width = 1024;
}
);
note = uni30DC;
unicode = 12508;
}
{
glyphname = "po-kata";
layers = (
{
layerId = m01;
shapes = (
{
closed = 1;
nodes = (
(816,644,o),
(904,644,o),
(964,704,o),
(964,792,o),
(904,856,o),
(816,856,o),
(752,792,o),
(752,704,o)
);
},
{
closed = 1;
nodes = (
(908,796,o),
(908,700,o),
(812,700,o),
(812,796,o)
);
},
{
closed = 1;
nodes = (
(556,632,l),
(556,792,l),
(460,792,l),
(460,632,l),
(96,636,l),
(96,540,l),
(464,540,l),
(464,76,ls),
(464,36,o),
(432,36,q),
(324,52,l),
(336,-48,l),
(432,-60,l),
(552,-60,o),
(556,48,qs),
(556,540,l),
(928,540,l),
(928,632,l)
);
},
{
closed = 1;
nodes = (
(744,496,q),
(656,464,l),
(732,236,o),
(876,16,q),
(956,72,l),
(816,284,o)
);
},
{
closed = 1;
nodes = (
(188,228,o),
(68,64,q),
(152,12,l),
(284,196,o),
(344,456,q),
(256,484,l)
);
}
);
vertWidth = 1024;
width = 1024;
}
);
note = uni30DD;
unicode = 12509;
}
{
glyphname = "ma-kata";
layers = (
{
layerId = m01;
shapes = (
{
closed = 1;
nodes = (
(231,164,q),
(213,183,l),
(206,179,l),
(25,179,l),
(25,155,l),
(195,156,l),
(196,155,l),
(170,115,o),
(125,69,q),
(93,97,o),
(69,112,q),
(56,92,l),
(118,50,o),
(175,-18,q),
(195,-2,l),
(142,53,l),
(201,114,o),
(224,154,q),
(231,158,o)
);
}
);
vertWidth = 256;
width = 256;
}
);
note = uni30DE;
unicode = 12510;
}
{
glyphname = "mi-kata";
layers = (
{
layerId = m01;
shapes = (
{
closed = 1;
nodes = (
(47,193,q),
(44,168,l),
(126,163,o),
(207,144,q),
(213,168,l),
(141,184,o)
);
},
{
closed = 1;
nodes = (
(56,124,q),
(53,100,l),
(138,91,o),
(197,72,q),
(203,96,l),
(132,116,o)
);
},
{
closed = 1;
nodes = (
(37,45,q),
(35,20,l),
(149,8,o),
(212,-16,q),
(220,8,l),
(146,34,o)
);
}
);
vertWidth = 256;
width = 256;
}
);
note = uni30DF;
unicode = 12511;
}
{
glyphname = "mu-kata";
layers = (
{
layerId = m01;
shapes = (
{
closed = 1;
nodes = (
(1368,952,q),
(1200,848,l),
(1528,256,l),
(584,176,l),
(1064,1504,l),
(864,1576,l),
(376,168,l),
(160,160,l),
(192,-40,l),
(1616,72,l),
(1712,-136,l),
(1888,-56,l),
(1536,696,o)
);
}
);
vertWidth = 2048;
width = 2048;
}
);
note = uni30E0;
unicode = 12512;
}
{
glyphname = "me-kata";
layers = (
{
layerId = m01;
shapes = (
{
closed = 1;
nodes = (
(162,101,q),
(177,132,o),
(192,186,q),
(168,194,l),
(156,145,o),
(141,114,q),
(104,135,o),
(66,150,q),
(56,128,l),
(95,113,o),
(130,91,q),
(96,34,o),
(24,4,q),
(39,-17,l),
(115,19,o),
(151,79,q),
(214,29,l),
(231,47,l),
(200,77,o)
);
}
);
vertWidth = 256;
width = 256;
}
);
note = uni30E1;
unicode = 12513;
}
{
glyphname = "mo-kata";
layers = (
{
layerId = m01;
shapes = (
{
closed = 1;
nodes = (
(1264,120,qs),
(1008,120,o),
(936,160,o),
(936,248,qs),
(944,712,l),
(1800,712,l),
(1800,896,l),
(944,896,l),
(952,1280,l),
(1712,1280,l),
(1712,1464,l),
(304,1464,l),
(304,1280,l),
(760,1280,l),
(752,896,l),
(240,896,l),
(232,712,l),
(744,712,l),
(736,232,ls),
(736,64,o),
(944,-72,o),
(1304,-72,qs),
(1792,-56,l),
(1816,152,l),
(1640,120,o)
);
}
);
vertWidth = 2048;
width = 2048;
}
);
note = uni30E2;
unicode = 12514;
}
{
glyphname = "yasmall-kata";
layers = (
{
layerId = m01;
shapes = (
{
closed = 1;
nodes = (
(218,112,qs),
(218,115,o),
(199,131,q),
(194,127,l),
(106,120,l),
(99,157,l),
(76,152,l),
(82,118,l),
(38,114,l),
(41,91,l),
(87,95,l),
(109,-18,l),
(132,-14,l),
(111,97,l),
(185,105,l),
(186,104,l),
(166,76,o),
(136,52,q),
(152,35,l),
(190,67,o),
(211,104,q),
(218,108,o)
);
}
);
vertWidth = 256;
width = 256;
}
);
note = uni30E3;
unicode = 12515;
}
{
glyphname = "ya-kata";
layers = (
{
layerId = m01;
shapes = (
{
closed = 1;
nodes = (
(952,584,qs),
(952,604,o),
(868,664,q),
(844,648,l),
(380,608,l),
(344,800,l),
(248,780,l),
(284,600,l),
(72,580,l),
(84,480,l),
(304,500,l),
(416,-64,l),
(512,-40,l),
(400,512,l),
(804,556,l),
(808,552,l),
(692,384,o),
(556,276,q),
(620,208,l),
(696,260,o),
(872,464,o),
(916,548,q),
(952,560,o)
);
}
);
vertWidth = 1024;
width = 1024;
}
);
note = uni30E4;
unicode = 12516;
}
{
glyphname = "yusmall-kata";
layers = (
{
layerId = m01;
shapes = (
{
closed = 1;
nodes = (
(1424,184,l),
(1472,1064,l),
(520,1064,l),
(520,888,l),
(1272,888,l),
(1232,184,l),
(328,184,l),
(328,0,l),
(1720,0,l),
(1720,176,l)
);
}
);
vertWidth = 2048;
width = 2048;
}
);
note = uni30E5;
unicode = 12517;
}
{
glyphname = "yu-kata";
layers = (
{
layerId = m01;
shapes = (
{
closed = 1;
nodes = (
(190,29,l),
(196,169,l),
(45,170,l),
(45,146,l),
(170,146,l),
(166,29,l),
(20,29,l),
(20,6,l),
(236,5,l),
(236,29,l)
);
}
);
vertWidth = 256;
width = 256;
}
);
note = uni30E6;
unicode = 12518;
}
{
glyphname = "yosmall-kata";
layers = (
{
layerId = m01;
shapes = (
{
closed = 1;
nodes = (
(62,141,l),
(62,118,l),
(174,118,l),
(174,83,l),
(68,83,l),
(68,60,l),
(174,60,l),
(174,18,l),
(59,18,l),
(59,-5,l),
(174,-5,l),
(174,-14,l),
(196,-14,l),
(196,141,l)
);
}
);
vertWidth = 256;
width = 256;
}
);
note = uni30E7;
unicode = 12519;
}
{
glyphname = "yo-kata";
layers = (
{
layerId = m01;
shapes = (
{
closed = 1;
nodes = (
(344,1432,l),
(344,1240,l),
(1528,1240,l),
(1528,856,l),
(376,856,l),
(376,664,l),
(1528,664,l),
(1528,192,l),
(328,192,l),
(328,8,l),
(1528,8,l),
(1528,-112,l),
(1720,-112,l),
(1720,1432,l)
);
}
);
vertWidth = 2048;
width = 2048;
}
);
note = uni30E8;
unicode = 12520;
}
{
glyphname = "ra-kata";
layers = (
{
layerId = m01;
shapes = (
{
closed = 1;
nodes = (
(47,187,l),
(47,163,l),
(203,161,l),
(203,185,l)
);
},
{
closed = 1;
nodes = (
(223,117,o),
(201,134,q),
(195,129,l),
(33,131,l),
(33,107,l),
(189,106,l),
(190,104,l),
(178,63,o),
(117,18,o),
(52,9,q),
(65,-14,l),
(135,-1,o),
(199,52,o),
(216,107,q),
(223,109,o)
);
}
);
vertWidth = 256;
width = 256;
}
);
note = uni30E9;
unicode = 12521;
}
{
glyphname = "ri-kata";
layers = (
{
layerId = m01;
shapes = (
{
closed = 1;
nodes = (
(173,88,ls),
(172,49,o),
(136,17,o),
(88,8,q),
(99,-16,l),
(154,-4,o),
(198,44,o),
(198,84,qs),
(199,194,l),
(173,194,l)
);
},
{
closed = 1;
nodes = (
(57,189,l),
(57,57,l),
(82,57,l),
(82,189,l)
);
}
);
vertWidth = 256;
width = 256;
}
);
note = uni30EA;
unicode = 12522;
}
{
glyphname = "ru-kata";
layers = (
{
layerId = m01;
shapes = (
{
closed = 1;
nodes = (
(784,196,o),
(632,80,q),
(628,84,l),
(632,768,l),
(532,768,l),
(532,24,l),
(520,0,l),
(596,-68,o),
(604,-68,qs),
(620,-68,o),
(632,-36,q),
(712,12,o),
(932,240,o),
(996,344,q),
(928,416,l)
);
},
{
closed = 1;
nodes = (
(236,748,l),
(240,624,l),
(240,388,ls),
(240,140,o),
(56,4,q),
(120,-76,l),
(240,16,o),
(340,236,o),
(340,428,qs),
(340,748,l)
);
}
);
vertWidth = 1024;
width = 1024;
}
);
note = uni30EB;
unicode = 12523;
}
{
glyphname = "re-kata";
layers = (
{
layerId = m01;
shapes = (
{
closed = 1;
nodes = (
(664,160,o),
(348,56,q),
(344,60,l),
(352,776,l),
(256,776,l),
(252,36,l),
(232,20,l),
(288,-72,o),
(300,-72,q),
(364,-40,l),
(700,68,o),
(952,380,q),
(884,460,l)
);
}
);
vertWidth = 1024;
width = 1024;
}
);
note = uni30EC;
unicode = 12524;
}
{
glyphname = "ro-kata";
layers = (
{
layerId = m01;
shapes = (
{
closed = 1;
nodes = (
(43,177,l),
(43,-10,l),
(67,-10,l),
(67,3,l),
(189,3,l),
(189,-10,l),
(213,-10,l),
(213,177,l)
);
},
{
closed = 1;
nodes = (
(67,154,l),
(189,154,l),
(189,27,l),
(67,27,l)
);
}
);
vertWidth = 256;
width = 256;
}
);
note = uni30ED;
unicode = 12525;
}
{
glyphname = "wasmall-kata";
layers = (
{
layerId = m01;
shapes = (
{
closed = 1;
nodes = (
(56,62,l),
(80,62,l),
(80,118,l),
(176,118,l),
(175,57,o),
(138,15,o),
(86,4,q),
(98,-18,l),
(161,0,o),
(200,57,o),
(200,141,q),
(56,141,l)
);
}
);
vertWidth = 256;
width = 256;
}
);
note = uni30EE;
unicode = 12526;
}
{
glyphname = "wa-kata";
layers = (
{
layerId = m01;
shapes = (
{
closed = 1;
nodes = (
(296,696,l),
(496,696,l),
(496,1296,l),
(1528,1296,l),
(1528,664,o),
(1168,168,o),
(616,64,q),
(720,-120,l),
(1344,48,o),
(1744,672,o),
(1744,1480,q),
(296,1480,l)
);
}
);
vertWidth = 2048;
width = 2048;
}
);
note = uni30EF;
unicode = 12527;
}
{
glyphname = "wi-kata";
layers = (
{
layerId = m01;
shapes = (
{
closed = 1;
nodes = (
(183,61,l),
(183,137,l),
(228,137,l),
(228,161,l),
(183,161,l),
(183,199,l),
(159,199,l),
(159,161,l),
(31,161,l),
(31,137,l),
(73,137,l),
(73,61,l),
(20,61,l),
(20,38,l),
(159,38,l),
(159,-16,l),
(183,-16,l),
(183,38,l),
(236,38,l),
(236,61,l)
);
},
{
closed = 1;
nodes = (
(97,137,l),
(159,137,l),
(159,61,l),
(97,61,l)
);
}
);
vertWidth = 256;
width = 256;
}
);
note = uni30F0;
unicode = 12528;
}
{
glyphname = "we-kata";
layers = (
{
layerId = m01;
shapes = (
{
closed = 1;
nodes = (
(920,628,qs),
(920,640,o),
(836,720,q),
(808,704,l),
(168,704,l),
(168,608,l),
(784,608,l),
(788,604,l),
(700,460,o),
(576,352,q),
(648,280,l),
(784,408,o),
(888,600,q),
(920,612,o)
);
},
{
closed = 1;
nodes = (
(556,112,l),
(556,532,l),
(456,532,l),
(456,116,l),
(88,116,l),
(88,24,l),
(936,20,l),
(936,112,l)
);
}
);
vertWidth = 1024;
width = 1024;
}
);
note = uni30F1;
unicode = 12529;
}
{
glyphname = "wo-kata";
layers = (
{
layerId = m01;
shapes = (
{
closed = 1;
nodes = (
(36,160,l),
(193,161,l),
(194,160,l),
(190,122,l),
(43,122,l),
(43,98,l),
(186,98,l),
(176,62,o),
(128,19,o),
(76,6,q),
(89,-16,l),
(160,2,o),
(218,85,o),
(220,183,q),
(36,183,l)
);
}
);
vertWidth = 256;
width = 256;
}
);
note = uni30F2;
unicode = 12530;
}
{
glyphname = "n-kata";
layers = (
{
layerId = m01;
shapes = (
{
closed = 1;
nodes = (
(40,188,q),
(27,168,l),
(67,145,o),
(101,119,q),
(116,140,l),
(83,165,o)
);
},
{
closed = 1;
nodes = (
(181,85,o),
(106,24,o),
(31,12,q),
(37,-13,l),
(120,3,o),
(201,71,o),
(229,145,q),
(207,154,l)
);
}
);
vertWidth = 256;
width = 256;
}
);
note = uni30F3;
unicode = 12531;
}
{
glyphname = "vu-kata";
layers = (
{
layerId = m01;
shapes = (
{
closed = 1;
nodes = (
(896,876,q),
(852,828,l),
(912,788,o),
(968,708,q),
(1020,756,l),
(968,832,o)
);
},
{
closed = 1;
nodes = (
(800,832,q),
(752,784,l),
(816,744,o),
(872,664,q),
(920,712,l),
(872,788,o)
);
},
{
closed = 1;
nodes = (
(552,656,l),
(552,804,l),
(452,804,l),
(452,656,l),
(152,656,l),
(152,304,l),
(248,304,l),
(248,560,l),
(768,560,l),
(764,496,ls),
(756,276,o),
(568,68,o),
(316,24,q),
(368,-72,l),
(656,-4,o),
(872,272,o),
(872,592,qs),
(872,656,l)
);
}
);
vertWidth = 1024;
width = 1024;
}
);
note = uni30F4;
unicode = 12532;
}
{
glyphname = "kasmall-kata";
layers = (
{
layerId = m01;
shapes = (
{
closed = 1;
nodes = (
(134,155,l),
(112,155,l),
(111,118,l),
(58,117,l),
(58,96,l),
(110,96,l),
(107,61,o),
(82,20,o),
(51,0,q),
(67,-17,l),
(127,24,o),
(132,96,q),
(181,96,l),
(181,45,ls),
(180,22,o),
(171,8,o),
(162,8,q),
(132,13,l),
(137,-11,l),
(165,-14,l),
(198,-14,o),
(202,32,qs),
(205,119,l),
(134,118,l)
);
}
);
vertWidth = 256;
width = 256;
}
);
note = uni30F5;
unicode = 12533;
}
{
glyphname = "kesmall-kata";
layers = (
{
layerId = m01;
shapes = (
{
closed = 1;
nodes = (
(808,952,l),
(904,1200,l),
(728,1264,l),
(616,848,o),
(336,568,q),
(456,440,l),
(600,568,o),
(720,776,q),
(1104,776,l),
(1104,408,o),
(872,128,o),
(576,32,q),
(672,-136,l),
(1288,104,o),
(1296,608,qs),
(1296,776,l),
(1712,776,l),
(1712,952,l)
);
}
);
vertWidth = 2048;
width = 2048;
}
);
note = uni30F6;
unicode = 12534;
}
{
glyphname = "dot-kata";
layers = (
{
layerId = m01;
shapes = (
{
closed = 1;
nodes = (
(118,69,o),
(138,69,o),
(152,83,o),
(152,92,qs),
(152,102,o),
(138,116,o),
(118,116,o),
(104,102,o),
(104,92,qs),
(104,83,o)
);
}
);
vertWidth = 256;
width = 256;
}
);
note = uni30FB;
unicode = 12539;
}
{
glyphname = "prolonged-kana";
layers = (
{
layerId = m01;
shapes = (
{
closed = 1;
nodes = (
(280,856,l),
(280,624,l),
(1760,624,l),
(1760,856,l)
);
}
);
vertWidth = 2048;
width = 2048;
}
);
note = uni30FC;
unicode = 12540;
}
{
glyphname = "iteration-kata";
layers = (
{
layerId = m01;
shapes = (
{
closed = 1;
nodes = (
(344,620,q),
(280,552,l),
(492,368,o),
(652,152,q),
(728,216,l),
(536,468,o)
);
}
);
vertWidth = 1024;
width = 1024;
}
);
note = uni30FD;
unicode = 12541;
}
{
glyphname = "voicediteration-kata";
layers = (
{
layerId = m01;
shapes = (
{
closed = 1;
nodes = (
(179,183,q),
(169,174,l),
(185,163,o),
(198,143,q),
(209,152,l),
(197,171,o)
);
},
{
closed = 1;
nodes = (
(157,165,q),
(147,156,l),
(163,144,o),
(176,124,q),
(187,134,l),
(174,152,o)
);
},
{
closed = 1;
nodes = (
(86,155,q),
(70,138,l),
(123,92,o),
(163,38,q),
(182,54,l),
(134,117,o)
);
}
);
vertWidth = 256;
width = 256;
}
);
note = uni30FE;
unicode = 12542;
}
{
glyphname = "b-bopomofo";
layers = (
{
layerId = m01;
shapes = (
{
closed = 1;
nodes = (
(808,1448,l),
(648,1544,l),
(256,1088,l),
(312,936,l),
(1608,936,l),
(1600,328,o),
(1496,96,o),
(1368,96,qs),
(1264,96,o),
(1040,176,q),
(1040,-32,l),
(1280,-88,o),
(1408,-88,qs),
(1656,-88,o),
(1736,160,qs),
(1784,336,o),
(1792,1112,q),
(512,1112,l)
);
}
);
vertWidth = 2048;
width = 2048;
}
);
note = uni3105;
unicode = 12549;
}
{
glyphname = "p-bopomofo";
layers = (
{
layerId = m01;
shapes = (
{
closed = 1;
nodes = (
(792,356,o),
(852,528,q),
(800,596,l),
(264,596,l),
(392,744,l),
(316,796,l),
(152,600,l),
(192,508,l),
(744,508,l),
(684,360,o),
(588,252,q),
(428,356,o),
(248,436,q),
(204,356,l),
(512,196,l),
(364,84,o),
(140,52,q),
(172,-36,l),
(420,4,o),
(596,140,q),
(812,-44,l),
(884,24,l),
(660,200,l)
);
}
);
vertWidth = 1024;
width = 1024;
}
);
note = uni3106;
unicode = 12550;
}
{
glyphname = "m-bopomofo";
layers = (
{
layerId = m01;
shapes = (
{
closed = 1;
nodes = (
(872,720,o),
(784,720,qs),
(236,720,ls),
(152,720,o),
(152,640,qs),
(152,20,l),
(248,20,l),
(248,596,ls),
(248,632,o),
(280,632,qs),
(740,632,ls),
(776,632,o),
(776,596,qs),
(776,24,l),
(872,24,l),
(872,640,ls)
);
}
);
vertWidth = 1024;
width = 1024;
}
);
note = uni3107;
unicode = 12551;
}
{
glyphname = "f-bopomofo";
layers = (
{
layerId = m01;
shapes = (
{
closed = 1;
nodes = (
(544,200,ls),
(464,200,o),
(464,272,qs),
(464,1144,ls),
(464,1216,o),
(544,1216,qs),
(1760,1216,l),
(1760,1392,l),
(448,1392,ls),
(272,1392,o),
(272,1272,qs),
(272,160,ls),
(272,24,o),
(456,24,qs),
(1776,24,l),
(1776,200,l)
);
}
);
vertWidth = 2048;
width = 2048;
}
);
note = uni3108;
unicode = 12552;
}
{
glyphname = "d-bopomofo";
layers = (
{
layerId = m01;
shapes = (
{
closed = 1;
nodes = (
(404,728,l),
(324,776,l),
(124,548,l),
(156,476,l),
(444,476,l),
(340,184,o),
(120,36,q),
(164,-36,l),
(420,120,o),
(536,476,q),
(816,476,l),
(816,144,o),
(740,44,o),
(688,44,qs),
(632,44,o),
(520,84,q),
(520,-12,l),
(636,-44,o),
(712,-44,qs),
(816,-44,o),
(904,148,o),
(904,560,q),
(260,560,l)
);
}
);
vertWidth = 1024;
width = 1024;
}
);
note = uni3109;
unicode = 12553;
}
{
glyphname = "t-bopomofo";
layers = (
{
layerId = m01;
shapes = (
{
closed = 1;
nodes = (
(736,328,q),
(664,280,l),
(740,168,l),
(256,88,l),
(424,296,o),
(508,484,q),
(908,484,l),
(908,568,l),
(548,568,l),
(608,740,l),
(516,760,l),
(452,568,l),
(108,568,l),
(108,484,l),
(412,484,l),
(300,256,o),
(136,80,q),
(188,-16,l),
(780,92,l),
(832,-20,l),
(916,24,l),
(840,180,o)
);
}
);
vertWidth = 1024;
width = 1024;
}
);
note = uni310A;
unicode = 12554;
}
{
glyphname = "n-bopomofo";
layers = (
{
layerId = m01;
shapes = (
{
closed = 1;
nodes = (
(1344,1392,l),
(1256,1544,l),
(320,1544,l),
(320,1368,l),
(1136,1368,l),
(936,976,l),
(1008,856,l),
(1528,856,l),
(1496,328,o),
(1312,128,o),
(1184,128,qs),
(1080,128,o),
(864,224,q),
(872,16,l),
(1120,-56,o),
(1216,-56,qs),
(1456,-56,o),
(1688,312,o),
(1728,1032,q),
(1160,1032,l)
);
}
);
vertWidth = 2048;
width = 2048;
}
);
note = uni310B;
unicode = 12555;
}
{
glyphname = "l-bopomofo";
layers = (
{
layerId = m01;
shapes = (
{
closed = 1;
nodes = (
(648,744,l),
(560,760,l),
(512,552,l),
(252,552,l),
(396,724,l),
(324,780,l),
(232,656,o),
(124,548,q),
(172,468,l),
(488,468,l),
(380,160,o),
(136,48,q),
(180,-24,l),
(460,96,o),
(580,468,q),
(808,468,l),
(804,168,o),
(752,52,o),
(688,52,qs),
(636,52,o),
(520,88,q),
(520,-12,l),
(620,-36,o),
(704,-36,qs),
(816,-36,o),
(900,140,o),
(900,552,q),
(604,552,l)
);
}
);
vertWidth = 1024;
width = 1024;
}
);
note = uni310C;
unicode = 12556;
}
{
glyphname = "g-bopomofo";
layers = (
{
layerId = m01;
shapes = (
{
closed = 1;
nodes = (
(94,134,o),
(112,183,q),
(90,193,l),
(68,133,o),
(43,86,q),
(73,39,o),
(93,-9,q),
(117,1,l),
(69,88,l)
);
},
{
closed = 1;
nodes = (
(167,136,o),
(137,86,q),
(165,39,o),
(186,-7,q),
(209,3,l),
(163,86,l),
(213,177,l),
(189,188,l)
);
}
);
vertWidth = 256;
width = 256;
}
);
note = uni310D;
unicode = 12557;
}
{
glyphname = "k-bopomofo";
layers = (
{
layerId = m01;
shapes = (
{
closed = 1;
nodes = (
(28,183,l),
(28,161,l),
(89,161,l),
(59,110,l),
(73,92,l),
(179,92,l),
(177,63,ls),
(174,19,o),
(143,19,qs),
(129,19,o),
(101,26,q),
(101,2,l),
(129,-5,o),
(144,-5,qs),
(195,-5,o),
(201,56,qs),
(203,113,l),
(89,113,l),
(115,161,l),
(227,161,l),
(227,183,l)
);
}
);
vertWidth = 256;
width = 256;
}
);
note = uni310E;
unicode = 12558;
}
{
glyphname = "h-bopomofo";
layers = (
{
layerId = m01;
shapes = (
{
closed = 1;
nodes = (
(496,1480,l),
(496,856,o),
(368,264,o),
(216,32,q),
(368,-88,l),
(536,176,o),
(672,744,o),
(680,1296,q),
(1832,1296,l),
(1832,1480,l)
);
}
);
vertWidth = 2048;
width = 2048;
}
);
note = uni310F;
unicode = 12559;
}
{
glyphname = "j-bopomofo";
layers = (
{
layerId = m01;
shapes = (
{
closed = 1;
nodes = (
(1416,1544,l),
(1416,712,l),
(704,552,l),
(624,552,o),
(624,624,qs),
(624,1480,l),
(440,1480,l),
(440,448,ls),
(440,336,o),
(584,336,q),
(1416,528,l),
(1416,-80,l),
(1608,-80,l),
(1608,1544,l)
);
}
);
vertWidth = 2048;
width = 2048;
}
);
note = uni3110;
unicode = 12560;
}
{
glyphname = "q-bopomofo";
layers = (
{
layerId = m01;
shapes = (
{
closed = 1;
nodes = (
(400,340,q),
(580,540,o),
(716,728,q),
(636,784,l),
(488,568,o),
(272,332,q),
(528,124,o),
(676,-52,q),
(752,8,l),
(608,168,o)
);
}
);
vertWidth = 1024;
width = 1024;
}
);
note = uni3111;
unicode = 12561;
}
{
glyphname = "x-bopomofo";
layers = (
{
layerId = m01;
shapes = (
{
closed = 1;
nodes = (
(28,186,l),
(28,163,l),
(116,163,l),
(116,-9,l),
(139,-9,l),
(139,163,l),
(228,163,l),
(228,186,l)
);
}
);
vertWidth = 256;
width = 256;
}
);
note = uni3112;
unicode = 12562;
}
{
glyphname = "zh-bopomofo";
layers = (
{
layerId = m01;
shapes = (
{
closed = 1;
nodes = (
(560,84,l),
(560,292,l),
(772,292,ls),
(860,292,o),
(860,376,qs),
(860,688,l),
(768,688,l),
(768,416,ls),
(768,380,o),
(728,380,qs),
(560,380,l),
(560,760,l),
(468,760,l),
(468,380,l),
(284,380,ls),
(252,380,o),
(252,416,qs),
(252,688,l),
(156,688,l),
(156,380,ls),
(156,292,o),
(244,292,qs),
(468,292,l),
(468,84,l),
(108,84,l),
(108,0,l),
(912,0,l),
(912,84,l)
);
}
);
vertWidth = 1024;
width = 1024;
}
);
note = uni3113;
unicode = 12563;
}
{
glyphname = "ch-bopomofo";
layers = (
{
layerId = m01;
shapes = (
{
closed = 1;
nodes = (
(412,612,o),
(184,532,q),
(232,452,l),
(444,524,o),
(676,712,q),
(616,780,l)
);
},
{
closed = 1;
nodes = (
(524,328,o),
(120,180,q),
(176,104,l),
(364,184,o),
(512,272,q),
(512,-44,l),
(600,-44,l),
(600,336,l),
(768,448,o),
(904,584,q),
(844,656,l)
);
}
);
vertWidth = 1024;
width = 1024;
}
);
note = uni3114;
unicode = 12564;
}
{
glyphname = "sh-bopomofo";
layers = (
{
layerId = m01;
shapes = (
{
closed = 1;
nodes = (
(1808,1528,o),
(1616,1528,qs),
(432,1528,l),
(432,1360,l),
(1544,1360,ls),
(1624,1360,o),
(1624,1288,qs),
(1624,1016,ls),
(1624,944,o),
(1544,944,qs),
(536,944,l),
(512,360,o),
(240,80,q),
(368,-64,l),
(664,224,o),
(704,768,q),
(1592,768,ls),
(1808,768,o),
(1808,928,qs),
(1808,1352,ls)
);
}
);
vertWidth = 2048;
width = 2048;
}
);
note = uni3115;
unicode = 12565;
}
{
glyphname = "r-bopomofo";
layers = (
{
layerId = m01;
shapes = (
{
closed = 1;
nodes = (
(1720,1496,o),
(1584,1496,qs),
(520,1496,ls),
(328,1496,o),
(328,1352,qs),
(328,160,ls),
(328,-16,o),
(464,-16,qs),
(1536,-16,ls),
(1720,-16,o),
(1720,128,qs),
(1720,1288,ls)
);
},
{
closed = 1;
nodes = (
(1544,160,o),
(1464,160,qs),
(576,160,ls),
(504,160,o),
(504,232,qs),
(504,1248,ls),
(504,1320,o),
(576,1320,qs),
(1464,1320,ls),
(1544,1320,o),
(1544,1248,qs),
(1544,232,ls)
);
},
{
closed = 1;
nodes = (
(800,1048,q),
(704,904,l),
(968,720,o),
(1208,464,q),
(1336,608,l),
(1080,856,o)
);
}
);
vertWidth = 2048;
width = 2048;
}
);
note = uni3116;
unicode = 12566;
}
{
glyphname = "z-bopomofo";
layers = (
{
layerId = m01;
shapes = (
{
closed = 1;
nodes = (
(32,167,l),
(87,167,l),
(87,-10,l),
(110,-10,l),
(110,167,l),
(201,167,l),
(201,110,o),
(192,82,o),
(178,82,qs),
(168,82,o),
(148,89,q),
(152,65,l),
(185,60,l),
(205,60,o),
(224,90,o),
(224,188,q),
(32,188,l)
);
}
);
vertWidth = 256;
width = 256;
}
);
note = uni3117;
unicode = 12567;
}
{
glyphname = "c-bopomofo";
layers = (
{
layerId = m01;
shapes = (
{
closed = 1;
nodes = (
(119,155,l),
(135,190,l),
(114,198,l),
(95,155,l),
(28,155,l),
(28,134,l),
(84,134,l),
(57,87,l),
(65,73,l),
(184,73,l),
(168,20,o),
(122,10,q),
(134,-12,l),
(192,8,o),
(209,76,q),
(193,94,l),
(87,94,l),
(110,134,l),
(227,134,l),
(227,155,l)
);
}
);
vertWidth = 256;
width = 256;
}
);
note = uni3118;
unicode = 12568;
}
{
glyphname = "s-bopomofo";
layers = (
{
layerId = m01;
shapes = (
{
closed = 1;
nodes = (
(652,324,l),
(724,196,l),
(244,120,l),
(448,448,o),
(556,716,q),
(468,752,l),
(332,416,o),
(112,88,q),
(156,12,l),
(772,112,l),
(828,0,l),
(912,44,l),
(728,368,l)
);
}
);
vertWidth = 1024;
width = 1024;
}
);
note = uni3119;
unicode = 12569;
}
{
glyphname = "a-bopomofo";
layers = (
{
layerId = m01;
shapes = (
{
closed = 1;
nodes = (
(1016,888,l),
(376,1520,l),
(240,1400,l),
(544,1144,o),
(896,728,q),
(896,-80,l),
(1080,-80,l),
(1080,728,l),
(1808,1376,l),
(1680,1504,l)
);
}
);
vertWidth = 2048;
width = 2048;
}
);
note = uni311A;
unicode = 12570;
}
{
glyphname = "o-bopomofo";
layers = (
{
layerId = m01;
shapes = (
{
closed = 1;
nodes = (
(27,184,l),
(27,162,l),
(122,162,l),
(122,114,l),
(44,114,o),
(44,53,qs),
(44,28,o),
(87,-5,o),
(127,-5,qs),
(192,-5,o),
(217,67,q),
(197,79,l),
(178,17,o),
(125,17,qs),
(98,17,o),
(68,39,o),
(68,55,qs),
(68,70,o),
(92,91,o),
(111,91,qs),
(130,90,l),
(145,105,l),
(145,162,l),
(229,162,l),
(229,184,l)
);
}
);
vertWidth = 256;
width = 256;
}
);
note = uni311B;
unicode = 12571;
}
{
glyphname = "e-bopomofo";
layers = (
{
layerId = m01;
shapes = (
{
closed = 1;
nodes = (
(1168,1264,l),
(1168,1584,l),
(976,1584,l),
(976,1264,l),
(208,1264,l),
(208,1096,l),
(976,1096,l),
(976,832,l),
(376,792,o),
(376,376,qs),
(376,176,o),
(712,-88,o),
(1024,-88,qs),
(1536,-88,o),
(1704,432,q),
(1536,520,l),
(1456,280,o),
(1224,96,o),
(1008,96,qs),
(560,96,o),
(560,656,o),
(1016,656,q),
(1168,784,l),
(1168,1096,l),
(1840,1096,l),
(1840,1264,l)
);
}
);
vertWidth = 2048;
width = 2048;
}
);
note = uni311C;
unicode = 12572;
}
{
glyphname = "eh-bopomofo";
layers = (
{
layerId = m01;
shapes = (
{
closed = 1;
nodes = (
(728,532,l),
(728,768,l),
(632,768,l),
(632,532,l),
(372,532,l),
(372,768,l),
(276,768,l),
(276,532,l),
(112,532,l),
(112,448,l),
(276,448,l),
(276,52,ls),
(276,-28,o),
(360,-28,qs),
(864,-28,l),
(864,60,l),
(408,60,ls),
(372,60,o),
(372,96,qs),
(372,448,l),
(632,448,l),
(632,216,l),
(728,216,l),
(728,448,l),
(912,448,l),
(912,532,l)
);
}
);
vertWidth = 1024;
width = 1024;
}
);
note = uni311D;
unicode = 12573;
}
{
glyphname = "ai-bopomofo";
layers = (
{
layerId = m01;
shapes = (
{
closed = 1;
nodes = (
(224,1528,l),
(224,1360,l),
(496,1360,l),
(360,888,l),
(480,752,l),
(968,752,l),
(752,248,o),
(280,104,q),
(384,-56,l),
(912,120,o),
(1152,752,q),
(1536,752,l),
(1472,336,o),
(1360,-8,q),
(1536,-72,l),
(1672,368,o),
(1712,816,q),
(1592,920,l),
(1208,920,l),
(1312,1360,l),
(1824,1360,l),
(1824,1528,l)
);
},
{
closed = 1;
nodes = (
(552,920,l),
(680,1360,l),
(1136,1360,l),
(1024,920,l)
);
}
);
vertWidth = 2048;
width = 2048;
}
);
note = uni311E;
unicode = 12574;
}
{
glyphname = "ei-bopomofo";
layers = (
{
layerId = m01;
shapes = (
{
closed = 1;
nodes = (
(1112,1544,q),
(216,1328,l),
(264,1152,l),
(976,1320,l),
(1192,544,o),
(1656,-32,q),
(1832,88,l),
(1328,640,o)
);
}
);
vertWidth = 2048;
width = 2048;
}
);
note = uni311F;
unicode = 12575;
}
{
glyphname = "au-bopomofo";
layers = (
{
layerId = m01;
shapes = (
{
closed = 1;
nodes = (
(676,284,l),
(728,180,l),
(320,108,l),
(604,360,o),
(812,644,q),
(736,700,l),
(580,496,l),
(260,460,l),
(484,724,l),
(408,780,l),
(280,600,o),
(120,436,q),
(168,360,l),
(512,412,l),
(316,200,o),
(120,72,q),
(164,-16,l),
(768,100,l),
(812,-8,l),
(904,32,l),
(760,328,l)
);
}
);
vertWidth = 1024;
width = 1024;
}
);
note = uni3120;
unicode = 12576;
}
{
glyphname = "ou-bopomofo";
layers = (
{
layerId = m01;
shapes = (
{
closed = 1;
nodes = (
(1264,616,q),
(1464,864,o),
(1656,1344,q),
(1520,1488,l),
(352,1488,l),
(352,1312,l),
(1448,1312,l),
(1280,920,o),
(1112,712,q),
(760,928,o),
(424,1072,q),
(336,912,l),
(712,752,o),
(992,576,q),
(696,296,o),
(240,200,q),
(296,32,l),
(784,112,o),
(1136,472,q),
(1448,232,o),
(1664,-16,q),
(1808,144,l),
(1568,384,o)
);
}
);
vertWidth = 2048;
width = 2048;
}
);
note = uni3121;
unicode = 12577;
}
{
glyphname = "an-bopomofo";
layers = (
{
layerId = m01;
shapes = (
{
closed = 1;
nodes = (
(1376,832,l),
(1576,1352,l),
(1472,1504,l),
(224,1504,l),
(224,1336,l),
(608,1336,l),
(408,792,l),
(472,656,l),
(1592,656,l),
(1552,248,o),
(1112,56,q),
(1256,-104,l),
(1712,136,o),
(1824,720,q),
(1664,832,l)
);
},
{
closed = 1;
nodes = (
(624,832,l),
(800,1336,l),
(1368,1336,l),
(1176,832,l)
);
}
);
vertWidth = 2048;
width = 2048;
}
);
note = uni3122;
unicode = 12578;
}
{
glyphname = "en-bopomofo";
layers = (
{
layerId = m01;
shapes = (
{
closed = 1;
nodes = (
(504,936,l),
(616,1152,o),
(728,1480,q),
(544,1520,l),
(416,1168,o),
(248,872,q),
(336,768,l),
(1584,768,l),
(1488,272,o),
(1288,-16,q),
(1480,-96,l),
(1672,240,o),
(1800,808,q),
(1664,936,l)
);
}
);
vertWidth = 2048;
width = 2048;
}
);
note = uni3123;
unicode = 12579;
}
{
glyphname = "ang-bopomofo";
layers = (
{
layerId = m01;
shapes = (
{
closed = 1;
nodes = (
(552,580,l),
(576,760,l),
(480,768,l),
(452,580,l),
(120,580,l),
(120,492,l),
(432,492,l),
(344,180,o),
(112,36,q),
(184,-36,l),
(392,104,o),
(512,436,q),
(512,64,ls),
(512,-16,o),
(592,-16,qs),
(880,-16,l),
(880,72,l),
(640,72,ls),
(600,72,o),
(600,108,qs),
(600,492,l),
(912,492,l),
(912,580,l)
);
}
);
vertWidth = 1024;
width = 1024;
}
);
note = uni3124;
unicode = 12580;
}
{
glyphname = "eng-bopomofo";
layers = (
{
layerId = m01;
shapes = (
{
closed = 1;
nodes = (
(264,96,l),
(468,372,o),
(616,700,q),
(532,732,l),
(396,400,o),
(128,80,q),
(160,8,l),
(896,8,l),
(896,96,l)
);
}
);
vertWidth = 1024;
width = 1024;
}
);
note = uni3125;
unicode = 12581;
}
{
glyphname = "er-bopomofo";
layers = (
{
layerId = m01;
shapes = (
{
closed = 1;
nodes = (
(1376,136,ls),
(1296,136,o),
(1296,208,qs),
(1296,1512,l),
(1112,1512,l),
(1112,152,ls),
(1112,-48,o),
(1264,-48,qs),
(1816,-48,l),
(1816,136,l)
);
},
{
closed = 1;
nodes = (
(560,712,o),
(512,504,qs),
(440,240,o),
(232,24,q),
(384,-80,l),
(616,176,o),
(744,696,o),
(744,1512,q),
(560,1512,l)
);
}
);
vertWidth = 2048;
width = 2048;
}
);
note = uni3126;
unicode = 12582;
}
{
glyphname = "i-bopomofo";
layers = (
{
layerId = m01;
shapes = (
{
closed = 1;
nodes = (
(124,412,l),
(124,316,l),
(900,316,l),
(900,412,l)
);
}
);
vertWidth = 1024;
width = 1024;
}
);
note = uni3127;
unicode = 12583;
}
{
glyphname = "u-bopomofo";
layers = (
{
layerId = m01;
shapes = (
{
closed = 1;
nodes = (
(872,688,l),
(808,752,l),
(524,444,l),
(212,752,l),
(148,688,l),
(464,380,l),
(128,56,l),
(192,-12,l),
(524,316,l),
(828,-12,l),
(896,52,l),
(588,380,l)
);
}
);
vertWidth = 1024;
width = 1024;
}
);
note = uni3128;
unicode = 12584;
}
{
glyphname = "iu-bopomofo";
layers = (
{
layerId = m01;
shapes = (
{
closed = 1;
nodes = (
(1736,24,o),
(1736,176,qs),
(1736,1432,l),
(1552,1432,l),
(1552,272,ls),
(1552,200,o),
(1480,200,qs),
(568,200,ls),
(496,200,o),
(496,272,qs),
(496,1432,l),
(304,1432,l),
(304,184,ls),
(304,24,o),
(464,24,qs),
(1520,24,ls)
);
}
);
vertWidth = 2048;
width = 2048;
}
);
note = uni3129;
unicode = 12585;
}
{
glyphname = "kiyeokParen-ko";
layers = (
{
layerId = m01;
shapes = (
{
closed = 1;
nodes = (
(2032,728,qs),
(2032,1272,o),
(1800,1632,q),
(1672,1632,l),
(1896,1240,o),
(1896,728,qs),
(1896,232,o),
(1680,-152,q),
(1800,-152,l),
(2032,192,o)
);
},
{
closed = 1;
nodes = (
(16,1272,o),
(16,728,qs),
(16,192,o),
(248,-152,q),
(368,-152,l),
(152,232,o),
(152,728,qs),
(152,1240,o),
(368,1632,q),
(248,1632,l)
);
},
{
closed = 1;
nodes = (
(1328,1048,l),
(1328,216,l),
(1496,216,l),
(1496,1200,l),
(504,1200,l),
(504,1048,l)
);
}
);
vertWidth = 2048;
width = 2048;
}
);
note = uni3200;
unicode = 12800;
}
{
glyphname = "nieunParen-ko";
layers = (
{
layerId = m01;
shapes = (
{
closed = 1;
nodes = (
(1016,364,qs),
(1016,636,o),
(900,816,q),
(836,816,l),
(948,620,o),
(948,364,qs),
(948,116,o),
(840,-76,q),
(900,-76,l),
(1016,96,o)
);
},
{
closed = 1;
nodes = (
(8,636,o),
(8,364,qs),
(8,96,o),
(124,-76,q),
(184,-76,l),
(76,116,o),
(76,364,qs),
(76,620,o),
(184,816,q),
(124,816,l)
);
},
{
closed = 1;
nodes = (
(808,132,l),
(808,208,l),
(368,208,l),
(368,612,l),
(288,612,l),
(288,132,l)
);
}
);
vertWidth = 1024;
width = 1024;
}
);
note = uni3201;
unicode = 12801;
}
{
glyphname = "tikeutParen-ko";
layers = (
{
layerId = m01;
shapes = (
{
closed = 1;
nodes = (
(1016,364,qs),
(1016,636,o),
(900,816,q),
(836,816,l),
(948,620,o),
(948,364,qs),
(948,116,o),
(840,-76,q),
(900,-76,l),
(1016,96,o)
);
},
{
closed = 1;
nodes = (
(8,636,o),
(8,364,qs),
(8,96,o),
(124,-76,q),
(184,-76,l),
(76,116,o),
(76,364,qs),
(76,620,o),
(184,816,q),
(124,816,l)
);
},
{
closed = 1;
nodes = (
(296,132,l),
(792,132,l),
(792,208,l),
(376,208,l),
(376,544,l),
(768,544,l),
(768,620,l),
(296,620,l)
);
}
);
vertWidth = 1024;
width = 1024;
}
);
note = uni3202;
unicode = 12802;
}
{
glyphname = "rieulParen-ko";
layers = (
{
layerId = m01;
shapes = (
{
closed = 1;
nodes = (
(1016,364,qs),
(1016,636,o),
(900,816,q),
(836,816,l),
(948,620,o),
(948,364,qs),
(948,116,o),
(840,-76,q),
(900,-76,l),
(1016,96,o)
);
},
{
closed = 1;
nodes = (
(8,636,o),
(8,364,qs),
(8,96,o),
(124,-76,q),
(184,-76,l),
(76,116,o),
(76,364,qs),
(76,620,o),
(184,816,q),
(124,816,l)
);
},
{
closed = 1;
nodes = (
(656,540,l),
(656,424,l),
(288,424,l),
(288,112,l),
(768,112,l),
(768,188,l),
(368,188,l),
(368,348,l),
(736,348,l),
(736,616,l),
(280,616,l),
(280,540,l)
);
}
);
vertWidth = 1024;
width = 1024;
}
);
note = uni3203;
unicode = 12803;
}
{
glyphname = "mieumParen-ko";
layers = (
{
layerId = m01;
shapes = (
{
closed = 1;
nodes = (
(1016,364,qs),
(1016,636,o),
(900,816,q),
(836,816,l),
(948,620,o),
(948,364,qs),
(948,116,o),
(840,-76,q),
(900,-76,l),
(1016,96,o)
);
},
{
closed = 1;
nodes = (
(8,636,o),
(8,364,qs),
(8,96,o),
(124,-76,q),
(184,-76,l),
(76,116,o),
(76,364,qs),
(76,620,o),
(184,816,q),
(124,816,l)
);
},
{
closed = 1;
nodes = (
(304,116,l),
(384,116,l),
(384,136,l),
(648,136,l),
(648,116,l),
(728,116,l),
(728,620,l),
(304,620,l)
);
},
{
closed = 1;
nodes = (
(648,544,l),
(648,212,l),
(384,212,l),
(384,544,l)
);
}
);
vertWidth = 1024;
width = 1024;
}
);
note = uni3204;
unicode = 12804;
}
{
glyphname = "pieupParen-ko";
layers = (
{
layerId = m01;
shapes = (
{
closed = 1;
nodes = (
(254,91,qs),
(254,159,o),
(225,204,q),
(209,204,l),
(237,155,o),
(237,91,qs),
(237,29,o),
(210,-19,q),
(225,-19,l),
(254,24,o)
);
},
{
closed = 1;
nodes = (
(2,159,o),
(2,91,qs),
(2,24,o),
(31,-19,q),
(46,-19,l),
(19,29,o),
(19,91,qs),
(19,155,o),
(46,204,q),
(31,204,l)
);
},
{
closed = 1;
nodes = (
(92,153,l),
(73,153,l),
(73,30,l),
(92,30,l),
(92,35,l),
(167,35,l),
(167,30,l),
(187,30,l),
(187,153,l),
(167,153,l),
(167,117,l),
(92,117,l)
);
},
{
closed = 1;
nodes = (
(92,98,l),
(167,98,l),
(167,55,l),
(92,55,l)
);
}
);
vertWidth = 256;
width = 256;
}
);
note = uni3205;
unicode = 12805;
}
{
glyphname = "siosParen-ko";
layers = (
{
layerId = m01;
shapes = (
{
closed = 1;
nodes = (
(254,91,qs),
(254,159,o),
(225,204,q),
(209,204,l),
(237,155,o),
(237,91,qs),
(237,29,o),
(210,-19,q),
(225,-19,l),
(254,24,o)
);
},
{
closed = 1;
nodes = (
(2,159,o),
(2,91,qs),
(2,24,o),
(31,-19,q),
(46,-19,l),
(19,29,o),
(19,91,qs),
(19,155,o),
(46,204,q),
(31,204,l)
);
},
{
closed = 1;
nodes = (
(192,28,q),
(203,46,l),
(141,71,o),
(141,144,qs),
(141,156,l),
(121,156,l),
(121,139,ls),
(117,67,o),
(59,46,q),
(70,28,l),
(117,56,o),
(131,105,q),
(144,54,o)
);
}
);
vertWidth = 256;
width = 256;
}
);
note = uni3206;
unicode = 12806;
}
{
glyphname = "ieungParen-ko";
layers = (
{
layerId = m01;
shapes = (
{
closed = 1;
nodes = (
(254,91,qs),
(254,159,o),
(225,204,q),
(209,204,l),
(237,155,o),
(237,91,qs),
(237,29,o),
(210,-19,q),
(225,-19,l),
(254,24,o)
);
},
{
closed = 1;
nodes = (
(2,159,o),
(2,91,qs),
(2,24,o),
(31,-19,q),
(46,-19,l),
(19,29,o),
(19,91,qs),
(19,155,o),
(46,204,q),
(31,204,l)
);
},
{
closed = 1;
nodes = (
(68,91,qs),
(68,60,o),
(102,24,o),
(128,24,qs),
(155,24,o),
(188,60,o),
(188,91,qs),
(188,118,o),
(160,154,o),
(138,157,q),
(138,172,l),
(119,172,l),
(119,157,l),
(68,150,o)
);
},
{
closed = 1;
nodes = (
(169,113,o),
(169,69,o),
(146,43,o),
(128,43,qs),
(111,43,o),
(88,69,o),
(88,113,o),
(111,139,o),
(128,139,qs),
(146,139,o)
);
}
);
vertWidth = 256;
width = 256;
}
);
note = uni3207;
unicode = 12807;
}
{
glyphname = "cieucParen-ko";
layers = (
{
layerId = m01;
shapes = (
{
closed = 1;
nodes = (
(1016,364,qs),
(1016,636,o),
(900,816,q),
(836,816,l),
(948,620,o),
(948,364,qs),
(948,116,o),
(840,-76,q),
(900,-76,l),
(1016,96,o)
);
},
{
closed = 1;
nodes = (
(8,636,o),
(8,364,qs),
(8,96,o),
(124,-76,q),
(184,-76,l),
(76,116,o),
(76,364,qs),
(76,620,o),
(184,816,q),
(124,816,l)
);
},
{
closed = 1;
nodes = (
(252,540,l),
(472,540,l),
(432,280,o),
(228,168,q),
(276,108,l),
(460,232,o),
(508,412,q),
(560,216,o),
(752,116,q),
(804,176,l),
(556,280,o),
(548,540,q),
(772,540,l),
(772,616,l),
(252,616,l)
);
}
);
vertWidth = 1024;
width = 1024;
}
);
note = uni3208;
unicode = 12808;
}
{
glyphname = "chieuchParen-ko";
layers = (
{
layerId = m01;
shapes = (
{
closed = 1;
nodes = (
(2032,728,qs),
(2032,1272,o),
(1800,1632,q),
(1672,1632,l),
(1896,1240,o),
(1896,728,qs),
(1896,232,o),
(1680,-152,q),
(1800,-152,l),
(2032,192,o)
);
},
{
closed = 1;
nodes = (
(16,1272,o),
(16,728,qs),
(16,192,o),
(248,-152,q),
(368,-152,l),
(152,232,o),
(152,728,qs),
(152,1240,o),
(368,1632,q),
(248,1632,l)
);
},
{
closed = 1;
nodes = (
(720,1232,l),
(1304,1232,l),
(1304,1384,l),
(720,1384,l)
);
},
{
closed = 1;
nodes = (
(504,920,l),
(936,920,l),
(856,488,o),
(464,304,q),
(560,184,l),
(920,400,o),
(1024,720,q),
(1104,376,o),
(1504,192,q),
(1608,312,l),
(1120,488,o),
(1096,920,q),
(1560,920,l),
(1560,1072,l),
(504,1072,l)
);
}
);
vertWidth = 2048;
width = 2048;
}
);
note = uni3209;
unicode = 12809;
}
{
glyphname = "khieukhParen-ko";
layers = (
{
layerId = m01;
shapes = (
{
closed = 1;
nodes = (
(254,91,qs),
(254,159,o),
(225,204,q),
(209,204,l),
(237,155,o),
(237,91,qs),
(237,29,o),
(210,-19,q),
(225,-19,l),
(254,24,o)
);
},
{
closed = 1;
nodes = (
(2,159,o),
(2,91,qs),
(2,24,o),
(31,-19,q),
(46,-19,l),
(19,29,o),
(19,91,qs),
(19,155,o),
(46,204,q),
(31,204,l)
);
},
{
closed = 1;
nodes = (
(174,131,l),
(174,108,l),
(61,91,l),
(64,72,l),
(174,92,l),
(174,39,l),
(194,39,l),
(194,150,l),
(69,150,l),
(69,131,l)
);
}
);
vertWidth = 256;
width = 256;
}
);
note = uni320A;
unicode = 12810;
}
{
glyphname = "thieuthParen-ko";
layers = (
{
layerId = m01;
shapes = (
{
closed = 1;
nodes = (
(2032,728,qs),
(2032,1272,o),
(1800,1632,q),
(1672,1632,l),
(1896,1240,o),
(1896,728,qs),
(1896,232,o),
(1680,-152,q),
(1800,-152,l),
(2032,192,o)
);
},
{
closed = 1;
nodes = (
(16,1272,o),
(16,728,qs),
(16,192,o),
(248,-152,q),
(368,-152,l),
(152,232,o),
(152,728,qs),
(152,1240,o),
(368,1632,q),
(248,1632,l)
);
},
{
closed = 1;
nodes = (
(560,224,l),
(1600,224,l),
(1600,376,l),
(720,376,l),
(720,680,l),
(1472,680,l),
(1472,832,l),
(720,832,l),
(720,1080,l),
(1520,1080,l),
(1520,1232,l),
(560,1232,l)
);
}
);
vertWidth = 2048;
width = 2048;
}
);
note = uni320B;
unicode = 12811;
}
{
glyphname = "phieuphParen-ko";
layers = (
{
layerId = m01;
shapes = (
{
closed = 1;
nodes = (
(254,91,qs),
(254,159,o),
(225,204,q),
(209,204,l),
(237,155,o),
(237,91,qs),
(237,29,o),
(210,-19,q),
(225,-19,l),
(254,24,o)
);
},
{
closed = 1;
nodes = (
(2,159,o),
(2,91,qs),
(2,24,o),
(31,-19,q),
(46,-19,l),
(19,29,o),
(19,91,qs),
(19,155,o),
(46,204,q),
(31,204,l)
);
},
{
closed = 1;
nodes = (
(62,135,l),
(191,135,l),
(191,154,l),
(62,154,l)
);
},
{
closed = 1;
nodes = (
(178,126,l),
(159,126,l),
(144,47,l),
(106,47,l),
(97,126,l),
(78,126,l),
(87,47,l),
(55,47,l),
(55,28,l),
(198,28,l),
(198,47,l),
(163,47,l)
);
}
);
vertWidth = 256;
width = 256;
}
);
note = uni320C;
unicode = 12812;
}
{
glyphname = "hieuhParen-ko";
layers = (
{
layerId = m01;
shapes = (
{
closed = 1;
nodes = (
(254,91,qs),
(254,159,o),
(225,204,q),
(209,204,l),
(237,155,o),
(237,91,qs),
(237,29,o),
(210,-19,q),
(225,-19,l),
(254,24,o)
);
},
{
closed = 1;
nodes = (
(2,159,o),
(2,91,qs),
(2,24,o),
(31,-19,q),
(46,-19,l),
(19,29,o),
(19,91,qs),
(19,155,o),
(46,204,q),
(31,204,l)
);
},
{
closed = 1;
nodes = (
(92,147,l),
(159,147,l),
(159,166,l),
(92,166,l)
);
},
{
closed = 1;
nodes = (
(55,115,l),
(204,115,l),
(204,134,l),
(55,134,l)
);
},
{
closed = 1;
nodes = (
(70,58,qs),
(70,17,o),
(129,17,qs),
(187,17,o),
(187,58,qs),
(187,94,o),
(138,98,q),
(138,108,l),
(119,108,l),
(119,98,l),
(70,94,o)
);
},
{
closed = 1;
nodes = (
(167,35,o),
(129,35,qs),
(90,35,o),
(90,81,o),
(129,81,qs),
(167,81,o)
);
}
);
vertWidth = 256;
width = 256;
}
);
note = uni320D;
unicode = 12813;
}
{
glyphname = "kiyeokaParen-ko";
layers = (
{
layerId = m01;
shapes = (
{
closed = 1;
nodes = (
(254,91,qs),
(254,159,o),
(225,204,q),
(209,204,l),
(237,155,o),
(237,91,qs),
(237,29,o),
(210,-19,q),
(225,-19,l),
(254,24,o)
);
},
{
closed = 1;
nodes = (
(2,159,o),
(2,91,qs),
(2,24,o),
(31,-19,q),
(46,-19,l),
(19,29,o),
(19,91,qs),
(19,155,o),
(46,204,q),
(31,204,l)
);
},
{
closed = 1;
nodes = (
(186,1,l),
(186,83,l),
(217,83,l),
(217,102,l),
(186,102,l),
(186,185,l),
(166,185,l),
(166,1,l)
);
},
{
closed = 1;
nodes = (
(140,160,q),
(56,160,l),
(56,141,l),
(119,141,l),
(112,73,o),
(51,45,q),
(62,29,l),
(137,69,o)
);
}
);
vertWidth = 256;
width = 256;
}
);
note = uni320E;
unicode = 12814;
}
{
glyphname = "nieunaParen-ko";
layers = (
{
layerId = m01;
shapes = (
{
closed = 1;
nodes = (
(254,91,qs),
(254,159,o),
(225,204,q),
(209,204,l),
(237,155,o),
(237,91,qs),
(237,29,o),
(210,-19,q),
(225,-19,l),
(254,24,o)
);
},
{
closed = 1;
nodes = (
(2,159,o),
(2,91,qs),
(2,24,o),
(31,-19,q),
(46,-19,l),
(19,29,o),
(19,91,qs),
(19,155,o),
(46,204,q),
(31,204,l)
);
},
{
closed = 1;
nodes = (
(186,1,l),
(186,83,l),
(217,83,l),
(217,102,l),
(186,102,l),
(186,185,l),
(166,185,l),
(166,1,l)
);
},
{
closed = 1;
nodes = (
(111,45,o),
(161,58,q),
(158,74,l),
(113,63,o),
(69,63,q),
(69,156,l),
(49,156,l),
(49,45,l)
);
}
);
vertWidth = 256;
width = 256;
}
);
note = uni320F;
unicode = 12815;
}
{
glyphname = "tikeutaParen-ko";
layers = (
{
layerId = m01;
shapes = (
{
closed = 1;
nodes = (
(254,91,qs),
(254,159,o),
(225,204,q),
(209,204,l),
(237,155,o),
(237,91,qs),
(237,29,o),
(210,-19,q),
(225,-19,l),
(254,24,o)
);
},
{
closed = 1;
nodes = (
(2,159,o),
(2,91,qs),
(2,24,o),
(31,-19,q),
(46,-19,l),
(19,29,o),
(19,91,qs),
(19,155,o),
(46,204,q),
(31,204,l)
);
},
{
closed = 1;
nodes = (
(186,1,l),
(186,83,l),
(217,83,l),
(217,102,l),
(186,102,l),
(186,185,l),
(166,185,l),
(166,1,l)
);
},
{
closed = 1;
nodes = (
(107,45,o),
(158,52,q),
(154,71,l),
(121,64,o),
(70,64,q),
(70,144,l),
(140,144,l),
(140,163,l),
(50,163,l),
(50,45,l)
);
}
);
vertWidth = 256;
width = 256;
}
);
note = uni3210;
unicode = 12816;
}
{
glyphname = "rieulaParen-ko";
layers = (
{
layerId = m01;
shapes = (
{
closed = 1;
nodes = (
(2032,728,qs),
(2032,1272,o),
(1800,1632,q),
(1672,1632,l),
(1896,1240,o),
(1896,728,qs),
(1896,232,o),
(1680,-152,q),
(1800,-152,l),
(2032,192,o)
);
},
{
closed = 1;
nodes = (
(16,1272,o),
(16,728,qs),
(16,192,o),
(248,-152,q),
(368,-152,l),
(152,232,o),
(152,728,qs),
(152,1240,o),
(368,1632,q),
(248,1632,l)
);
},
{
closed = 1;
nodes = (
(1488,8,l),
(1488,664,l),
(1736,664,l),
(1736,816,l),
(1488,816,l),
(1488,1480,l),
(1328,1480,l),
(1328,8,l)
);
},
{
closed = 1;
nodes = (
(912,1176,l),
(912,936,l),
(400,936,l),
(400,280,l),
(1232,336,l),
(1208,472,l),
(560,432,l),
(560,784,l),
(1072,784,l),
(1072,1328,l),
(416,1328,l),
(416,1176,l)
);
}
);
vertWidth = 2048;
width = 2048;
}
);
note = uni3211;
unicode = 12817;
}
{
glyphname = "mieumaParen-ko";
layers = (
{
layerId = m01;
shapes = (
{
closed = 1;
nodes = (
(1016,364,qs),
(1016,636,o),
(900,816,q),
(836,816,l),
(948,620,o),
(948,364,qs),
(948,116,o),
(840,-76,q),
(900,-76,l),
(1016,96,o)
);
},
{
closed = 1;
nodes = (
(8,636,o),
(8,364,qs),
(8,96,o),
(124,-76,q),
(184,-76,l),
(76,116,o),
(76,364,qs),
(76,620,o),
(184,816,q),
(124,816,l)
);
},
{
closed = 1;
nodes = (
(744,4,l),
(744,332,l),
(868,332,l),
(868,408,l),
(744,408,l),
(744,740,l),
(664,740,l),
(664,4,l)
);
},
{
closed = 1;
nodes = (
(540,184,l),
(540,648,l),
(200,648,l),
(200,184,l)
);
},
{
closed = 1;
nodes = (
(280,572,l),
(464,572,l),
(464,260,l),
(280,260,l)
);
}
);
vertWidth = 1024;
width = 1024;
}
);
note = uni3212;
unicode = 12818;
}
{
glyphname = "pieupaParen-ko";
layers = (
{
layerId = m01;
shapes = (
{
closed = 1;
nodes = (
(254,91,qs),
(254,159,o),
(225,204,q),
(209,204,l),
(237,155,o),
(237,91,qs),
(237,29,o),
(210,-19,q),
(225,-19,l),
(254,24,o)
);
},
{
closed = 1;
nodes = (
(2,159,o),
(2,91,qs),
(2,24,o),
(31,-19,q),
(46,-19,l),
(19,29,o),
(19,91,qs),
(19,155,o),
(46,204,q),
(31,204,l)
);
},
{
closed = 1;
nodes = (
(186,1,l),
(186,83,l),
(217,83,l),
(217,102,l),
(186,102,l),
(186,185,l),
(166,185,l),
(166,1,l)
);
},
{
closed = 1;
nodes = (
(50,162,l),
(50,44,l),
(137,44,l),
(137,162,l),
(117,162,l),
(117,125,l),
(70,125,l),
(70,162,l)
);
},
{
closed = 1;
nodes = (
(70,106,l),
(117,106,l),
(117,63,l),
(70,63,l)
);
}
);
vertWidth = 256;
width = 256;
}
);
note = uni3213;
unicode = 12819;
}
{
glyphname = "siosaParen-ko";
layers = (
{
layerId = m01;
shapes = (
{
closed = 1;
nodes = (
(1016,364,qs),
(1016,636,o),
(900,816,q),
(836,816,l),
(948,620,o),
(948,364,qs),
(948,116,o),
(840,-76,q),
(900,-76,l),
(1016,96,o)
);
},
{
closed = 1;
nodes = (
(8,636,o),
(8,364,qs),
(8,96,o),
(124,-76,q),
(184,-76,l),
(76,116,o),
(76,364,qs),
(76,620,o),
(184,816,q),
(124,816,l)
);
},
{
closed = 1;
nodes = (
(744,4,l),
(744,332,l),
(868,332,l),
(868,408,l),
(744,408,l),
(744,740,l),
(664,740,l),
(664,4,l)
);
},
{
closed = 1;
nodes = (
(556,144,q),
(600,216,l),
(436,304,o),
(436,584,qs),
(436,696,l),
(356,696,l),
(356,564,ls),
(340,284,o),
(172,200,q),
(216,128,l),
(356,228,o),
(396,396,q),
(432,224,o)
);
}
);
vertWidth = 1024;
width = 1024;
}
);
note = uni3214;
unicode = 12820;
}
{
glyphname = "ieungaParen-ko";
layers = (
{
layerId = m01;
shapes = (
{
closed = 1;
nodes = (
(1016,364,qs),
(1016,636,o),
(900,816,q),
(836,816,l),
(948,620,o),
(948,364,qs),
(948,116,o),
(840,-76,q),
(900,-76,l),
(1016,96,o)
);
},
{
closed = 1;
nodes = (
(8,636,o),
(8,364,qs),
(8,96,o),
(124,-76,q),
(184,-76,l),
(76,116,o),
(76,364,qs),
(76,620,o),
(184,816,q),
(124,816,l)
);
},
{
closed = 1;
nodes = (
(744,4,l),
(744,332,l),
(868,332,l),
(868,408,l),
(744,408,l),
(744,740,l),
(664,740,l),
(664,4,l)
);
},
{
closed = 1;
nodes = (
(180,528,o),
(180,404,qs),
(180,264,o),
(292,112,o),
(452,112,o),
(568,268,o),
(568,404,qs),
(568,652,o),
(412,688,q),
(412,740,l),
(340,740,l),
(340,692,l),
(272,680,o)
);
},
{
closed = 1;
nodes = (
(488,508,o),
(488,300,o),
(420,188,o),
(372,188,qs),
(328,188,o),
(260,300,o),
(260,508,o),
(328,620,o),
(372,620,qs),
(420,620,o)
);
}
);
vertWidth = 1024;
width = 1024;
}
);
note = uni3215;
unicode = 12821;
}
{
glyphname = "cieucaParen-ko";
layers = (
{
layerId = m01;
shapes = (
{
closed = 1;
nodes = (
(2032,728,qs),
(2032,1272,o),
(1800,1632,q),
(1672,1632,l),
(1896,1240,o),
(1896,728,qs),
(1896,232,o),
(1680,-152,q),
(1800,-152,l),
(2032,192,o)
);
},
{
closed = 1;
nodes = (
(16,1272,o),
(16,728,qs),
(16,192,o),
(248,-152,q),
(368,-152,l),
(152,232,o),
(152,728,qs),
(152,1240,o),
(368,1632,q),
(248,1632,l)
);
},
{
closed = 1;
nodes = (
(1488,8,l),
(1488,664,l),
(1736,664,l),
(1736,816,l),
(1488,816,l),
(1488,1480,l),
(1328,1480,l),
(1328,8,l)
);
},
{
closed = 1;
nodes = (
(408,1096,l),
(720,1096,l),
(720,1040,l),
(672,600,o),
(296,408,q),
(400,288,l),
(696,464,o),
(792,736,q),
(856,448,o),
(1144,304,q),
(1240,424,l),
(864,600,o),
(864,1032,qs),
(864,1096,l),
(1152,1096,l),
(1152,1248,l),
(408,1248,l)
);
}
);
vertWidth = 2048;
width = 2048;
}
);
note = uni3216;
unicode = 12822;
}
{
glyphname = "chieuchaParen-ko";
layers = (
{
layerId = m01;
shapes = (
{
closed = 1;
nodes = (
(1016,364,qs),
(1016,636,o),
(900,816,q),
(836,816,l),
(948,620,o),
(948,364,qs),
(948,116,o),
(840,-76,q),
(900,-76,l),
(1016,96,o)
);
},
{
closed = 1;
nodes = (
(8,636,o),
(8,364,qs),
(8,96,o),
(124,-76,q),
(184,-76,l),
(76,116,o),
(76,364,qs),
(76,620,o),
(184,816,q),
(124,816,l)
);
},
{
closed = 1;
nodes = (
(744,4,l),
(744,332,l),
(868,332,l),
(868,408,l),
(744,408,l),
(744,740,l),
(664,740,l),
(664,4,l)
);
},
{
closed = 1;
nodes = (
(268,620,l),
(544,620,l),
(544,696,l),
(268,696,l)
);
},
{
closed = 1;
nodes = (
(208,464,l),
(376,464,l),
(356,284,o),
(184,204,q),
(236,144,l),
(380,220,o),
(416,340,q),
(444,216,o),
(564,148,q),
(616,208,l),
(456,276,o),
(456,460,qs),
(456,464,l),
(612,464,l),
(612,540,l),
(208,540,l)
);
}
);
vertWidth = 1024;
width = 1024;
}
);
note = uni3217;
unicode = 12823;
}
{
glyphname = "khieukhaParen-ko";
layers = (
{
layerId = m01;
shapes = (
{
closed = 1;
nodes = (
(254,91,qs),
(254,159,o),
(225,204,q),
(209,204,l),
(237,155,o),
(237,91,qs),
(237,29,o),
(210,-19,q),
(225,-19,l),
(254,24,o)
);
},
{
closed = 1;
nodes = (
(2,159,o),
(2,91,qs),
(2,24,o),
(31,-19,q),
(46,-19,l),
(19,29,o),
(19,91,qs),
(19,155,o),
(46,204,q),
(31,204,l)
);
},
{
closed = 1;
nodes = (
(186,1,l),
(186,83,l),
(217,83,l),
(217,102,l),
(186,102,l),
(186,185,l),
(166,185,l),
(166,1,l)
);
},
{
closed = 1;
nodes = (
(49,91,l),
(112,101,l),
(96,61,o),
(58,41,q),
(69,24,l),
(141,68,o),
(144,165,q),
(56,165,l),
(56,146,l),
(122,146,l),
(118,118,l),
(46,110,l)
);
}
);
vertWidth = 256;
width = 256;
}
);
note = uni3218;
unicode = 12824;
}
{
glyphname = "thieuthaParen-ko";
layers = (
{
layerId = m01;
shapes = (
{
closed = 1;
nodes = (
(254,91,qs),
(254,159,o),
(225,204,q),
(209,204,l),
(237,155,o),
(237,91,qs),
(237,29,o),
(210,-19,q),
(225,-19,l),
(254,24,o)
);
},
{
closed = 1;
nodes = (
(2,159,o),
(2,91,qs),
(2,24,o),
(31,-19,q),
(46,-19,l),
(19,29,o),
(19,91,qs),
(19,155,o),
(46,204,q),
(31,204,l)
);
},
{
closed = 1;
nodes = (
(186,1,l),
(186,83,l),
(217,83,l),
(217,102,l),
(186,102,l),
(186,185,l),
(166,185,l),
(166,1,l)
);
},
{
closed = 1;
nodes = (
(106,33,o),
(148,39,q),
(144,58,l),
(116,51,o),
(71,51,q),
(71,89,l),
(135,89,l),
(135,108,l),
(71,108,l),
(71,139,l),
(140,139,l),
(140,158,l),
(51,158,l),
(51,33,l)
);
}
);
vertWidth = 256;
width = 256;
}
);
note = uni3219;
unicode = 12825;
}
{
glyphname = "phieuphaParen-ko";
layers = (
{
layerId = m01;
shapes = (
{
closed = 1;
nodes = (
(254,91,qs),
(254,159,o),
(225,204,q),
(209,204,l),
(237,155,o),
(237,91,qs),
(237,29,o),
(210,-19,q),
(225,-19,l),
(254,24,o)
);
},
{
closed = 1;
nodes = (
(2,159,o),
(2,91,qs),
(2,24,o),
(31,-19,q),
(46,-19,l),
(19,29,o),
(19,91,qs),
(19,155,o),
(46,204,q),
(31,204,l)
);
},
{
closed = 1;
nodes = (
(186,1,l),
(186,83,l),
(217,83,l),
(217,102,l),
(186,102,l),
(186,185,l),
(166,185,l),
(166,1,l)
);
},
{
closed = 1;
nodes = (
(47,134,l),
(147,134,l),
(147,154,l),
(47,154,l)
);
},
{
closed = 1;
nodes = (
(44,54,l),
(47,35,l),
(155,43,l),
(155,62,l),
(130,60,l),
(135,120,l),
(116,120,l),
(110,59,l),
(85,57,l),
(80,120,l),
(61,120,l),
(65,56,l)
);
}
);
vertWidth = 256;
width = 256;
}
);
note = uni321A;
unicode = 12826;
}
